<svg width="1920" height="1421" viewBox="0 0 1920 1421" fill="none" xmlns="http://www.w3.org/2000/svg">
    <path d="M530.215 1239.89L556.285 1221.52L530.215 1239.89C549.743 1260.52 576.803 1274.25 604.78 1277.74L1487.15 1387.62C1519.93 1391.71 1550.11 1381.25 1567.84 1359.67L1910.04 943.092L1881.08 922.295L1910.04 943.092C1924.93 924.969 1929.57 900.772 1922.86 876.24L1829.12 533.585C1823.44 512.791 1809.98 493.203 1791.11 478.235L1264.21 60.383C1235.41 37.5408 1197.61 28.2618 1165.06 36.0442L79.781 295.533C51.177 302.372 30.2135 321.555 23.1736 347.333L-40.2412 579.539C-47.8627 607.447 -38.179 639.409 -14.5352 664.387L530.215 1239.89Z" stroke="#FF6976" stroke-width="69"/>
</svg>
