<svg width="336" height="65" viewBox="0 0 336 65" fill="none" xmlns="http://www.w3.org/2000/svg">
<path d="M-0.000488281 -0.00012207H177.814V64.9999H-0.000488281V-0.00012207Z" fill="white"/>
<path d="M21.8795 48.6811C20.7052 48.6811 19.6236 48.3908 18.6347 47.8102C17.6768 47.2295 16.9042 46.4655 16.317 45.5182C15.7299 44.5403 15.4363 43.4707 15.4363 42.3094V39.7883H21.555V42.0344C21.555 42.1872 21.6014 42.3247 21.6941 42.447C21.8177 42.5386 21.9568 42.5845 22.1113 42.5845H42.09C42.2445 42.5845 42.3681 42.5386 42.4608 42.447C42.5844 42.3247 42.6462 42.1872 42.6462 42.0344V35.7544C42.6462 35.6016 42.5844 35.4794 42.4608 35.3877C42.3681 35.296 42.2445 35.2502 42.09 35.2502H21.8795C20.7052 35.2502 19.6236 34.9599 18.6347 34.3793C17.6768 33.7986 16.9042 33.0346 16.317 32.0873C15.7299 31.1094 15.4363 30.0245 15.4363 28.8327V22.0485C15.4363 20.8872 15.7299 19.8329 16.317 18.8856C16.9042 17.9077 17.6768 17.1284 18.6347 16.5478C19.6236 15.9672 20.7052 15.6768 21.8795 15.6768H42.3681C43.5424 15.6768 44.6085 15.9672 45.5665 16.5478C46.5554 17.1284 47.3434 17.9077 47.9306 18.8856C48.5177 19.8329 48.8113 20.8872 48.8113 22.0485V24.5697H42.6462V22.3235C42.6462 22.1707 42.5844 22.0485 42.4608 21.9568C42.3681 21.8346 42.2445 21.7735 42.09 21.7735H22.1113C21.9568 21.7735 21.8177 21.8346 21.6941 21.9568C21.6014 22.0485 21.555 22.1707 21.555 22.3235V28.6035C21.555 28.7563 21.6014 28.8785 21.6941 28.9702C21.8177 29.0619 21.9568 29.1077 22.1113 29.1077H42.3681C43.5424 29.1077 44.6085 29.3981 45.5665 29.9787C46.5554 30.5593 47.3434 31.3386 47.9306 32.3165C48.5177 33.2638 48.8113 34.3334 48.8113 35.5252V42.3094C48.8113 43.4707 48.5177 44.5403 47.9306 45.5182C47.3434 46.4655 46.5554 47.2295 45.5665 47.8102C44.6085 48.3908 43.5424 48.6811 42.3681 48.6811H21.8795Z" fill="#FD4D5D"/>
<path d="M65.8313 48.6811V21.7735H52.2031V15.6768H85.5782V21.7735H71.9964V48.6811H65.8313Z" fill="#FD4D5D"/>
<path d="M95.3955 48.6811C94.2212 48.6811 93.1396 48.3908 92.1507 47.8102C91.1927 47.2295 90.4201 46.4655 89.833 45.5182C89.2458 44.5403 88.9522 43.4707 88.9522 42.3094V22.0485C88.9522 20.8872 89.2458 19.8329 89.833 18.8856C90.4201 17.9077 91.1927 17.1284 92.1507 16.5478C93.1396 15.9672 94.2212 15.6768 95.3955 15.6768H115.884C117.058 15.6768 118.125 15.9672 119.082 16.5478C120.071 17.1284 120.859 17.9077 121.447 18.8856C122.034 19.8329 122.327 20.8872 122.327 22.0485V42.3094C122.327 43.4707 122.034 44.5403 121.447 45.5182C120.859 46.4655 120.071 47.2295 119.082 47.8102C118.125 48.3908 117.058 48.6811 115.884 48.6811H95.3955ZM95.6273 42.5845H115.56C115.714 42.5845 115.853 42.5386 115.977 42.447C116.1 42.3247 116.162 42.1872 116.162 42.0344V22.3235C116.162 22.1707 116.1 22.0485 115.977 21.9568C115.853 21.8346 115.714 21.7735 115.56 21.7735H95.6273C95.4727 21.7735 95.3337 21.8346 95.2101 21.9568C95.1174 22.0485 95.071 22.1707 95.071 22.3235V42.0344C95.071 42.1872 95.1174 42.3247 95.2101 42.447C95.3337 42.5386 95.4727 42.5845 95.6273 42.5845Z" fill="#FD4D5D"/>
<path d="M127.432 48.6811V15.7227H154.317C155.492 15.7227 156.573 16.013 157.562 16.5936C158.551 17.1743 159.339 17.9535 159.926 18.9314C160.513 19.8788 160.807 20.9331 160.807 22.0943V30.9872C160.807 32.1484 160.513 33.218 159.926 34.1959C159.339 35.1738 158.551 35.9531 157.562 36.5337C156.573 37.0838 155.492 37.3588 154.317 37.3588L133.551 37.4046V48.6811H127.432ZM134.107 31.2622H154.039C154.194 31.2622 154.333 31.2164 154.457 31.1247C154.58 31.033 154.642 30.9108 154.642 30.758V22.3235C154.642 22.1707 154.58 22.0485 154.457 21.9568C154.333 21.8346 154.194 21.7735 154.039 21.7735H134.107C133.953 21.7735 133.813 21.8346 133.69 21.9568C133.597 22.0485 133.551 22.1707 133.551 22.3235V30.758C133.551 30.9108 133.597 31.033 133.69 31.1247C133.813 31.2164 133.953 31.2622 134.107 31.2622Z" fill="#FD4D5D"/>
<path d="M219.044 48.6811L209.451 37.3588L212.905 37.373L217.448 37.3629L225.719 46.985V48.6811H219.044ZM192.437 48.6811V15.7227H219.322C220.496 15.7227 221.578 16.013 222.567 16.5936C223.556 17.1743 224.344 17.9535 224.931 18.9314C225.518 19.8788 225.812 20.9331 225.812 22.0943V30.9872C225.812 32.1484 225.518 33.218 224.931 34.1959C224.344 35.1738 223.556 35.9531 222.567 36.5337C221.578 37.0838 220.496 37.3588 219.322 37.3588H209.451L198.555 37.4046V48.6811H192.437ZM199.112 31.2622H219.044C219.198 31.2622 219.337 31.2164 219.461 31.1247C219.585 31.033 219.646 30.9108 219.646 30.758V22.3235C219.646 22.1707 219.585 22.0485 219.461 21.9568C219.337 21.8346 219.198 21.7735 219.044 21.7735H199.112C198.957 21.7735 198.818 21.8346 198.694 21.9568C198.602 22.0485 198.555 22.1707 198.555 22.3235V30.758C198.555 30.9108 198.602 31.033 198.694 31.1247C198.818 31.2164 198.957 31.2622 199.112 31.2622Z" fill="white"/>
<path d="M230.781 48.6811V15.6768H261.513V21.7735H236.946V29.1077H256.693V35.2502H236.946V42.5845H261.513V48.6811H230.781Z" fill="white"/>
<path d="M272.621 48.6811C271.447 48.6811 270.365 48.3908 269.376 47.8102C268.418 47.2295 267.646 46.4655 267.058 45.5182C266.471 44.5403 266.178 43.4707 266.178 42.3094V22.0485C266.178 20.8872 266.471 19.8329 267.058 18.8856C267.646 17.9077 268.418 17.1284 269.376 16.5478C270.365 15.9672 271.447 15.6768 272.621 15.6768H299.46V21.7735H273.919C273.424 21.7735 273.023 21.911 272.714 22.186C272.436 22.4611 272.296 22.8583 272.296 23.3778V40.9801C272.296 41.4691 272.436 41.8663 272.714 42.1719C273.023 42.447 273.424 42.5845 273.919 42.5845H299.46V48.6811H272.621Z" fill="white"/>
<path d="M316.253 48.6811V21.7735H302.624V15.6768H336V21.7735H322.418V48.6811H316.253Z" fill="white"/>
</svg>
