<svg width="161" height="42" viewBox="0 0 161 42" fill="none" xmlns="http://www.w3.org/2000/svg">
<g filter="url(#filter0_d_739_14)">
<path d="M19.3318 9.28977C19.9629 7.51783 22.4688 7.51783 23.0999 9.28977L24.1587 12.2624C24.4425 13.0592 25.1969 13.5914 26.0427 13.5914H29.0493C31.0308 13.5914 31.8059 16.1637 30.1542 17.2584L28.0474 18.6548C27.2813 19.1626 26.9598 20.1271 27.2682 20.9929L28.1457 23.4566C28.7907 25.2674 26.7589 26.8567 25.1567 25.7947L22.3208 23.9151C21.651 23.4712 20.7806 23.4712 20.1109 23.9151L17.2749 25.7947C15.6727 26.8567 13.641 25.2674 14.286 23.4566L15.1634 20.9929C15.4718 20.1271 15.1504 19.1626 14.3843 18.6548L12.2775 17.2584C10.6257 16.1637 11.4008 13.5914 13.3824 13.5914H16.3889C17.2348 13.5914 17.9892 13.0592 18.273 12.2624L19.3318 9.28977Z" fill="#26A17B"/>
<path d="M49.7634 9.28977C50.3945 7.51783 52.9004 7.51783 53.5315 9.28977L54.5903 12.2624C54.8741 13.0592 55.6285 13.5914 56.4744 13.5914H59.4809C61.4625 13.5914 62.2376 16.1637 60.5858 17.2584L58.479 18.6548C57.7129 19.1626 57.3915 20.1271 57.6999 20.9929L58.5773 23.4566C59.2223 25.2674 57.1906 26.8567 55.5884 25.7947L52.7524 23.9151C52.0827 23.4712 51.2123 23.4712 50.5425 23.9151L47.7066 25.7947C46.1043 26.8567 44.0726 25.2674 44.7176 23.4566L45.5951 20.9929C45.9035 20.1271 45.582 19.1626 44.8159 18.6548L42.7091 17.2584C41.0574 16.1637 41.8324 13.5914 43.814 13.5914H46.8206C47.6664 13.5914 48.4208 13.0592 48.7046 12.2624L49.7634 9.28977Z" fill="#26A17B"/>
<path d="M80.1953 9.28977C80.8264 7.51783 83.3323 7.51783 83.9634 9.28977L85.0222 12.2624C85.306 13.0592 86.0604 13.5914 86.9062 13.5914H89.9128C91.8944 13.5914 92.6694 16.1637 91.0177 17.2584L88.9109 18.6548C88.1448 19.1626 87.8234 20.1271 88.1318 20.9929L89.0092 23.4566C89.6542 25.2674 87.6225 26.8567 86.0202 25.7947L83.1843 23.9151C82.5145 23.4712 81.6442 23.4712 80.9744 23.9151L78.1385 25.7947C76.5362 26.8567 74.5045 25.2674 75.1495 23.4566L76.027 20.9929C76.3353 20.1271 76.0139 19.1626 75.2478 18.6548L73.141 17.2584C71.4893 16.1637 72.2643 13.5914 74.2459 13.5914H77.2525C78.0983 13.5914 78.8527 13.0592 79.1365 12.2624L80.1953 9.28977Z" fill="#26A17B"/>
<path d="M109.689 9.73801C110.32 7.96607 112.826 7.96607 113.457 9.73801L114.516 12.7107C114.8 13.5075 115.554 14.0396 116.4 14.0396H119.406C121.388 14.0396 122.163 16.6119 120.511 17.7067L118.405 19.1031C117.638 19.6108 117.317 20.5754 117.625 21.4412L118.503 23.9048C119.148 25.7156 117.116 27.3049 115.514 26.243L112.678 24.3633C112.008 23.9194 111.138 23.9194 110.468 24.3633L107.632 26.243C106.03 27.3049 103.998 25.7156 104.643 23.9048L105.521 21.4412C105.829 20.5754 105.508 19.6108 104.741 19.1031L102.635 17.7067C100.983 16.6119 101.758 14.0396 103.74 14.0396H106.746C107.592 14.0396 108.346 13.5075 108.63 12.7106L109.689 9.73801Z" fill="#26A17B"/>
<path d="M137.607 11.0704C138.294 9.14005 141.095 9.36947 141.459 11.386L141.825 13.4151C141.847 13.5324 141.857 13.6513 141.857 13.7705V18.1324V22.1018C141.857 22.4881 141.969 22.8662 142.179 23.1903L143.696 25.5274C143.711 25.5514 143.738 25.5659 143.767 25.5659V25.5659C143.852 25.5659 143.883 25.4534 143.81 25.4091L140.716 23.5401C140.355 23.3219 139.901 23.3314 139.549 23.5645L136.184 25.7947C134.582 26.8567 132.55 25.2674 133.195 23.4566L134.073 20.9929C134.381 20.1271 134.059 19.1626 133.293 18.6548L131.187 17.2584C129.535 16.1637 130.31 13.5914 132.291 13.5914H135.298C136.144 13.5914 136.898 13.0592 137.182 12.2624L137.607 11.0704Z" fill="#26A17B"/>
<path d="M141.067 9.62529L142.126 12.5979C142.551 13.7932 143.683 14.5914 144.952 14.5914H147.958C148.949 14.5914 149.337 15.8775 148.511 16.4249L146.404 17.8213C145.255 18.5829 144.773 20.0297 145.235 21.3285L146.113 23.7921C146.435 24.6975 145.419 25.4922 144.618 24.9612L141.782 23.0815C140.778 22.4157 139.472 22.4157 138.467 23.0815L135.631 24.9612C134.83 25.4922 133.814 24.6975 134.137 23.7921L135.014 21.3285C135.477 20.0297 134.995 18.5829 133.846 17.8213L131.739 16.4249C130.913 15.8775 131.301 14.5914 132.291 14.5914H135.298C136.567 14.5914 137.698 13.7932 138.124 12.5979L139.183 9.62529C139.498 8.73932 140.751 8.73932 141.067 9.62529Z" stroke="#26A17B" stroke-width="2" stroke-linejoin="bevel"/>
</g>
<defs>
<filter id="filter0_d_739_14" x="0.378662" y="0.960938" width="160.583" height="40.624" filterUnits="userSpaceOnUse" color-interpolation-filters="sRGB">
<feFlood flood-opacity="0" result="BackgroundImageFix"/>
<feColorMatrix in="SourceAlpha" type="matrix" values="0 0 0 0 0 0 0 0 0 0 0 0 0 0 0 0 0 0 127 0" result="hardAlpha"/>
<feOffset dy="4"/>
<feGaussianBlur stdDeviation="5.5"/>
<feComposite in2="hardAlpha" operator="out"/>
<feColorMatrix type="matrix" values="0 0 0 0 0 0 0 0 0 0 0 0 0 0 0 0 0 0 0.03 0"/>
<feBlend mode="normal" in2="BackgroundImageFix" result="effect1_dropShadow_739_14"/>
<feBlend mode="normal" in="SourceGraphic" in2="effect1_dropShadow_739_14" result="shape"/>
</filter>
</defs>
</svg>
