<svg width="1666" height="1379" viewBox="0 0 1666 1379" fill="none" xmlns="http://www.w3.org/2000/svg">
<g filter="url(#filter0_d_576_26)">
<path d="M1086.37 178.884C1113.06 177.737 1138.53 188.845 1155.63 209.087L1462.54 572.388C1488.93 603.635 1489.87 649.694 1464.79 683.284L1198.68 1039.69C1187.97 1054.05 1173.31 1064.94 1156.59 1070.96L835.909 1186.6C816.577 1193.57 795.612 1193.63 776.58 1186.77L388.128 1046.71C368.187 1039.52 351.691 1025.21 341.705 1006.44L193.333 727.538C179.774 702.052 179.681 671.162 193.081 644.922L392.188 255.062C407.111 225.842 436.485 206.794 468.758 205.408L1086.37 178.884Z" stroke="#26A17B" stroke-width="57" shape-rendering="crispEdges"/>
</g>
<defs>
<filter id="filter0_d_576_26" x="0.714233" y="0.18631" width="1664.65" height="1378.3" filterUnits="userSpaceOnUse" color-interpolation-filters="sRGB">
<feFlood flood-opacity="0" result="BackgroundImageFix"/>
<feColorMatrix in="SourceAlpha" type="matrix" values="0 0 0 0 0 0 0 0 0 0 0 0 0 0 0 0 0 0 127 0" result="hardAlpha"/>
<feOffset dy="4"/>
<feGaussianBlur stdDeviation="77"/>
<feComposite in2="hardAlpha" operator="out"/>
<feColorMatrix type="matrix" values="0 0 0 0 0 0 0 0 0 0 0 0 0 0 0 0 0 0 0.5 0"/>
<feBlend mode="normal" in2="BackgroundImageFix" result="effect1_dropShadow_576_26"/>
<feBlend mode="normal" in="SourceGraphic" in2="effect1_dropShadow_576_26" result="shape"/>
</filter>
</defs>
</svg>
