<svg width="1281" height="954" viewBox="0 0 1281 954" fill="none" xmlns="http://www.w3.org/2000/svg">
    <path d="M1005.38 100.645C995.733 86.1724 980.178 76.7339 962.8 74.8068L297.156 0.995978C274.397 -1.52771 251.995 9.16963 239.442 28.556L10.4047 382.262C1.53088 395.966 -1.47193 412.595 2.08053 428.362L65.7031 710.742C69.5739 727.922 80.8466 742.408 96.5151 750.337L485.776 947.338C497.071 953.054 509.946 955 522.538 952.893L888.597 891.651C899.805 889.776 910.3 884.771 918.867 877.217L1259.61 576.717C1282.36 556.654 1286.97 523.058 1270.38 498.179L1005.38 100.645Z" fill="#DFF7EF"/>
</svg>
