<svg width="586" height="114" viewBox="0 0 586 114" fill="none" xmlns="http://www.w3.org/2000/svg">
<path d="M0.933105 0.167236H310.521V113.167H0.933105V0.167236Z" fill="#FD4D5D"/>
<path d="M39.0278 84.7977C36.9832 84.7977 35.1001 84.293 33.3784 83.2836C31.7104 82.2742 30.3653 80.946 29.3431 79.2991C28.3208 77.599 27.8097 75.7396 27.8097 73.7208V69.3378H38.4628V73.2426C38.4628 73.5083 38.5435 73.7473 38.705 73.9598C38.9202 74.1192 39.1623 74.1989 39.4313 74.1989H74.2156C74.4846 74.1989 74.6998 74.1192 74.8612 73.9598C75.0765 73.7473 75.1841 73.5083 75.1841 73.2426V62.3252C75.1841 62.0595 75.0765 61.847 74.8612 61.6876C74.6998 61.5282 74.4846 61.4486 74.2156 61.4486H39.0278C36.9832 61.4486 35.1001 60.9439 33.3784 59.9345C31.7104 58.9251 30.3653 57.5969 29.3431 55.95C28.3208 54.2499 27.8097 52.3639 27.8097 50.292V38.4979C27.8097 36.4791 28.3208 34.6463 29.3431 32.9993C30.3653 31.2993 31.7104 29.9446 33.3784 28.9352C35.1001 27.9257 36.9832 27.421 39.0278 27.421H74.6998C76.7444 27.421 78.6006 27.9257 80.2685 28.9352C81.9903 29.9446 83.3623 31.2993 84.3845 32.9993C85.4068 34.6463 85.918 36.4791 85.918 38.4979V42.8809H75.1841V38.9761C75.1841 38.7104 75.0765 38.4979 74.8612 38.3385C74.6998 38.126 74.4846 38.0198 74.2156 38.0198H39.4313C39.1623 38.0198 38.9202 38.126 38.705 38.3385C38.5435 38.4979 38.4628 38.7104 38.4628 38.9761V49.8936C38.4628 50.1592 38.5435 50.3717 38.705 50.5311C38.9202 50.6905 39.1623 50.7701 39.4313 50.7701H74.6998C76.7444 50.7701 78.6006 51.2748 80.2685 52.2842C81.9903 53.2937 83.3623 54.6484 84.3845 56.3484C85.4068 57.9953 85.918 59.8548 85.918 61.9267V73.7208C85.918 75.7396 85.4068 77.599 84.3845 79.2991C83.3623 80.946 81.9903 82.2742 80.2685 83.2836C78.6006 84.293 76.7444 84.7977 74.6998 84.7977H39.0278Z" fill="white"/>
<path d="M115.551 84.7977V38.0198H91.8234V27.421H149.932V38.0198H126.285V84.7977H115.551Z" fill="white"/>
<path d="M167.024 84.7977C164.98 84.7977 163.097 84.293 161.375 83.2836C159.707 82.2742 158.362 80.946 157.34 79.2991C156.317 77.599 155.806 75.7396 155.806 73.7208V38.4979C155.806 36.4791 156.317 34.6463 157.34 32.9993C158.362 31.2993 159.707 29.9446 161.375 28.9352C163.097 27.9257 164.98 27.421 167.024 27.421H202.696C204.741 27.421 206.597 27.9257 208.265 28.9352C209.987 29.9446 211.359 31.2993 212.381 32.9993C213.403 34.6463 213.915 36.4791 213.915 38.4979V73.7208C213.915 75.7396 213.403 77.599 212.381 79.2991C211.359 80.946 209.987 82.2742 208.265 83.2836C206.597 84.293 204.741 84.7977 202.696 84.7977H167.024ZM167.428 74.1989H202.131C202.4 74.1989 202.643 74.1192 202.858 73.9598C203.073 73.7473 203.181 73.5083 203.181 73.2426V38.9761C203.181 38.7104 203.073 38.4979 202.858 38.3385C202.643 38.126 202.4 38.0198 202.131 38.0198H167.428C167.159 38.0198 166.917 38.126 166.701 38.3385C166.54 38.4979 166.459 38.7104 166.459 38.9761V73.2426C166.459 73.5083 166.54 73.7473 166.701 73.9598C166.917 74.1192 167.159 74.1989 167.428 74.1989Z" fill="white"/>
<path d="M222.802 84.7977V27.5007H269.612C271.656 27.5007 273.539 28.0054 275.261 29.0148C276.983 30.0242 278.355 31.379 279.377 33.079C280.399 34.7259 280.911 36.5588 280.911 38.5776V54.0374C280.911 56.0562 280.399 57.9156 279.377 59.6157C278.355 61.3157 276.983 62.6705 275.261 63.6799C273.539 64.6362 271.656 65.1143 269.612 65.1143L233.455 65.194V84.7977H222.802ZM234.424 54.5156H269.127C269.396 54.5156 269.639 54.4359 269.854 54.2765C270.069 54.1171 270.177 53.9046 270.177 53.639V38.9761C270.177 38.7104 270.069 38.4979 269.854 38.3385C269.639 38.126 269.396 38.0198 269.127 38.0198H234.424C234.155 38.0198 233.913 38.126 233.698 38.3385C233.536 38.4979 233.455 38.7104 233.455 38.9761V53.639C233.455 53.9046 233.536 54.1171 233.698 54.2765C233.913 54.4359 234.155 54.5156 234.424 54.5156Z" fill="white"/>
<path d="M382.305 84.7977L365.603 65.1143L371.617 65.1389L379.526 65.1215L393.927 81.8491V84.7977H382.305ZM335.98 84.7977V27.5007H382.789C384.834 27.5007 386.717 28.0054 388.439 29.0148C390.16 30.0242 391.532 31.379 392.555 33.079C393.577 34.7259 394.088 36.5588 394.088 38.5776V54.0374C394.088 56.0562 393.577 57.9156 392.555 59.6157C391.532 61.3157 390.16 62.6705 388.439 63.6799C386.717 64.6362 384.834 65.1143 382.789 65.1143H365.603L346.633 65.194V84.7977H335.98ZM347.601 54.5156H382.305C382.574 54.5156 382.816 54.4359 383.031 54.2765C383.247 54.1171 383.354 53.9046 383.354 53.639V38.9761C383.354 38.7104 383.247 38.4979 383.031 38.3385C382.816 38.126 382.574 38.0198 382.305 38.0198H347.601C347.332 38.0198 347.09 38.126 346.875 38.3385C346.714 38.4979 346.633 38.7104 346.633 38.9761V53.639C346.633 53.9046 346.714 54.1171 346.875 54.2765C347.09 54.4359 347.332 54.5156 347.601 54.5156Z" fill="#FD4D5D"/>
<path d="M402.739 84.7977V27.421H456.247V38.0198H413.473V50.7701H447.854V61.4486H413.473V74.1989H456.247V84.7977H402.739Z" fill="#FD4D5D"/>
<path d="M475.587 84.7977C473.542 84.7977 471.659 84.293 469.937 83.2836C468.269 82.2742 466.924 80.946 465.902 79.2991C464.88 77.599 464.368 75.7396 464.368 73.7208V38.4979C464.368 36.4791 464.88 34.6463 465.902 32.9993C466.924 31.2993 468.269 29.9446 469.937 28.9352C471.659 27.9257 473.542 27.421 475.587 27.421H522.315V38.0198H477.846C476.985 38.0198 476.286 38.2589 475.748 38.737C475.264 39.2151 475.022 39.9058 475.022 40.8089V71.4098C475.022 72.2598 475.264 72.9505 475.748 73.4817C476.286 73.9599 476.985 74.1989 477.846 74.1989H522.315V84.7977H475.587Z" fill="#FD4D5D"/>
<path d="M551.552 84.7977V38.0198H527.825V27.421H585.933V38.0198H562.286V84.7977H551.552Z" fill="#FD4D5D"/>
</svg>
