<svg width="86" height="86" viewBox="0 0 86 86" fill="none" xmlns="http://www.w3.org/2000/svg">
<g id="Application logo">
<g id="Logo">
<path d="M39.1786 54.8747C42.9062 55.8322 51.3121 57.9912 52.5621 52.6649C53.82 47.2675 45.9398 45.5683 41.9858 44.7157C41.516 44.6144 41.1017 44.5251 40.7647 44.4429L38.3638 54.6686C38.5997 54.7261 38.8735 54.7964 39.1786 54.8747Z" fill="#F7931A"/>
<path d="M42.5177 39.9205C45.6268 40.7244 52.7039 42.5542 53.8453 37.6995C55.0031 32.8271 48.3983 31.4122 45.1317 30.7124C44.739 30.6283 44.3945 30.5545 44.1176 30.4863L41.8823 39.7585C42.0683 39.8043 42.2815 39.8594 42.5177 39.9205Z" fill="#F7931A"/>
<path fill-rule="evenodd" clip-rule="evenodd" d="M32.7911 84.154C55.4378 89.7915 78.3331 75.9879 83.9672 53.3827C89.5875 30.7636 75.8061 7.79915 53.1455 2.23075C30.554 -3.40675 7.67253 10.3968 2.03846 33.0021C-3.5956 55.6073 10.1858 78.5027 32.7911 84.154ZM53.6107 27.1284C59.4749 29.1183 63.7523 32.0616 62.9934 37.6995C62.4139 41.8036 60.1786 43.8073 57.0878 44.512C61.3101 46.6815 63.4212 49.9703 61.4894 55.7326C59.0886 62.9596 53.1692 63.6091 45.2491 62.1996L43.4277 69.8965L38.7915 68.7772L40.6129 61.2047C39.4401 60.9145 38.212 60.6105 36.915 60.265L35.0936 67.8928L30.4575 66.7735L32.2788 59.0766C31.6415 58.8919 30.9786 58.7326 30.3057 58.571C29.8715 58.4667 29.4332 58.3613 28.9949 58.2475L22.9513 56.8381L25.1452 51.4903C25.1452 51.4903 28.6085 52.3747 28.5533 52.3194C29.8366 52.6096 30.4299 51.7805 30.6645 51.2001L33.4793 39.0399C33.569 39.0676 33.6414 39.0814 33.7138 39.0952C33.7863 39.109 33.8587 39.1228 33.9484 39.1505C33.8324 39.07 33.7221 39.0416 33.6251 39.0166C33.5721 39.003 33.5231 38.9903 33.4793 38.9708L35.5352 30.279C35.6042 29.3394 35.2454 28.1095 33.3689 27.6397C33.4931 27.5706 30.0297 26.8106 30.0297 26.8106L31.2026 21.8774L37.5911 23.4113C38.0878 23.5287 38.588 23.6324 39.0882 23.736C39.5884 23.8396 40.0886 23.9433 40.5853 24.0607L42.4067 16.433L47.098 17.5523L45.3318 25.0142C46.5599 25.2629 47.8017 25.5531 49.0297 25.8433L50.7959 18.3814L55.4321 19.5007L53.6107 27.1284Z" fill="#F7931A"/>
</g>
</g>
</svg>
