<svg width="22" height="22" viewBox="0 0 22 22" fill="none" xmlns="http://www.w3.org/2000/svg">
<g id="checkmark">
<path id="Vector" d="M10.3496 21.0806C7.66595 21.0806 5.09218 20.0145 3.19452 18.1168C1.29687 16.2192 0.230774 13.6454 0.230774 10.9617C0.230774 8.27801 1.29687 5.70423 3.19452 3.80658C5.09218 1.90892 7.66595 0.84283 10.3496 0.84283C12.2455 0.828869 14.1059 1.35606 15.7126 2.3625L14.7375 3.92632C13.423 3.10282 11.9008 2.67138 10.3496 2.68262C8.71219 2.68262 7.11152 3.16818 5.75003 4.0779C4.38855 4.98761 3.3274 6.28063 2.70077 7.79343C2.07415 9.30623 1.9102 10.9709 2.22965 12.5769C2.5491 14.1828 3.3376 15.658 4.49545 16.8159C5.6533 17.9737 7.12849 18.7622 8.73447 19.0817C10.3405 19.4011 12.0051 19.2372 13.5179 18.6106C15.0307 17.9839 16.3237 16.9228 17.2334 15.5613C18.1432 14.1998 18.6287 12.5991 18.6287 10.9617C18.6332 10.2313 18.5498 9.50304 18.3803 8.79258L20.1649 8.34735C20.3708 9.20343 20.4727 10.0812 20.4685 10.9617C20.4653 13.6444 19.3982 16.2163 17.5013 18.1133C15.6043 20.0103 13.0324 21.0774 10.3496 21.0806Z" fill="#5153E2"/>
<path id="Vector_2" d="M10.3493 13.7198C10.1053 13.7198 9.87139 13.6228 9.69891 13.4503L5.36896 9.12035L6.66969 7.81962L10.3493 11.4992L20.4681 1.38034L21.7689 2.68107L10.9996 13.4503C10.8272 13.6228 10.5932 13.7198 10.3493 13.7198Z" fill="#FF6652"/>
</g>
</svg>
