<svg width="40" height="41" viewBox="0 0 40 41" fill="none" xmlns="http://www.w3.org/2000/svg">
<rect x="2" y="2.42578" width="36" height="36" rx="18" fill="#DEDEFA"/>
<path d="M15.3916 16.5245C15.0011 16.9151 15.0011 17.5482 15.3916 17.9387C15.7821 18.3293 16.4153 18.3293 16.8058 17.9387L17.5129 17.2316C17.9035 16.8411 17.9035 16.2079 17.5129 15.8174C17.1224 15.4269 16.4892 15.4269 16.0987 15.8174L15.3916 16.5245Z" fill="#5C59E8"/>
<path fill-rule="evenodd" clip-rule="evenodd" d="M12.074 22.3993C11.4841 21.8094 11.1665 21.0006 11.1974 20.1669L11.4681 12.8562C11.4875 12.333 11.9072 11.9133 12.4304 11.8939L19.7411 11.6232C20.5748 11.5923 21.3836 11.9099 21.9735 12.4998L28.8266 19.3529C29.9982 20.5245 29.9982 22.424 28.8266 23.5955L23.1698 29.2524C21.9982 30.424 20.0987 30.424 18.9271 29.2524L12.074 22.3993ZM20.5593 13.914L27.4124 20.7671C27.8029 21.1576 27.8029 21.7908 27.4124 22.1813L21.7556 27.8382C21.365 28.2287 20.7319 28.2287 20.3413 27.8382L13.4882 20.9851C13.2916 20.7884 13.1857 20.5188 13.196 20.2409L13.4324 13.8582L19.8152 13.6218C20.093 13.6115 20.3627 13.7174 20.5593 13.914Z" fill="#5C59E8"/>
<rect x="2" y="2.42578" width="36" height="36" rx="18" stroke="#EFEFFD" stroke-width="4"/>
</svg>
