<svg width="41" height="41" viewBox="0 0 41 41" fill="none" xmlns="http://www.w3.org/2000/svg">
<rect x="2.83331" y="2.42578" width="36" height="36" rx="18" fill="#D0F0FA"/>
<path d="M16.2249 16.5245C15.8344 16.9151 15.8344 17.5482 16.2249 17.9387C16.6154 18.3293 17.2486 18.3293 17.6391 17.9387L18.3462 17.2316C18.7368 16.8411 18.7368 16.2079 18.3462 15.8174C17.9557 15.4269 17.3226 15.4269 16.932 15.8174L16.2249 16.5245Z" fill="#13B2E4"/>
<path fill-rule="evenodd" clip-rule="evenodd" d="M12.9073 22.3993C12.3174 21.8094 11.9998 21.0006 12.0307 20.1669L12.3015 12.8562C12.3208 12.333 12.7405 11.9133 13.2638 11.8939L20.5744 11.6232C21.4081 11.5923 22.2169 11.9099 22.8068 12.4998L29.6599 19.3529C30.8315 20.5245 30.8315 22.424 29.6599 23.5955L24.0031 29.2524C22.8315 30.424 20.932 30.424 19.7604 29.2524L12.9073 22.3993ZM21.3926 13.914L28.2457 20.7671C28.6362 21.1576 28.6362 21.7908 28.2457 22.1813L22.5889 27.8382C22.1983 28.2287 21.5652 28.2287 21.1747 27.8382L14.3215 20.9851C14.1249 20.7884 14.019 20.5188 14.0293 20.2409L14.2657 13.8582L20.6485 13.6218C20.9263 13.6115 21.196 13.7174 21.3926 13.914Z" fill="#13B2E4"/>
<rect x="2.83331" y="2.42578" width="36" height="36" rx="18" stroke="#E8F8FD" stroke-width="4"/>
</svg>
