<svg width="41" height="41" viewBox="0 0 41 41" fill="none" xmlns="http://www.w3.org/2000/svg">
<rect x="2.5" y="2.42578" width="36" height="36" rx="18" fill="#CFE7DC"/>
<path d="M15.8916 16.5245C15.5011 16.9151 15.5011 17.5482 15.8916 17.9387C16.2821 18.3293 16.9153 18.3293 17.3058 17.9387L18.0129 17.2316C18.4035 16.8411 18.4035 16.2079 18.0129 15.8174C17.6224 15.4269 16.9892 15.4269 16.5987 15.8174L15.8916 16.5245Z" fill="#0D894F"/>
<path fill-rule="evenodd" clip-rule="evenodd" d="M12.574 22.3993C11.9841 21.8094 11.6665 21.0006 11.6974 20.1669L11.9681 12.8562C11.9875 12.333 12.4072 11.9133 12.9304 11.8939L20.2411 11.6232C21.0748 11.5923 21.8836 11.9099 22.4735 12.4998L29.3266 19.3529C30.4982 20.5245 30.4982 22.424 29.3266 23.5955L23.6698 29.2524C22.4982 30.424 20.5987 30.424 19.4271 29.2524L12.574 22.3993ZM21.0593 13.914L27.9124 20.7671C28.3029 21.1576 28.3029 21.7908 27.9124 22.1813L22.2556 27.8382C21.865 28.2287 21.2319 28.2287 20.8413 27.8382L13.9882 20.9851C13.7916 20.7884 13.6857 20.5188 13.696 20.2409L13.9324 13.8582L20.3152 13.6218C20.593 13.6115 20.8627 13.7174 21.0593 13.914Z" fill="#0D894F"/>
<rect x="2.5" y="2.42578" width="36" height="36" rx="18" stroke="#E7F4EE" stroke-width="4"/>
</svg>
