<svg width="41" height="41" viewBox="0 0 41 41" fill="none" xmlns="http://www.w3.org/2000/svg">
<rect x="2.33325" y="2.42578" width="36" height="36" rx="18" fill="#FCDAD7"/>
<path d="M15.7249 16.5245C15.3343 16.9151 15.3343 17.5482 15.7249 17.9387C16.1154 18.3293 16.7485 18.3293 17.1391 17.9387L17.8462 17.2316C18.2367 16.8411 18.2367 16.2079 17.8462 15.8174C17.4557 15.4269 16.8225 15.4269 16.432 15.8174L15.7249 16.5245Z" fill="#F04438"/>
<path fill-rule="evenodd" clip-rule="evenodd" d="M12.4072 22.3993C11.8174 21.8094 11.4997 21.0006 11.5306 20.1669L11.8014 12.8562C11.8208 12.333 12.2405 11.9133 12.7637 11.8939L20.0744 11.6232C20.908 11.5923 21.7169 11.9099 22.3067 12.4998L29.1599 19.3529C30.3314 20.5245 30.3314 22.424 29.1599 23.5955L23.503 29.2524C22.3314 30.424 20.432 30.424 19.2604 29.2524L12.4072 22.3993ZM20.8925 13.914L27.7457 20.7671C28.1362 21.1576 28.1362 21.7908 27.7457 22.1813L22.0888 27.8382C21.6983 28.2287 21.0651 28.2287 20.6746 27.8382L13.8215 20.9851C13.6248 20.7884 13.519 20.5188 13.5293 20.2409L13.7657 13.8582L20.1484 13.6218C20.4263 13.6115 20.6959 13.7174 20.8925 13.914Z" fill="#F04438"/>
<rect x="2.33325" y="2.42578" width="36" height="36" rx="18" stroke="#FEEDEC" stroke-width="4"/>
</svg>
