<svg width="528" height="528" viewBox="0 0 528 528" fill="none" xmlns="http://www.w3.org/2000/svg">
<path opacity="0.4" d="M55.4883 477.868L59.8909 481.605L64.6944 484.934L69.8938 487.848L75.4808 490.338L81.4504 492.388L87.7877 494.001L94.4844 495.169L101.526 495.893L108.901 496.163L116.595 495.982L124.596 495.343L132.893 494.245L141.466 492.685L150.303 490.666L159.383 488.191L168.69 485.267L178.203 481.897L187.904 478.085L197.773 473.838L207.794 469.161L217.941 464.059L228.199 458.545L238.543 452.627L248.952 446.323L259.402 439.642L269.873 432.599L280.342 425.209L290.785 417.482L301.181 409.432L311.508 401.079L321.745 392.442L331.868 383.541L341.855 374.393L351.685 365.019L361.339 355.439L370.788 345.671L380.018 335.736L389.007 325.657L397.739 315.457L406.193 305.154L414.356 294.775L422.206 284.342L429.727 273.875L436.904 263.399L443.719 252.934L450.157 242.503L456.214 232.13L461.878 221.832L467.132 211.635L471.972 201.558L476.384 191.623L480.365 181.852L483.899 172.261L486.987 162.873L489.625 153.705L491.81 144.772L493.543 136.093L494.818 127.685L495.635 119.564L495.994 111.744L495.893 104.245L495.337 97.0767L494.331 90.2474L492.882 83.7758L490.995 77.6621L488.675 71.9261L485.928 66.5727L482.76 61.6118L479.177 57.0552M55.4883 477.868L53.5486 475.975L51.6537 474.034L47.6634 469.908L45.8199 467.928L44.0211 465.904L42.272 463.837L40.5726 461.727L37.018 457.241L35.3731 455.1L33.7831 452.92L32.2425 450.7L30.7568 448.446L27.6479 443.628L26.2233 441.352L24.8552 439.039L23.5416 436.696L22.2845 434.322L19.6309 429.207L18.44 426.82L17.307 424.405L16.2321 421.962L15.2183 419.494L13.0219 414.114L12.0762 411.648L11.1917 409.157L10.3685 406.644L8.60935 401.012L7.85739 398.511L7.16502 395.99L6.53554 393.453L5.21045 387.599L4.65063 385.081L4.15697 382.55L3.72473 380.008L2.81702 373.965L2.45429 371.449L2.1562 368.928L1.92095 366.397L1.42067 360.199L1.25345 357.706L1.15074 355.212L1.03806 348.841L1 346.392L1.02811 343.942L1.12091 341.494L1.38427 335.025L1.53829 332.632L1.75863 330.242L2.38139 323.649L2.65967 321.324L3.64355 314.569L3.97646 312.312L4.37402 310.062L5.69087 303.23L6.13802 301.056L8.28467 292.006L8.84293 289.927L10.7924 282.936L11.3937 280.943L13.6481 273.865L14.2892 271.962L16.8382 264.818L17.5124 263.008L20.3449 255.812L21.0488 254.101L24.1512 246.868L24.885 245.26L28.2458 238.006L31.8931 230.665L32.607 229.242L36.4879 221.91L37.2167 220.598L41.3162 213.292L45.6709 205.939L46.3599 204.826L50.9083 197.524L55.6936 190.205L60.7092 182.88L61.2839 182.054L66.4584 174.819L71.8401 167.602L77.4187 160.42L83.1829 153.278L83.5556 152.825L89.4275 145.824L95.4633 138.89L101.653 132.035L107.987 125.27L114.454 118.611L121.043 112.065L127.743 105.643L134.539 99.3607L141.423 93.2222L148.38 87.2426L155.399 81.4321L155.883 81.0346L163.039 75.3366L170.234 69.8308L177.454 64.5287L184.691 59.4354L185.55 58.8342L192.87 53.9031L200.181 49.2023L201.245 48.543L208.614 44.0294L215.947 39.7675L217.209 39.0652L224.575 35.0187L231.874 31.2405L233.329 30.5116L240.633 26.9736L242.194 26.2614L249.485 22.9751L256.677 19.9838L258.416 19.2648L265.563 16.5469L267.404 15.8593L274.493 13.4245L276.425 12.7751L283.441 10.6384L285.46 10.0273L287.499 9.47904L294.491 7.63532L296.611 7.13181L303.491 5.61469L305.691 5.16081L307.901 4.76982L314.715 3.57728L316.996 3.24098L323.664 2.39631L326.013 2.1148L328.367 1.8978L334.928 1.4058L337.341 1.24845L339.756 1.15559L346.186 1.02967L348.654 1L351.124 1.03483L359.909 1.38922L362.419 1.55644L364.923 1.78502L371.06 2.43599L373.598 2.73428L376.129 3.09858L378.648 3.52435L384.614 4.58759L387.16 5.08302L389.691 5.6427L392.209 6.26566L397.971 7.75796L400.504 8.45209L403.018 9.20739L405.513 10.0222L411.042 11.9504L413.543 12.8381L416.021 13.7855L418.476 14.7926L420.906 15.8576L426.194 18.238L428.618 19.3725L431.013 20.565L433.378 21.8141L435.712 23.1209L440.726 25.9517L443.043 27.3216L445.327 28.7476L447.575 30.2266L449.788 31.7606L454.49 35.0387L456.677 36.632L458.822 38.2767L460.927 39.9712L462.992 41.7155L467.35 45.4374L469.379 47.2344L471.362 49.078L473.3 50.9697L475.193 52.9059L479.177 57.0552M55.4883 477.868L57.471 479.712L59.4967 481.509L63.9026 485.249L65.9715 486.997L68.08 488.694L70.225 490.339L72.4098 491.931L79.4295 496.801L81.6806 498.283L83.968 499.709L86.2853 501.079L91.4566 503.984L93.7953 505.293L96.1656 506.544L98.5623 507.738L100.986 508.869L106.495 511.334L108.931 512.402L111.388 513.408L113.871 514.353L116.37 515.236L122.181 517.254L124.682 518.069L127.201 518.819L129.734 519.506L135.829 521.083L138.352 521.701L140.888 522.256L143.434 522.745L149.779 523.886L152.305 524.305L154.838 524.658L157.377 524.948L163.938 525.658L166.444 525.879L168.954 526.032L175.735 526.327L178.203 526.414L180.671 526.437L190.067 526.276L192.479 526.167L201.982 525.479L204.329 525.242L211.62 524.335L213.899 524.04L216.169 523.682L223.576 522.393L225.769 521.979L227.949 521.502L235.444 519.851L237.539 519.326L245.162 517.312L247.171 516.74L254.901 514.377L256.815 513.765L264.634 511.061L266.448 510.413L274.332 507.382L276.043 506.701L283.976 503.353L285.576 502.648L293.537 498.997L295.026 498.27L302.993 494.328L311.035 490.066L312.318 489.369L320.333 484.845L328.388 480.023L329.457 479.372L337.447 474.32L345.444 468.99L346.291 468.405L354.188 462.876L362.059 457.092L369.887 451.07L377.657 444.817L378.095 444.456L385.701 438.066L393.216 431.475L400.628 424.702L407.92 417.758L415.073 410.657L422.075 403.414L428.911 396.045L435.566 388.561L442.028 380.983L442.359 380.582L448.69 372.834L454.798 365.019L460.672 357.158L466.3 349.267L466.86 348.455L472.29 340.455L477.444 332.458L482.317 324.478L483 323.355L487.629 315.32L492.683 305.999L496.743 297.997L497.453 296.541L501.232 288.539L501.922 286.971L505.402 278.989L508.536 271.13L509.234 269.37L512.043 261.568L512.707 259.708L515.182 251.986L515.806 250.027L516.368 248.047L518.516 240.353L519.034 238.285L520.823 230.712L521.294 228.558L522.717 221.126L523.134 218.893L523.487 216.649L524.542 209.319L524.84 207.004L525.072 204.678L525.741 197.48L525.913 195.094L526.019 192.699L526.293 185.661L526.334 183.215L526.311 180.767L526.173 173.914L526.084 171.42L525.927 168.927L525.373 162.288L525.148 159.761L524.86 157.236L524.505 154.715L523.523 148.284L523.097 145.738L522.611 143.203L522.056 140.681L520.641 134.483L520.017 131.943L519.329 129.421L518.579 126.911L516.727 120.985L515.905 118.474L515.024 115.979L514.08 113.508L511.791 107.883L510.779 105.416L509.706 102.972L508.574 100.555L507.384 98.1615L504.65 92.8577L503.396 90.4843L502.083 88.1372L500.711 85.8247L499.287 83.5423L496.122 78.5947L494.636 76.3405L493.097 74.1224L491.502 71.941L489.857 69.796L486.271 65.2361L484.572 63.1291L482.824 61.0637L481.025 59.0361L479.177 57.0552M454.487 35.042L458.812 38.734L462.745 42.837L466.279 47.3439L469.399 52.2501L472.102 57.5505L474.378 63.2317L476.227 69.2842L477.638 75.6978L478.609 82.4657L479.134 89.5698L479.205 97.0054L478.821 104.757L477.979 112.811L476.682 121.151L474.935 129.762L472.735 138.624L470.086 147.722L466.993 157.038L463.454 166.555L459.474 176.257L455.063 186.117L450.23 196.122L444.986 206.249L439.336 216.473L433.295 226.778L426.876 237.138L420.085 247.534L412.935 257.941L405.443 268.341L397.625 278.71L389.5 289.024L381.086 299.264L372.395 309.406L363.45 319.427L354.269 329.304L344.866 339.019L335.267 348.548L325.493 357.872L315.561 366.972L305.497 375.83L295.323 384.427L285.059 392.74L274.726 400.754L264.349 408.451L253.947 415.815L243.545 422.832L233.163 429.491L222.826 435.776L212.553 441.676L202.366 447.179L192.29 452.272L182.344 456.945L172.544 461.192L162.916 465.003L153.475 468.379L144.24 471.312L135.229 473.797L126.464 475.831L117.958 477.41L109.73 478.529L101.795 479.192L94.1662 479.401L86.8566 479.16L79.8767 478.471L73.2428 477.337L66.9618 475.763L61.0518 473.752L55.5196 471.307L50.3748 468.439L45.6226 465.157L41.2697 461.47L37.3176 457.389L33.7796 452.923M426.191 18.2425L431.132 21.0301L435.712 24.2286L439.918 27.8312L443.746 31.8347L447.176 36.2356L450.2 41.0293L452.818 46.207L455.017 51.7594L456.793 57.676L458.144 63.9469L459.064 70.5608L459.542 77.5094L459.58 84.7792L459.17 92.3621L458.315 100.24L457.013 108.399L455.269 116.822L453.083 125.491L450.459 134.393L447.398 143.509L443.901 152.823L439.977 162.316L435.628 171.969L430.867 181.762L425.704 191.672L420.149 201.683L414.209 211.77L407.898 221.914L401.226 232.091L394.205 242.283L386.849 252.468L379.176 262.621L371.203 272.725L362.947 282.756L354.424 292.691L345.651 302.51L336.647 312.19L327.431 321.711L318.021 331.051L308.441 340.195L298.71 349.117L288.849 357.805L278.881 366.236L268.828 374.394L258.708 382.258L248.544 389.815L238.359 397.045L228.173 403.939L218.007 410.48L207.887 416.658L197.831 422.46L187.86 427.877L177.996 432.891L168.261 437.494L158.671 441.681L149.249 445.444L140.01 448.78L130.973 451.682L122.159 454.149L113.583 456.173L105.261 457.749L97.2144 458.879L89.4542 459.56L81.9922 459.797L74.8416 459.593L68.019 458.952L61.531 457.874L55.394 456.365L49.6166 454.427L44.2119 452.063L39.1848 449.285L34.542 446.1L30.29 442.518L26.4373 438.549L22.9837 434.201L19.9376 429.485L17.3039 424.41M389.693 5.64287L395.424 7.12703L400.834 9.01533L405.914 11.3028L410.658 13.9895L415.051 17.0703L419.086 20.542L422.748 24.3999L426.027 28.6435L428.918 33.2664L431.409 38.2588L433.499 43.6121L435.181 49.3184L436.448 55.3657L437.299 61.7463L437.73 68.4478L437.73 75.461L437.299 82.7756L436.436 90.3734L435.146 98.2429L433.428 106.367L431.286 114.73L428.719 123.317L425.733 132.111L422.329 141.097L418.509 150.253L414.284 159.564L409.662 169.012L404.65 178.572L399.264 188.229L393.508 197.96L387.394 207.748L380.934 217.567L374.14 227.402L367.022 237.23L359.6 247.03L351.889 256.782L343.909 266.462L339.921 271.103L339.917 271.109L339.914 271.113L335.67 276.052L327.194 285.531L318.497 294.878L309.594 304.073L300.507 313.093L291.254 321.925L281.861 330.547L272.34 338.941L262.718 347.092L253.014 354.978L243.248 362.584L233.442 369.892L223.613 376.889L213.784 383.561L203.976 389.897L194.212 395.884L184.511 401.508L174.892 406.76L165.374 411.627L155.983 416.099L146.734 420.167L137.643 423.831L128.732 427.081L120.015 429.915L111.512 432.328L103.24 434.316L95.2136 435.873L87.4501 436.997L79.9649 437.691L72.7679 437.955L65.8724 437.794L59.2899 437.208L53.0339 436.202L47.1139 434.781L41.5435 432.944L36.3309 430.696L31.4843 428.046L27.0071 425.003L22.9109 421.576L19.194 417.773L15.868 413.606L12.9329 409.081L10.3986 404.208L8.26685 398.992L6.53753 393.453M357.403 1.28357L363.409 1.91967L369.132 2.94151L374.563 4.35111L379.687 6.14499L384.495 8.32323L388.98 10.8774L393.131 13.8091L396.938 17.1119L400.391 20.784L403.481 24.8206L406.195 29.2184L408.531 33.9689L410.484 39.0622L412.049 44.4902L413.22 50.2427L413.994 56.3101L414.365 62.6839L414.33 69.3542L413.884 76.3094L413.029 83.5344L411.766 91.0163L410.099 98.7415L408.026 106.692L405.554 114.855L402.681 123.214L399.414 131.755L395.752 140.459L391.705 149.309L387.283 158.287L382.494 167.375L377.348 176.553L371.852 185.802L366.02 195.103L359.858 204.438L353.378 213.784L346.597 223.126L339.524 232.441L332.183 241.71L324.582 250.915L316.739 260.033L308.673 269.047L300.397 277.935L291.928 286.679L283.284 295.261L274.485 303.662L265.55 311.868L256.5 319.858L247.353 327.617L238.127 335.127L228.843 342.37L219.521 349.334L210.178 356.004L200.837 362.366L191.517 368.41L182.236 374.123L173.015 379.495L163.874 384.512L154.828 389.165L145.902 393.443L137.11 397.342L128.472 400.855L119.999 403.978L111.714 406.704L103.631 409.033L95.7648 410.956L88.134 412.472L80.7531 413.578L73.634 414.27L66.7898 414.558L60.2322 414.441L53.9711 413.921L48.0214 413L42.3897 411.685L37.0893 409.972L32.1301 407.868L27.5204 405.382L23.2635 402.52L19.3627 399.292L15.828 395.704L12.6626 391.77L9.87166 387.492L7.45999 382.88L5.43086 377.946L3.78772 372.698L2.52896 367.15L1.65103 361.316L1.15747 355.207M305.691 5.15739L312.442 3.97799L318.992 3.1499L325.324 2.67444L331.428 2.55692L337.293 2.79712L342.905 3.39663L348.248 4.35731L353.315 5.68406L358.094 7.37193L362.574 9.41759L366.75 11.8176L370.613 14.5706L374.149 17.673L377.354 21.12L380.216 24.9064L382.727 29.0341L384.884 33.4897L386.678 38.2684L388.109 43.3568L389.171 48.7515L389.86 54.4396L390.173 60.4142L390.105 66.6637L389.653 73.1815L388.818 79.9495L387.602 86.9594L386.006 94.1943L384.034 101.641L381.689 109.284L378.967 117.11L375.878 125.106L372.421 133.254L368.608 141.539L364.443 149.941L359.936 158.447L355.096 167.034L349.931 175.69L344.45 184.394L338.666 193.13L332.584 201.876L326.222 210.616L319.591 219.334L312.706 228.008L305.583 236.622L298.236 245.155L290.677 253.594L282.927 261.914L274.995 270.102L266.902 278.135L258.665 286.005L250.3 293.69L241.829 301.177L233.267 308.447L224.634 315.487L215.947 322.28L207.222 328.811L198.48 335.068L189.739 341.04L181.017 346.714L172.332 352.083L163.703 357.131L155.148 361.854L146.683 366.233L138.329 370.265L130.098 373.944L122.012 377.26L114.079 380.213L106.321 382.797L98.7528 385.008L91.3868 386.842L84.2396 388.295L77.3242 389.363L70.6556 390.049L64.242 390.353L58.0952 390.279L52.2283 389.825L46.648 388.998L41.3675 387.799L36.3967 386.231L31.7472 384.294L27.4191 381.997L23.4256 379.348L19.7667 376.355L16.4472 373.026L13.474 369.367L10.852 365.387L8.58607 361.09L6.67957 356.49L5.13415 351.596L3.95156 346.418L3.12332 340.968L2.65787 335.259L2.55025 329.304L2.80037 323.111L3.40822 316.693L4.3739 310.059M240.637 26.9671L247.851 23.7156L254.963 20.7575L261.96 18.0939L268.829 15.7369L275.554 13.6897L282.125 11.9586L288.528 10.5508L294.751 9.46578L300.787 8.70715L306.618 8.27647L312.236 8.17386L317.632 8.40234L322.79 8.9656L327.703 9.86329L332.358 11.0957L336.74 12.6627L340.851 14.5609L344.679 16.7854L348.214 19.3363L351.449 22.2066L354.374 25.3969L356.985 28.9019L359.269 32.7164L361.225 36.8359L362.846 41.2501L364.133 45.9526L365.081 50.9349L365.684 56.1857L365.939 61.7015L365.845 67.4672L365.396 73.4816L364.596 79.7245L363.443 86.1876L361.944 92.8579L360.095 99.7219L357.906 106.768L355.371 113.98L352.501 121.346L349.291 128.853L345.753 136.482L341.895 144.222L337.723 152.055L333.244 159.963L328.468 167.935L323.407 175.948L318.063 183.989L312.45 192.044L306.578 200.089L300.461 208.114L294.113 216.101L287.544 224.032L280.773 231.889L273.81 239.658L266.667 247.32L259.361 254.858L251.906 262.261L244.319 269.509L236.718 276.501L236.619 276.59L228.819 283.489L220.938 290.191L212.989 296.682L204.989 302.946L196.958 308.972L188.91 314.748L180.863 320.261L172.832 325.503L164.836 330.464L156.891 335.133L149.011 339.501L141.215 343.558L133.519 347.294L125.94 350.706L118.489 353.787L111.18 356.535L104.031 358.944L97.0539 361.011L90.2628 362.73L83.6737 364.098L77.2966 365.115L71.1449 365.778L65.2266 366.091L59.5552 366.055L54.1389 365.67L48.9858 364.94L44.1094 363.866L39.5179 362.452L35.218 360.699L31.2195 358.612L27.5241 356.199L24.1385 353.469L21.0659 350.427L18.3146 347.079L15.8847 343.433L13.7845 339.498L12.0155 335.277L10.5793 330.784L9.4762 326.026L8.70599 321.019L8.26531 315.769L8.15769 310.288L8.38294 304.586L8.93786 298.675L9.82403 292.561L11.0365 286.263L12.5687 279.789L14.4188 273.155L16.5788 266.37L19.0484 259.452L21.8179 252.409L24.8888 245.253M169.893 247.938L167.31 249.304L166.989 249.473L163.844 251.032L162.068 251.85L162.065 251.85L161.972 251.893L161.967 251.895L161.94 251.908L161.884 251.934L161.856 251.946L160.741 252.461L157.685 253.758L154.686 254.922L151.745 255.954L148.87 256.846L146.067 257.601L143.341 258.214L140.697 258.684L138.143 259.012L135.679 259.198L133.31 259.241L131.042 259.143L128.879 258.904L126.825 258.523L124.886 258.002L123.062 257.341L121.359 256.542L119.781 255.607L118.325 254.538L116.996 253.339L115.799 252.012L114.734 250.556L113.803 248.979L113.009 247.282L112.353 245.466L111.835 243.54L111.454 241.503L111.214 239.361L111.111 237.118L111.146 234.781L111.323 232.351L111.639 229.832L112.093 227.231L112.685 224.553L113.41 221.8L114.268 218.984L115.259 216.105L116.38 213.168L117.627 210.182L119.002 207.151L120.499 204.077L122.118 200.971L123.852 197.835L125.699 194.68L127.653 191.506L129.717 188.323L131.88 185.133L134.145 181.944L136.503 178.764L138.95 175.595L141.484 172.445L144.096 169.319L146.783 166.222L149.542 163.161L152.368 160.14L155.252 157.166L158.194 154.244L161.183 151.381L164.22 148.58L167.294 145.843L170.401 143.183L173.537 140.598L176.692 138.095L179.864 135.681L183.048 133.359L186.236 131.131L189.423 129.005L192.602 126.979L195.767 125.062L198.916 123.255L202.04 121.566L205.131 119.992L208.187 118.543L211.199 117.216L214.168 116.014L217.081 114.942L219.937 113.998L222.73 113.189L225.453 112.514L228.1 111.977L230.667 111.576L233.153 111.313L235.548 111.19L237.851 111.203L240.055 111.357L242.157 111.651L244.151 112.085L246.035 112.656L247.804 113.365L249.455 114.215L250.986 115.195L252.392 116.31L253.674 117.556L254.825 118.932L255.842 120.436L256.725 122.064L257.469 123.815L258.077 125.685L258.544 127.67L258.873 129.765L259.061 131.966L259.105 134.273L259.009 136.679L258.767 139.18L258.385 141.772L257.858 144.449L257.194 147.206L256.387 150.037L255.445 152.938L254.365 155.902L253.151 158.925L251.809 161.986L251.801 162.001L251.784 162.038L251.778 162.054L251.7 162.215L250.322 165.124L249.687 166.374L249.652 166.442L248.717 168.286L247.406 170.702M252.204 160.508L252.153 160.652L252.128 160.72L252.068 160.883L252.048 160.939L252.047 160.944L252.002 161.068L251.997 161.08L251.75 161.757M252.374 159.928L252.2 160.466L252.093 160.793L252.088 160.808L252.069 160.869L252.006 161.061L252.001 161.076M252.426 159.583L252.081 160.789L252.073 160.817M252.402 159.441L252.056 160.877M160.923 252.137L160.751 252.177L158.641 252.554L156.598 252.818L154.629 252.968L152.736 253.007L150.92 252.93L149.189 252.743L147.544 252.443L145.989 252.031L144.526 251.506L143.16 250.872L141.891 250.13L140.722 249.281L139.652 248.327L138.686 247.272L137.827 246.114L137.074 244.859L136.43 243.509L135.895 242.063L135.471 240.526L135.156 238.903L134.953 237.195L134.862 235.408L134.88 233.544L135.011 231.605L135.252 229.594L135.605 227.518L136.067 225.38L136.637 223.183L137.315 220.932L138.096 218.633L138.983 216.29L139.971 213.903L141.063 211.479L142.252 209.025L143.539 206.542L144.919 204.036L146.388 201.513L147.945 198.975L149.59 196.43L151.314 193.88L153.121 191.331L155.001 188.789L156.956 186.254L158.978 183.735L161.064 181.236L163.209 178.759L165.413 176.313L167.669 173.898L169.977 171.521L172.327 169.187L174.719 166.898L177.144 164.659L179.602 162.476L182.087 160.349L184.591 158.285L187.115 156.287L189.653 154.363L192.199 152.509L194.746 150.733L197.294 149.037L199.835 147.424L202.367 145.898L204.883 144.459L207.379 143.116L209.851 141.867L212.292 140.714L214.701 139.661L217.071 138.711L219.398 137.862L221.679 137.118L223.91 136.48L226.083 135.95L228.197 135.53L230.246 135.22L232.227 135.021L234.14 134.933L235.975 134.956L237.733 135.087L239.409 135.332L240.997 135.689L242.498 136.156L243.908 136.734L245.223 137.419L246.44 138.213L247.56 139.114L248.577 140.118L249.491 141.224L250.3 142.433L251 143.74L251.592 145.146L252.072 146.644L252.441 148.236L252.701 149.913L252.847 151.676L252.88 153.521L252.801 155.443L252.607 157.442L252.299 159.512L251.992 161.068M251.929 161.307L251.889 161.409L251.309 162.847M516.361 248.054L513.84 255.921L510.949 263.95L507.691 272.121L504.072 280.418L500.102 288.827L495.787 297.326L491.136 305.899L486.16 314.532L480.863 323.202L475.258 331.894L469.354 340.591L463.163 349.27L456.7 357.916L449.978 366.513L443.011 375.04L435.814 383.479L428.402 391.812L420.788 400.023L412.986 408.09L405.017 415.999L396.898 423.734L388.641 431.279L380.271 438.618L371.802 445.736L363.252 452.617L354.64 459.247L345.982 465.609L337.298 471.693L328.604 477.485L319.921 482.981L311.266 488.164L302.656 493.024L294.113 497.552L285.65 501.741L277.287 505.579L269.04 509.059L260.926 512.178L252.96 514.933L245.155 517.318M526.012 192.703L525.332 200.006L524.245 207.559L522.754 215.344L520.861 223.35L518.565 231.559L515.87 239.955L512.78 248.525L509.296 257.249L505.425 266.112L501.178 275.093L496.562 284.179L491.586 293.342L486.259 302.571L480.59 311.842L474.59 321.137L468.271 330.438L461.642 339.724L454.722 348.976L447.525 358.177L440.066 367.302L432.359 376.335L424.422 385.256L416.271 394.043L407.917 402.681L399.385 411.147L390.691 419.43L381.854 427.508L372.897 435.366L363.831 442.987L354.68 450.356L345.465 457.454L336.203 464.265L326.911 470.778L317.613 476.981L308.328 482.861L299.073 488.409L289.871 493.61L280.739 498.458L271.697 502.938L262.764 507.041L253.955 510.765L245.291 514.099L236.787 517.044L228.46 519.593L220.328 521.743L212.407 523.489L204.713 524.829L197.257 525.758L190.06 526.28M523.094 145.738L524.081 152.204L524.647 158.989L524.788 166.077L524.498 173.459L523.779 181.121L522.632 189.047L521.06 197.221L519.06 205.631L516.64 214.256L513.8 223.079L510.542 232.088L506.866 241.263L502.785 250.585L498.306 260.033L493.436 269.59L488.189 279.237L482.572 288.952L476.592 298.714L470.265 308.504L463.6 318.299L456.61 328.082L449.31 337.83L441.721 347.523L433.853 357.14L425.727 366.661L417.357 376.064L408.76 385.326L399.955 394.433L390.959 403.363L381.795 412.094L372.479 420.614L363.034 428.899L353.482 436.938L343.839 444.706L334.129 452.193L324.368 459.377L314.582 466.244L304.789 472.787L295.014 478.988L285.269 484.837L275.583 490.326L265.971 495.436L256.458 500.162L247.06 504.488L237.797 508.414L228.687 511.932L219.748 515.038L210.999 517.728L202.455 519.993L194.137 521.835L186.057 523.25L178.235 524.231L170.684 524.782L163.414 524.906L156.441 524.605L149.775 523.886M514.073 113.514L515.943 119.499L517.386 125.834L518.401 132.511L518.979 139.516L519.115 146.841L518.805 154.472L518.05 162.396L516.851 170.595L515.209 179.054L513.127 187.755L510.605 196.684L507.646 205.821L504.254 215.153L500.431 224.657L496.186 234.319L491.526 244.113L486.464 254.022L481.007 264.025L475.165 274.097L468.95 284.224L462.372 294.379L455.444 304.545L448.177 314.697L440.593 324.815L432.703 334.878L424.527 344.862L416.083 354.748L407.389 364.512L398.456 374.134L389.309 383.592L379.964 392.868L370.443 401.938L360.77 410.79L350.964 419.4L341.044 427.753L331.033 435.826L320.954 443.606L310.825 451.071L300.67 458.212L290.508 465.011L280.364 471.458L270.259 477.542L260.215 483.246L250.248 488.562L240.386 493.475L230.646 497.977L221.048 502.06L211.611 505.722L202.354 508.953L193.293 511.753L184.45 514.116L175.84 516.038L167.48 517.514L159.391 518.541L151.584 519.122L144.071 519.261L136.867 518.958L129.983 518.219L123.434 517.047L117.229 515.443L111.38 513.414M499.288 83.5422L502.034 88.8824L504.36 94.6001L506.255 100.689L507.714 107.137L508.735 113.935L509.309 121.069L509.432 128.533L509.099 136.31L508.311 144.389L507.067 152.749L505.372 161.377L503.227 170.257L500.632 179.369L497.591 188.697L494.105 198.222L490.18 207.928L485.822 217.795L481.04 227.801L475.847 237.927L470.25 248.148L464.261 258.444L457.89 268.797L451.147 279.18L444.046 289.574L436.601 299.958L428.829 310.307L420.749 320.6L412.375 330.816L403.727 340.932L394.822 350.923L385.676 360.772L376.31 370.452L366.745 379.948L357 389.235L347.098 398.299L337.064 407.118L326.914 415.671L316.672 423.941L306.361 431.91L296.001 439.561L285.617 446.877L275.226 453.846L264.856 460.456L254.527 466.691L244.259 472.543L234.075 477.992L224 483.033L214.05 487.652L204.247 491.846L194.611 495.606L185.161 498.927L175.912 501.806L166.888 504.238L158.104 506.22L149.579 507.746L141.33 508.813L133.371 509.424L125.715 509.58L118.376 509.29L111.367 508.549L104.699 507.367L98.3831 505.745L92.4384 503.686L86.868 501.197L81.6818 498.283M166.382 249.764L166.321 249.743L165.248 249.249L164.249 248.671L163.328 248.008L162.487 247.266L161.725 246.441L161.044 245.539L160.448 244.561L159.937 243.505L159.512 242.377L159.171 241.177L158.917 239.91L158.75 238.577L158.669 237.181L158.675 235.723L158.77 234.207L158.952 232.637L159.22 231.014L159.573 229.342L160.012 227.625L160.534 225.864L161.138 224.067L161.824 222.232L162.591 220.365L163.439 218.47L164.363 216.549L165.364 214.607L166.437 212.646L167.583 210.672L168.797 208.686L170.078 206.693L171.424 204.697L172.834 202.705L174.302 200.714L175.827 198.731L177.407 196.76L179.037 194.802L180.715 192.866L182.438 190.951L184.203 189.063L186.006 187.204L187.844 185.379L189.714 183.588L191.612 181.839L193.536 180.131L195.48 178.468L197.44 176.857L199.414 175.296L201.4 173.791L203.393 172.345L205.387 170.96L207.38 169.637L209.369 168.379L211.35 167.19L213.319 166.072L215.272 165.024L217.207 164.053L219.117 163.157L221 162.34L222.853 161.603L224.675 160.947L226.459 160.372L228.202 159.879L229.903 159.473L231.554 159.154L233.158 158.918L234.706 158.771L236.199 158.71L237.633 158.736L239.006 158.847L240.315 159.046L241.557 159.334L242.728 159.707L243.828 160.167L244.853 160.712L245.804 161.338L246.677 162.049L247.471 162.842L248.183 163.713L248.814 164.666L249.359 165.694L249.669 166.435M181.775 240.576L181.802 240.102L181.936 238.888L182.138 237.632L182.405 236.339L182.739 235.01L183.137 233.649L183.601 232.257L184.126 230.838L184.714 229.395L185.363 227.928L186.075 226.44L186.846 224.938L187.67 223.421L188.553 221.892L189.489 220.356L190.476 218.816L191.515 217.27L192.601 215.727L193.736 214.188L194.914 212.653L196.133 211.129L197.392 209.615L198.689 208.116L200.02 206.635L201.385 205.174L202.778 203.738L204.201 202.325L205.647 200.942L207.113 199.589L208.602 198.268L210.104 196.985L211.622 195.739L213.15 194.535L214.686 193.374L216.226 192.258L217.772 191.189L219.314 190.167L220.853 189.198L222.386 188.284L223.909 187.421L225.421 186.614L226.917 185.867L228.396 185.18L229.853 184.554L231.288 183.987L232.697 183.485L234.077 183.046L235.425 182.672L236.741 182.364L238.018 182.121L239.257 181.945L240.454 181.837L240.474 181.837M167.319 249.299L165.418 250.24L162.396 251.631M197.457 228.671L194.356 231.215L190.839 233.983L187.31 236.648L183.969 239.061L183.77 239.204M183.959 239.064L181.773 240.575L181.155 241.001L177.712 243.272L174.278 245.427M175.118 244.899L172.108 246.69L168.808 248.548M466.858 348.459L461.163 356.443L455.222 364.395L449.042 372.301L442.637 380.141L436.021 387.899L429.207 395.562L422.207 403.108L415.036 410.524L407.71 417.794L400.246 424.903L392.657 431.84L384.963 438.586L377.175 445.129L369.314 451.456L361.394 457.55L353.431 463.4L345.442 468.994M230.424 195.291L230.121 195.653L227.451 198.867L224.39 202.408L221.245 205.908L218.02 209.361L214.725 212.762L211.363 216.101L207.942 219.373L204.47 222.57L200.955 225.687L197.451 228.675L197.403 228.716M240.611 181.665L240.494 181.832L240.083 182.419L238.123 185.207L235.524 188.746L232.82 192.273L230.121 195.65M244.496 175.679L244.247 176.07L242.299 179.117L240.479 181.835L240.087 182.42M247.726 170.155L247.408 170.705L245.823 173.466L244.245 176.072M250.996 163.619L249.689 166.377M251.54 162.34L251.316 162.846L250.645 164.378M160.763 252.197L159.128 252.706L158.906 252.775M161.368 251.981L161.258 252.021L161.257 252.023L160.929 252.135L160.907 252.144L160.77 252.192L160.455 252.301L159.438 252.659M161.253 252.023L160.95 252.078M162.39 251.583L161.37 251.977L161.28 252.013L161.279 252.011L161.065 252.096L161.034 252.108L161.007 252.117L160.903 252.159L160.88 252.169L160.875 252.17L160.863 252.175L160.194 252.434M163.848 250.965L162.396 251.583L161.876 251.802L161.781 251.843L161.452 251.984L161.448 251.984L161.288 252.052L161.258 252.065L161.253 252.067L161.244 252.072L161.183 252.096M342.285 71.7561L341.851 77.2121L341.099 82.877L340.028 88.739L338.643 94.7881L336.945 101.011L334.936 107.396L332.617 113.933L329.992 120.606L327.065 127.406L323.841 134.316L320.328 141.324L316.533 148.415L312.462 155.577L308.124 162.791L303.528 170.044L298.679 177.32L293.588 184.609L288.262 191.892L282.717 199.153L276.964 206.38L271.014 213.555L264.881 220.666L258.573 227.696L252.105 234.631L245.493 241.455L238.745 248.154L231.879 254.718L224.911 261.13L217.851 267.378L210.717 273.449L203.525 279.329L196.287 285.007L189.02 290.471L181.737 295.707L174.454 300.711L167.186 305.468L159.948 309.973L152.756 314.217L145.622 318.187L138.565 321.878L131.597 325.282L124.73 328.392L117.98 331.203L111.359 333.716L104.88 335.922L98.5556 337.817L92.3988 339.402L86.4226 340.668L80.6369 341.617L75.0549 342.246L69.6849 342.558L64.5352 342.553L59.6141 342.233L54.9349 341.602L50.5023 340.658L46.3283 339.402L42.4176 337.84L38.7785 335.977L35.4127 333.817L32.3285 331.369L29.5276 328.634L27.0182 325.624L24.8003 322.34L22.8806 318.794L21.2623 314.985L19.9454 310.929L18.9301 306.631L18.2178 302.102L17.8071 297.355L17.6978 292.396L17.8899 287.231L18.3835 281.878L19.1769 276.337L20.2684 270.628L21.6549 264.756L23.3278 258.737L25.284 252.58L27.5217 246.297L30.0361 239.9L32.8205 233.399L35.8732 226.808L39.186 220.136L42.7521 213.396L46.5635 206.604L50.6116 199.766L54.8918 192.899L59.3921 186.013L64.1095 179.123L69.0339 172.234L74.1571 165.365L79.4675 158.524L84.9583 151.725L90.6149 144.978L96.4321 138.296L102.395 131.691L108.499 125.173L114.73 118.756L121.079 112.447L127.534 106.26L134.085 100.206L140.717 94.2928L147.42 88.5302L154.185 82.9317L160.998 77.507L167.849 72.2663L174.723 67.2176L181.61 62.3677L188.5 57.7299L195.378 53.3073L202.232 49.11L209.049 45.148L215.819 41.4261L222.531 37.9576L229.169 34.7443L235.725 31.7926L242.185 29.106L248.537 26.6927L254.774 24.5575L260.877 22.704L266.839 21.1388L272.644 19.8684L278.288 18.8927L283.754 18.2136L289.036 17.8343L294.123 17.7531L299.006 17.9718L303.67 18.4952L308.107 19.3218L312.311 20.4548L316.268 21.8908L319.976 23.6266L323.424 25.6606L326.606 27.9879L329.515 30.605L332.143 33.5119L334.48 36.7038L336.526 40.1771L338.27 43.9257L339.714 47.9408L340.851 52.214L341.681 56.7411L342.199 61.513L342.399 66.5203L342.285 71.7561ZM320.216 79.3506L319.805 84.2136L319.111 89.2639L318.137 94.4881L316.883 99.8764L315.351 105.417L313.544 111.103L311.464 116.921L309.11 122.859L306.491 128.906L303.609 135.055L300.47 141.288L297.081 147.592L293.449 153.957L289.583 160.371L285.485 166.817L281.165 173.284L276.632 179.759L271.893 186.23L266.958 192.682L261.84 199.102L257.071 204.848L256.55 205.479L251.095 211.795L245.488 218.041L239.741 224.203L233.862 230.267L227.868 236.221L221.767 242.053L215.576 247.751L209.305 253.307L202.966 258.705L196.576 263.936L190.145 268.988L183.689 273.848L177.217 278.51L170.744 282.966L164.286 287.205L157.853 291.22L151.459 295.003L145.118 298.547L138.842 301.842L132.646 304.885L126.537 307.667L120.531 310.185L114.639 312.436L108.872 314.417L103.24 316.127L97.7576 317.554L92.4323 318.706L87.2776 319.57L82.3019 320.153L77.5117 320.455L72.9169 320.475L68.5275 320.213L64.3484 319.675L60.3897 318.86L56.6578 317.768L53.1612 316.402L49.9047 314.765L46.8952 312.865L44.1323 310.705L41.6212 308.294L39.367 305.632L37.3742 302.728L35.6466 299.586L34.189 296.21L32.9998 292.613L32.0789 288.8L31.4278 284.78L31.0469 280.559L30.9342 276.15L31.0916 271.557L31.519 266.793L32.2146 261.86L33.1754 256.775L34.401 251.544L35.8835 246.179L37.6211 240.689L39.6087 235.087L41.8449 229.379L44.3244 223.58L47.0442 217.693L49.9992 211.737L53.1778 205.719L56.58 199.65L60.1926 193.54L64.0122 187.404L68.0338 181.249L72.2477 175.088L76.6487 168.931L81.2269 162.789L85.9757 156.672L90.882 150.59L95.9422 144.556L101.143 138.579L106.477 132.669L111.936 126.839L117.51 121.099L123.19 115.456L128.964 109.924L134.822 104.509L140.756 99.2187L146.752 94.0674L152.801 89.0618L158.895 84.2103L165.02 79.526L171.165 75.0141L177.325 70.6827L183.482 66.5368L189.629 62.5895L195.752 58.8412L201.846 55.3049L207.892 51.9854L213.885 48.8913L219.813 46.0275L225.663 43.4004L231.427 41.0086L237.096 38.862L242.656 36.9654L248.097 35.3206L253.411 33.9358L258.582 32.813L263.608 31.955L268.474 31.3618L273.173 31.0356L277.697 30.9775L282.035 31.1879L286.181 31.67L290.121 32.4236L293.85 33.4488L297.36 34.7458L300.644 36.3077L303.695 38.1363L306.51 40.2251L309.078 42.5756L311.398 45.1793L313.458 48.0384L315.255 51.1474L316.786 54.4998L318.046 58.0892L319.033 61.9087L319.747 65.952L320.184 70.2123L320.342 74.6796L320.216 79.3506ZM300.271 90.0373L299.895 94.2925L299.272 98.7083L298.402 103.275L297.291 107.984L295.939 112.824L294.348 117.788L292.517 122.868L290.452 128.051L288.156 133.328L285.628 138.692L282.882 144.128L279.917 149.627L276.744 155.176L273.363 160.766L269.785 166.385L266.014 172.021L262.057 177.661L257.922 183.3L253.619 188.921L249.155 194.515L244.542 200.069L239.788 205.571L234.902 211.014L229.893 216.381L224.773 221.663L219.549 226.851L214.234 231.931L208.839 236.898L203.378 241.74L197.857 246.446L192.29 251.006L186.688 255.412L181.06 259.652L175.421 263.72L169.783 267.609L164.155 271.31L158.546 274.818L152.972 278.126L147.445 281.225L141.971 284.109L136.564 286.772L131.237 289.21L125.997 291.42L120.852 293.398L115.816 295.14L110.899 296.646L106.107 297.91L101.454 298.928L96.947 299.702L92.5956 300.23L88.4034 300.51L84.3816 300.547L80.5372 300.339L76.8767 299.889L73.4065 299.195L70.1335 298.261L67.0642 297.086L64.2053 295.675L61.5583 294.035L59.1268 292.167L56.9172 290.077L54.9313 287.769L53.1738 285.247L51.6467 282.517L50.353 279.583L49.2979 276.451L48.4763 273.132L47.8899 269.627L47.5388 265.95L47.4262 262.104L47.5471 258.097L47.9066 253.938L48.5012 249.629L49.3294 245.187L50.3878 240.614L51.6731 235.923L53.1837 231.123L54.913 226.22L56.8609 221.224L59.0241 216.146L61.3994 210.994L63.9767 205.777L66.7578 200.504L69.731 195.186L72.893 189.834L76.2356 184.454L79.7554 179.059L83.4458 173.656L87.3018 168.256L91.3136 162.87L95.4761 157.505L99.7777 152.17L104.212 146.878L108.774 141.633L113.451 136.452L118.24 131.336L123.128 126.302L128.11 121.353L133.175 116.5L138.315 111.747L143.519 107.109L148.778 102.593L154.087 98.2048L159.429 93.9529L164.802 89.8485L170.194 85.8946L175.592 82.0999L180.99 78.4707L186.38 75.0123L191.748 71.7342L197.087 68.6418L202.385 65.7381L207.635 63.0366L212.826 60.5354L217.949 58.2413L222.994 56.1577L227.953 54.2893L232.818 52.6378L237.577 51.2117L242.22 50.0109L246.742 49.0402L251.129 48.3031L255.38 47.7995L259.483 47.5296L263.428 47.4932L267.211 47.6952L270.825 48.1325L274.258 48.8082L277.502 49.7209L280.557 50.8705L283.412 52.2553L286.063 53.8684L288.506 55.7121L290.732 57.7826L292.739 60.0749L294.522 62.5894L296.074 65.3207L297.391 68.2641L298.472 71.4129L299.317 74.7621L299.92 78.3068L300.281 82.0369L300.4 85.9493L300.271 90.0373ZM283.097 103.452L282.761 107.098L282.214 110.881L281.461 114.791L280.5 118.82L279.334 122.964L277.962 127.211L276.39 131.552L274.616 135.983L272.647 140.493L270.481 145.075L268.127 149.718L265.591 154.414L262.874 159.151L259.984 163.923L256.925 168.718L253.703 173.527L250.952 177.447L250.322 178.342L246.793 183.15L243.117 187.945L239.309 192.717L235.372 197.453L231.317 202.147L227.148 206.787L222.874 211.365L218.507 215.872L214.051 220.294L209.519 224.631L204.918 228.868L200.258 232.997L195.551 237.012L190.8 240.905L186.023 244.665L181.223 248.286L177.417 251.035L177.387 251.058L176.413 251.761L171.601 255.082L166.798 258.245L162.013 261.245L157.254 264.073L152.535 266.724L147.86 269.192L143.242 271.475L138.689 273.564L134.21 275.462L129.813 277.16L125.506 278.66L121.3 279.957L117.201 281.049L113.217 281.932L109.356 282.606L105.628 283.068L102.037 283.323L98.5881 283.366L95.2886 283.204L92.1481 282.833L89.1666 282.253L86.3524 281.47L83.7154 280.479L81.2557 279.288L78.9749 277.898L76.8796 276.313L74.9731 274.539L73.2571 272.578L71.7349 270.433L70.4113 268.106L69.2884 265.608L68.3675 262.938L67.6469 260.104L67.1285 257.114L66.8121 253.972L66.6994 250.686L66.7889 247.26L67.0821 243.704L67.5757 240.02L68.2714 236.217L69.1658 232.302L70.254 228.285L71.5361 224.174L73.0086 219.971L74.6683 215.691L76.5135 211.338L78.5409 206.919L80.7438 202.444L83.1208 197.92L85.665 193.358L88.3715 188.764L91.2354 184.147L94.2501 179.516L97.4137 174.878L100.72 170.24L104.16 165.614L107.73 161.008L111.423 156.426L115.228 151.879L119.144 147.377L123.159 142.925L127.27 138.532L131.469 134.207L135.747 129.959L140.097 125.791L144.511 121.712L148.982 117.731L153.499 113.854L158.055 110.089L162.645 106.44L167.258 102.917L171.886 99.5279L176.524 96.2748L181.159 93.1641L185.783 90.2024L190.391 87.3965L194.971 84.748L199.518 82.2651L204.022 79.9544L208.474 77.8178L212.867 75.8598L217.192 74.0826L221.442 72.4925L225.609 71.0878L229.686 69.877L233.662 68.8617L237.534 68.045L241.289 67.4272L244.923 67.0098L248.429 66.7928L251.802 66.7796L255.035 66.9684L258.119 67.3594L261.049 67.954L263.819 68.7523L266.419 69.7528L268.852 70.9537L271.11 72.3533L273.187 73.9468L275.08 75.7339L276.783 77.7117L278.294 79.8782L279.605 82.2303L280.719 84.7612L281.628 87.4695L282.335 90.3466L282.837 93.3893L283.134 96.5912L283.22 99.947L283.097 103.452ZM269.204 119.166L268.915 122.224L268.45 125.392L267.811 128.665L267.001 132.039L266.02 135.504L264.867 139.056L263.549 142.687L262.061 146.39L260.41 150.158L258.598 153.985L256.63 157.864L254.508 161.785L252.237 165.738L251.012 167.762L249.822 169.72L247.268 173.722L244.578 177.734L241.757 181.751L238.811 185.761L235.746 189.759L232.569 193.738L229.285 197.688L225.903 201.601L222.426 205.472L218.865 209.288L215.222 213.043L211.507 216.732L207.729 220.348L203.893 223.879L200.007 227.324L196.081 230.673L192.122 233.92L188.137 237.057L184.134 240.077L180.124 242.977L176.108 245.75L172.1 248.39L168.107 250.896L167.75 251.106L167.732 251.118L167.724 251.123L164.136 253.26L160.196 255.474L156.292 257.54L152.435 259.448L148.631 261.199L144.889 262.787L141.213 264.213L137.613 265.472L134.093 266.561L130.662 267.48L127.328 268.227L124.097 268.798L120.971 269.194L117.961 269.415L115.071 269.462L112.303 269.335L109.664 269.035L107.16 268.561L104.798 267.915L102.579 267.097L100.506 266.112L98.585 264.959L96.8192 263.644L95.2093 262.166L93.7583 260.536L92.4713 258.749L91.3466 256.813L90.3909 254.727L89.6058 252.501L88.9862 250.136L88.5373 247.64L88.259 245.016L88.1498 242.27L88.2111 239.406L88.4396 236.431L88.8421 233.349L89.4103 230.167L90.1473 226.889L91.0468 223.524L92.1101 220.079L93.3326 216.561L94.714 212.973L96.2495 209.324L97.9406 205.619L99.7808 201.867L101.765 198.074L103.89 194.246L106.155 190.392L108.551 186.518L111.074 182.63L113.724 178.738L116.492 174.847L119.377 170.964L122.371 167.097L125.465 163.25L128.657 159.436L131.941 155.654L135.31 151.918L138.759 148.23L142.282 144.601L145.873 141.033L149.525 137.537L153.229 134.115L156.982 130.775L160.774 127.524L164.6 124.364L168.453 121.306L172.325 118.354L176.209 115.514L180.1 112.789L183.99 110.185L187.872 107.707L191.738 105.358L195.581 103.142L199.394 101.068L203.17 99.1403L206.904 97.358L210.586 95.7265L214.212 94.2473L217.773 92.9223L221.263 91.7578L224.679 90.7541L228.008 89.9159L231.246 89.2451L234.39 88.7416L237.429 88.4053L240.363 88.2381L243.182 88.2413L245.883 88.412L248.459 88.7549L250.904 89.2683L253.215 89.9524L255.386 90.8055L257.414 91.8257L259.292 93.0118L261.023 94.3617L262.598 95.8706L264.013 97.5402L265.265 99.3656L266.355 101.347L267.276 103.477L268.026 105.754L268.607 108.171L269.016 110.727L269.253 113.415L269.316 116.228L269.204 119.166Z" stroke="#0F90E6" stroke-width="2" stroke-miterlimit="10" stroke-linecap="round" stroke-linejoin="round"/>
</svg>
