<svg width="340" height="341" viewBox="0 0 340 341" fill="none" xmlns="http://www.w3.org/2000/svg">
<path opacity="0.5" d="M144.55 3.99791L147.562 3.55019L150.6 3.1698L152.467 2.96133L155.482 2.65403L158.519 2.41333L161.578 2.23925L163.315 2.1447L166.343 2.03939L169.388 2L171.034 2.01001L174.042 2.03581L177.064 2.12535L180.098 2.28009L184.578 2.60173L187.576 2.87824L190.582 3.21779L193.592 3.61966L194.857 3.80664L197.815 4.26151L200.776 4.77656L203.736 5.3518L206.695 5.98578L209.652 6.6792L210.617 6.91274L213.511 7.65059L216.4 8.44501L219.282 9.29677L222.155 10.2051L225.018 11.1679L227.869 12.1865L230.706 13.2589L231.238 13.4623L234.003 14.5662L236.752 15.7217L239.483 16.9295L242.196 18.1874L244.889 19.4962L247.56 20.8537L250.208 22.2599L252.831 23.7141L255.429 25.2155L257.999 26.7636L260.541 28.3567L263.052 29.995L265.532 31.6777L267.98 33.4027L270.394 35.1692L272.772 36.9773L275.114 38.8255L277.418 40.7131L277.85 41.0784L280.163 43.0448L282.434 45.0492L284.663 47.0901L286.848 49.1675L288.989 51.2793L291.084 53.4248L293.132 55.6032L293.8 56.3339L295.839 58.5875L297.828 60.8727L299.766 63.1879L301.651 65.5318L303.482 67.903L304.255 68.918L306.066 71.3608L307.82 73.8294L309.516 76.3222L311.966 80.0888L313.572 82.672L315.117 85.2759L316.598 87.8985L317.401 89.3334L318.844 92.0204L320.22 94.7239L322.309 99.0528L323.573 101.831L324.767 104.621L325.487 106.355L326.63 109.201L327.699 112.057M144.55 3.99791L142.613 4.31953L139.585 4.84248L136.587 5.4349L134.591 5.87116L131.583 6.54095L128.607 7.28023L126.561 7.83324L123.583 8.65275L120.642 9.54102L118.556 10.2123L115.618 11.1822L112.721 12.2223L110.607 13.0118L107.719 14.1343L104.876 15.3263L102.742 16.2339L99.9154 17.5097L97.8001 18.5205L94.9934 19.8801L92.2381 21.31L90.1215 22.4361L87.3927 23.9497L85.3068 25.1761L82.6087 26.7729L79.9679 28.4398L77.897 29.7766L75.2933 31.5266L73.2653 32.9579L70.7024 34.7896L68.2025 36.6901L66.2045 38.2259L63.7517 40.2066L61.8081 41.8306L59.4069 43.8916L57.5219 45.5993L55.1757 47.7398L52.8995 49.9454L51.0653 51.7456L48.85 54.0272L47.0844 55.9041L44.9327 58.2601M144.55 3.99791L141.566 4.51373L138.611 5.09753L135.687 5.74872L132.796 6.46721L129.939 7.25304L127.12 8.1055L124.337 9.02529L121.594 10.011L118.893 11.0619L116.233 12.1794L113.619 13.3614L111.051 14.6078L108.53 15.9188L106.059 17.2934L103.638 18.7312L101.271 20.2312L98.9565 21.7928L96.6976 23.4154L94.4958 25.0981L92.3519 26.8403L90.2688 28.6412L88.2466 30.5001L86.2872 32.4156L84.3922 34.387L82.5623 36.4136L80.7982 38.4946L79.1027 40.6279L77.4766 42.8128L75.9213 45.0492L74.4374 47.3344L73.0266 49.6683L71.6893 52.0494L70.4265 54.4757L69.2402 56.9464L68.1303 59.4608L67.0985 62.016L66.146 64.6121L65.2735 67.2468L64.4812 69.9188L63.7697 72.6266L63.1404 75.3681L62.5941 78.1425L62.13 80.9478L61.751 83.7824L61.4557 86.6442L61.2454 89.5325L61.121 92.4438L61.0817 95.378L61.1275 98.3329L61.2604 101.306L61.4785 104.296L61.7839 107.3L62.1758 110.318L62.6541 113.347L63.2191 116.384L63.8698 119.43L64.6064 122.479L65.4294 125.532L66.3376 128.587L67.3309 131.64L68.4092 134.691L69.5727 137.736L70.8191 140.775L72.1484 143.804L73.56 146.823L75.0532 149.828L76.6263 152.818L78.2804 155.791L80.0137 158.744L81.8244 161.677L83.7122 164.585L85.6758 167.469L87.7131 170.326L89.8241 173.153L92.0073 175.948L94.2605 178.711L96.5831 181.438L98.9737 184.128L101.43 186.779L103.951 189.389L106.535 191.957L109.179 194.48L111.883 196.957L114.645 199.385L117.462 201.764L120.333 204.091L123.257 206.365L126.23 208.585L129.251 210.748L132.317 212.854L135.427 214.901L138.578 216.886L141.769 218.81L144.998 220.67L148.261 222.465L151.556 224.195L154.882 225.858L158.236 227.453L161.616 228.978L165.019 230.433L168.443 231.817L171.885 233.129L175.345 234.367L178.817 235.532L182.302 236.623L185.795 237.638L189.295 238.577L192.799 239.441L196.306 240.227L199.811 240.936L203.313 241.567L206.81 242.121L210.3 242.595L213.78 242.993L217.246 243.311L220.699 243.551L224.134 243.712L227.55 243.794L230.944 243.798L234.315 243.724L237.659 243.571L240.975 243.341L244.261 243.034L247.515 242.649L250.733 242.188L253.915 241.651L257.058 241.037L260.161 240.349L263.222 239.587L266.238 238.751L269.207 237.842L272.129 236.861L275 235.809L277.82 234.686L280.586 233.494L283.298 232.233L285.954 230.906L288.551 229.512L291.089 228.053L293.566 226.529L295.98 224.943L298.331 223.295L300.617 221.586L302.836 219.818L304.989 217.992L307.073 216.111L309.088 214.174L311.031 212.183L312.904 210.139L314.704 208.044L316.43 205.9L318.083 203.708L319.66 201.47L321.163 199.187L322.589 196.86L323.938 194.492L325.21 192.083L326.404 189.635L327.519 187.151L328.556 184.63L329.514 182.077L330.392 179.491L331.191 176.874L331.911 174.228L332.549 171.556L333.108 168.857L333.587 166.134L333.985 163.389L334.304 160.624L334.543 157.84L334.702 155.038L334.78 152.221L334.78 149.39L334.699 146.546L334.54 143.691L334.303 140.828L333.986 137.957L333.593 135.08L333.122 132.2L332.573 129.317L331.948 126.433L331.248 123.55L330.472 120.669L329.622 117.792L328.697 114.921L327.699 112.057M44.9327 58.2601L43.2393 60.2093L41.1549 62.6378L39.1483 65.1285L37.5243 67.1544L35.59 69.7146L34.0461 71.8028L32.1876 74.4289L30.7274 76.5758L28.9482 79.2665L27.5745 81.4664L25.8755 84.2179L24.2615 87.0253L22.9765 89.2768L21.4469 92.1407L20.2548 94.4345L18.8125 97.3515L17.7156 99.6825L16.3626 102.649L15.3636 105.012L14.1022 108.026L12.9316 111.086L12.0327 113.472L10.9558 116.573L10.1592 118.977L9.17663 122.116L8.48231 124.534L7.59556 127.705L6.80326 130.915L6.21404 133.332L5.51894 136.568L5.03412 138.985L4.43631 142.244L4.05589 144.656L3.55601 147.933L3.15199 151.241L2.87811 153.625L2.57206 156.944M44.9327 58.2601L42.8573 60.6801L40.8586 63.1608L38.9393 65.7024L37.1001 68.3035L35.3424 70.9619L33.6676 73.6776L32.0773 76.4477L30.5727 79.2716L29.1547 82.1477L27.8246 85.074L26.5839 88.0497L25.4348 91.0727L24.3764 94.1409L23.4104 97.2534L22.5386 100.408L21.7607 103.602L21.0777 106.835L20.4907 110.104L20.0008 113.408L19.6082 116.744L19.3143 120.111L19.1191 123.506L19.0225 126.928L19.0254 130.375L19.1284 133.843L19.3315 137.33L19.6347 140.837L20.0394 144.358L20.5443 147.892L21.15 151.438L21.8565 154.992L22.6631 158.552L23.5691 162.117L24.5759 165.683L25.6822 169.248L26.8879 172.81L28.1922 176.366L29.5945 179.914L31.094 183.452L32.6894 186.977L34.3813 190.486L36.1676 193.977L38.0476 197.449L40.0205 200.897L42.0857 204.321L44.241 207.717L46.4857 211.083L48.8176 214.417L51.236 217.717L53.7388 220.979L56.3253 224.202L58.9933 227.383L61.7414 230.52L64.5675 233.611L67.4693 236.654L70.4455 239.646L73.494 242.586L76.6125 245.47L79.7996 248.297L83.0519 251.065L86.3685 253.772L89.7466 256.417L93.1833 258.996L96.6765 261.509L100.224 263.953L103.824 266.327L107.472 268.629L111.168 270.857L114.907 273.01L118.688 275.086L122.507 277.085L126.363 279.004L130.252 280.842L134.171 282.598L138.118 284.271L142.09 285.859L146.084 287.362L150.097 288.778L154.128 290.107L158.172 291.348L162.226 292.5L166.289 293.563L170.356 294.535L174.426 295.416L178.495 296.205L182.56 296.904L186.621 297.51L190.671 298.024L194.71 298.446L198.734 298.775L202.741 299.012L206.728 299.156L210.692 299.207L214.631 299.167L218.542 299.034L222.422 298.81L226.269 298.495L230.08 298.089L233.853 297.593L237.585 297.006L241.275 296.331L244.919 295.568L248.516 294.717L252.062 293.779L255.556 292.755L258.997 291.648L262.38 290.456L265.706 289.181L268.97 287.824L272.173 286.387L275.311 284.87L278.384 283.276L281.388 281.606L284.323 279.86L287.187 278.039L289.979 276.147L292.695 274.183L295.336 272.15L297.901 270.048L300.386 267.881L302.793 265.649L305.119 263.355L307.362 260.998L309.522 258.582L311.598 256.107L313.589 253.577L315.494 250.992L317.312 248.355L319.044 245.667L320.686 242.929L322.24 240.146L323.705 237.316L325.078 234.443L326.362 231.529L327.555 228.575L328.656 225.584M2.57206 156.944L2.40329 159.309L2.19449 162.635L2.08149 165.985L2.01715 168.303L2 171.654L2.03788 173.94L2.11584 177.285L2.29033 180.648L2.4269 182.869L2.69432 186.221L3.2893 191.731L3.74264 195.077L4.07016 197.17L4.61294 200.493L5.24794 203.822L5.66266 205.822L6.38352 209.121L7.19511 212.422L7.69066 214.32L8.58383 217.585L9.56708 220.846M2.57206 156.944L2.362 160.29L2.2483 163.662L2.23185 167.056L2.31194 170.471L2.49071 173.905L2.76677 177.356L3.14147 180.82L3.61415 184.297L4.18478 187.784L4.85413 191.278L5.62068 194.777L6.48451 198.28L7.44634 201.783L8.50536 205.283L9.66096 208.781L10.9131 212.271L12.261 215.753L13.7034 219.224L15.2394 222.681L16.8698 226.122L18.5918 229.545L20.4059 232.947L22.3102 236.326L24.3046 239.68L26.3877 243.005L28.5573 246.3L30.812 249.564L33.1517 252.792L35.5737 255.983L38.0773 259.135L40.6609 262.245L43.3225 265.312L46.0606 268.332L48.873 271.304L51.7577 274.225L54.7132 277.095L57.738 279.909L60.8287 282.667L63.9851 285.367L67.203 288.006L70.4817 290.583L73.8183 293.095L77.2107 295.542L80.656 297.921L84.1521 300.231L87.6968 302.47L91.288 304.635L94.922 306.726L98.5976 308.742L102.311 310.681L106.06 312.541L109.842 314.322L113.655 316.023L117.495 317.641L121.361 319.176L125.248 320.626L129.156 321.992L133.08 323.272L137.017 324.465L140.967 325.57L144.925 326.588L148.888 327.518L152.855 328.357L156.821 329.107L160.785 329.767L164.744 330.336L168.695 330.816L172.635 331.204L176.561 331.502L180.472 331.709L184.364 331.824L188.234 331.849L192.081 331.784L195.902 331.629L199.692 331.383L203.452 331.048L207.178 330.625L210.867 330.112L214.517 329.512L218.127 328.824L221.692 328.05L225.213 327.19L228.684 326.245L232.107 325.217L235.477 324.104L238.793 322.911L242.052 321.635L245.254 320.28L248.395 318.845L251.474 317.333L254.49 315.745L257.44 314.082L260.324 312.346L263.139 310.536M9.56708 220.846L10.1377 222.633L11.1975 225.851L12.3459 229.063L12.9824 230.73L14.2023 233.892L15.5074 237.043L16.8975 240.181L17.574 241.678L19.0277 244.758L20.5638 247.821L22.8814 252.181L24.5547 255.16L26.3067 258.115L28.1359 261.045L28.8424 262.172L30.7181 265.03L32.6674 267.86L34.689 270.658L35.3841 271.589L37.4435 274.31L39.5716 276.996L41.7669 279.647L44.0288 282.258L46.3543 284.831L46.9421 285.472L49.2904 287.96L51.6989 290.404L54.1659 292.805L56.6902 295.159L59.2702 297.464L61.904 299.721L64.5898 301.927L64.9338 302.201L67.6204 304.316L70.3542 306.377L73.1337 308.383L75.9569 310.334L78.8223 312.228L81.727 314.062L84.6696 315.838L87.648 317.551L90.6599 319.202L93.7041 320.79L96.7776 322.314L99.8789 323.773L103.005 325.164L106.155 326.489L106.565 326.659L109.794 327.938L113.041 329.147L116.306 330.284L119.585 331.35L122.877 332.344L126.179 333.264L129.489 334.111L130.338 334.316L133.711 335.102L137.087 335.812L140.465 336.446L143.841 337.003L147.214 337.483L148.367 337.641L151.789 338.051L155.203 338.383L158.607 338.636L159.936 338.708L163.378 338.885L166.806 338.983L170.216 339L171.707 338.975L175.146 338.912L178.563 338.768L181.954 338.544L183.591 338.411L187.002 338.103L190.382 337.715L193.731 337.246L195.497 336.996L198.855 336.44L202.175 335.803L204.013 335.436M9.56708 220.846L10.6405 224.104L11.8025 227.354L13.0532 230.596L14.3912 233.827L15.8163 237.044L17.328 240.245L18.9256 243.429L20.6074 246.593L22.373 249.735L24.2222 252.854L26.1522 255.945L28.1631 259.007L30.2533 262.039L32.4207 265.039L34.6654 268.003L36.9852 270.93L39.3786 273.818L41.8449 276.664L44.3814 279.468L46.9864 282.226L49.6594 284.938L52.3968 287.6L55.1986 290.211L58.0618 292.769L60.9851 295.273L63.9663 297.721L67.0033 300.11L70.0939 302.439L73.236 304.707L76.4275 306.912L79.6662 309.052L82.9506 311.127L86.2772 313.133L89.6438 315.07L93.0498 316.937L96.4901 318.733L99.9647 320.456L103.469 322.105L107.003 323.679L110.562 325.176L114.146 326.596L117.749 327.938L121.372 329.202L125.01 330.385L128.662 331.488L132.325 332.511L135.996 333.45L139.672 334.309L143.353 335.083L147.034 335.775L150.713 336.382L154.388 336.907L158.056 337.347L161.714 337.703L165.361 337.976L168.994 338.163L172.61 338.266L176.207 338.284L179.782 338.218L183.334 338.069L186.859 337.837L190.356 337.521L193.822 337.123L197.255 336.642L200.653 336.08L204.013 335.436M204.013 335.436L207.334 334.712L210.612 333.908L212.512 333.422L215.783 332.529L219.009 331.557L220.958 330.951L224.168 329.889L227.327 328.75L229.314 328.023L232.45 326.794L234.438 325.957L237.546 324.639L240.597 323.245L242.603 322.289L245.619 320.808L248.573 319.252L250.587 318.176L253.5 316.534L255.493 315.355L258.358 313.629L261.156 311.83L263.139 310.536M263.139 310.536L265.882 308.656L267.831 307.262L270.518 305.301L273.131 303.272L275.053 301.77L277.603 299.664L279.478 298.069L281.961 295.889L283.785 294.203L286.199 291.95L288.532 289.635L290.307 287.855L292.565 285.471L294.279 283.609L296.458 281.16L298.105 279.218L300.205 276.707L302.218 274.14L303.797 272.121L305.726 269.496L307.23 267.406L309.073 264.729L310.497 262.574L312.251 259.845L313.594 257.63L315.257 254.854L316.831 252.031L318.086 249.763L319.568 246.899L320.734 244.581L322.122 241.679L323.197 239.317L324.489 236.381L325.471 233.978L326.669 231.013L327.774 228.01L328.656 225.584M328.656 225.584L329.666 222.556L330.449 220.103L331.363 217.055L332.047 214.578L332.865 211.515L333.592 208.423L334.17 205.945L334.802 202.842L335.278 200.356L335.815 197.246L336.189 194.755L336.633 191.644L336.986 188.51L337.254 186.043L337.517 182.914L337.682 180.454L337.854 177.333L337.937 174.195L337.999 171.777L337.994 168.653L337.953 166.255L337.863 163.148L337.686 160.03L337.546 157.691L337.287 154.596L337.047 152.289L336.707 149.221L336.285 146.147L335.952 143.915L335.454 140.873L334.874 137.829L334.451 135.68L333.8 132.673L333.069 129.666L332.563 127.609L331.764 124.645L330.889 121.684L330.305 119.726L329.367 116.813L328.354 113.906L327.699 112.057M87.394 23.9498L84.7195 25.533L82.1023 27.1849L79.543 28.9048L77.0437 30.6914L74.606 32.5446L72.2319 34.4645L69.9235 36.448L67.681 38.4961L65.5065 40.6072L63.4019 42.7799L61.3682 45.0134L59.4067 47.3072L57.5196 49.659L55.7083 52.0681L53.9734 54.5338L52.3173 57.0539L50.7398 59.6285L49.2438 62.2546L47.8294 64.9316L46.4979 67.658L45.2507 70.4325L44.0887 73.2535L43.0139 76.1189L42.0264 79.0273L41.1268 81.9779L40.3166 84.968L39.5965 87.996L38.9665 91.0606L38.4288 94.1595L37.9825 97.2914L37.63 100.454L37.3712 103.645L37.206 106.864L37.1345 110.108L37.1581 113.374L37.2768 116.662L37.4906 119.968L37.8002 123.291L38.205 126.629L38.7062 129.979L39.3026 133.34L39.9941 136.708L40.7814 140.083L41.6631 143.462L42.6399 146.841L43.7112 150.221L44.8767 153.597L46.136 156.968L47.4875 160.331L48.932 163.685L50.4674 167.026L52.0935 170.354L53.809 173.664L55.6132 176.955L57.506 180.225L59.4854 183.471L61.5505 186.691L63.6994 189.883L65.9312 193.045L68.2445 196.175L70.6379 199.27L73.1107 202.327L75.66 205.346L78.2852 208.322L80.9839 211.256L83.7541 214.143L86.5945 216.984L89.5035 219.775L92.4783 222.514L95.5174 225.199L98.6188 227.829L101.78 230.401L105 232.914L108.275 235.366L111.603 237.755L114.982 240.08L118.41 242.339L121.885 244.53L125.403 246.651L128.964 248.702L132.563 250.68L136.198 252.584L139.867 254.415L143.568 256.169L147.297 257.845L151.052 259.443L154.831 260.962L158.631 262.4L162.449 263.756L166.282 265.03L170.128 266.222L173.984 267.329L177.847 268.351L181.716 269.289L185.586 270.141L189.455 270.906L193.322 271.586L197.182 272.177L201.034 272.683L204.874 273.101L208.7 273.432L212.51 273.675L216.301 273.831L220.069 273.899L223.814 273.879L227.533 273.773L231.222 273.581L234.88 273.302L238.504 272.937L242.091 272.487L245.64 271.952L249.148 271.331L252.614 270.628L256.033 269.841L259.406 268.972L262.73 268.022L266.001 266.992L269.219 265.882L272.381 264.693L275.487 263.426L278.532 262.083L281.518 260.665L284.44 259.172L287.298 257.607L290.09 255.97L292.814 254.262L295.47 252.486L298.054 250.641L300.567 248.73L303.006 246.754L305.372 244.715L307.661 242.614L309.874 240.453L312.009 238.233L314.064 235.956L316.039 233.623L317.933 231.237L319.746 228.799L321.476 226.309L323.123 223.771L324.686 221.187L326.164 218.556L327.557 215.883L328.863 213.167L330.084 210.411L331.218 207.617L332.266 204.787L333.226 201.923L334.099 199.026L334.884 196.097L335.58 193.14L336.189 190.155L336.71 187.145L337.143 184.111L337.489 181.055L337.747 177.98L337.917 174.887L338 171.777M16.3619 102.649L15.099 105.665L13.9277 108.729L12.8479 111.838L11.8618 114.992L10.9694 118.188L10.172 121.424L9.4698 124.699L8.86482 128.01L8.35713 131.356L7.94809 134.734L7.63772 138.144L7.42678 141.582L7.31522 145.045L7.30453 148.534L7.39392 152.044L7.58413 155.574L7.87585 159.122L8.26919 162.686L8.764 166.262L9.36042 169.849L10.0583 173.445L10.8571 177.046L11.7567 180.651L12.7571 184.257L13.8583 187.863L15.059 191.464L16.3597 195.06L17.7599 198.647L19.2573 202.223L20.8519 205.785L22.5438 209.332L24.3309 212.86L26.213 216.368L28.1888 219.852L30.2575 223.311L32.4171 226.741L34.6675 230.141L37.0052 233.508L39.4307 236.839L41.9421 240.133L44.5372 243.386L47.2152 246.597L49.974 249.763L52.8115 252.882L55.7255 255.952L58.7153 258.971L61.778 261.935L64.9116 264.844L68.1138 267.694L71.3832 270.485L74.7169 273.214L78.1129 275.878L81.5689 278.477L85.0815 281.008L88.6498 283.469L92.2703 285.859L95.9401 288.176L99.6579 290.418L103.421 292.583L107.225 294.671L111.069 296.68L114.949 298.608L118.864 300.454L122.809 302.217L126.783 303.896L130.782 305.488L134.804 306.994L138.846 308.412L142.905 309.742L146.978 310.983L151.062 312.134L155.154 313.193L159.251 314.162L163.352 315.038L167.452 315.822L171.549 316.512L175.641 317.11L179.722 317.615L183.793 318.026L187.849 318.343L191.889 318.567L195.909 318.697L199.904 318.733L203.876 318.676L207.82 318.527L211.733 318.284L215.612 317.949L219.456 317.523L223.262 317.005L227.027 316.397L230.749 315.698L234.426 314.91L238.055 314.034L241.634 313.071L245.16 312.021L248.632 310.885L252.048 309.664L255.404 308.359L258.7 306.973L261.934 305.505L265.103 303.957L268.206 302.331L271.24 300.627L274.205 298.847L277.099 296.993L279.919 295.065L282.664 293.066L285.334 290.997L287.926 288.86L290.439 286.655L292.872 284.386L295.225 282.053L297.494 279.658L299.68 277.203L301.781 274.69L303.796 272.121M261.047 47.8493L259.81 46.7941L258.55 45.7604L257.27 44.7475L255.969 43.7575L254.648 42.789L253.309 41.8441L251.951 40.9229L250.576 40.0253L249.185 39.1521L247.777 38.3046L246.354 37.483L244.918 36.6864L243.468 35.917L242.005 35.1742L240.531 34.4592L239.046 33.7716L237.55 33.1118L236.046 32.4814L234.532 31.879L233.012 31.3066L231.484 30.7636L229.951 30.25L228.412 29.7664L226.87 29.3137L225.324 28.8918L223.776 28.5014L222.227 28.1417L220.676 27.8137L219.127 27.5171L217.578 27.2527L216.031 27.0199L214.487 26.8194L212.947 26.651L211.411 26.5156L209.881 26.4125L208.357 26.3423L206.841 26.305L205.333 26.3L203.834 26.3279L202.345 26.3888L200.866 26.4827L199.399 26.6088L197.945 26.7685L196.504 26.9605L195.077 27.1854L193.665 27.4426L192.269 27.732L190.89 28.0536L189.528 28.4082L188.185 28.7943L186.86 29.2127L185.555 29.6626L184.272 30.144L183.009 30.6561L181.769 31.1991L180.552 31.7729L179.358 32.3775L178.19 33.0115L177.046 33.6763L175.928 34.3697L174.837 35.0918L173.773 35.8432L172.737 36.6226L171.73 37.43L170.751 38.2645L169.803 39.1263L168.886 40.0138L167.999 40.9279L167.144 41.8678L166.322 42.832L165.532 43.8205L164.775 44.8335L164.052 45.8693L163.364 46.9281L162.71 48.0091L162.092 49.1115L161.51 50.2348L160.963 51.3781L160.453 52.5414L159.979 53.7227L159.543 54.9226L159.144 56.1404L158.783 57.3746L158.46 58.6254L158.176 59.8905L157.931 61.1713L157.723 62.465L157.555 63.7717L157.426 65.0912L157.336 66.4222L157.286 67.7632L157.275 69.1142L157.304 70.4746L157.373 71.8428L157.481 73.2182L157.628 74.6008L157.815 75.9884L158.042 77.3809L158.308 78.7771L158.614 80.1768L158.959 81.578L159.342 82.9806L159.765 84.384L160.225 85.7873L160.724 87.1885L161.262 88.5875L161.838 89.9837L162.45 91.3756L163.1 92.7632L163.786 94.1443L164.509 95.519L165.268 96.8865L166.063 98.2447L166.892 99.5943L167.756 100.934L168.654 102.262L169.585 103.578L170.55 104.882L171.546 106.172L172.574 107.448L173.634 108.708L174.723 109.952L175.843 111.18L176.991 112.39L178.168 113.581L179.373 114.753L180.603 115.906L181.86 117.037L183.143 118.147L184.45 119.235L185.78 120.3L187.133 121.341L188.509 122.358L189.904 123.35L191.32 124.317L192.755 125.258L194.209 126.171L195.68 127.058L197.168 127.916L198.67 128.746L200.187 129.546L201.718 130.318L203.262 131.059L204.816 131.77L206.381 132.45L207.956 133.098L209.539 133.715L211.13 134.299L212.727 134.851L214.329 135.37L215.936 135.856L217.546 136.309L219.159 136.728L220.773 137.112L222.387 137.462L224 137.778L225.611 138.06L227.22 138.306L228.825 138.518L230.424 138.695L232.018 138.836L233.606 138.943L235.185 139.014L236.755 139.05L238.315 139.051L239.865 139.017L241.402 138.947L242.927 138.843L244.438 138.704L245.935 138.53L247.415 138.321L248.879 138.078L250.326 137.801L251.754 137.489L253.164 137.144L254.552 136.766L255.921 136.354L257.267 135.909L258.591 135.431L259.892 134.921L261.168 134.38L262.42 133.806L263.645 133.202L264.845 132.567L266.018 131.901L267.163 131.206L268.279 130.481L269.367 129.728L270.424 128.945L271.452 128.136L272.448 127.299L273.414 126.435L274.347 125.546L275.248 124.63L276.115 123.69L276.95 122.725L277.751 121.737L278.516 120.725L279.248 119.691L279.944 118.635L280.605 117.558L281.23 116.461L281.819 115.343L282.371 114.207L282.886 113.053L283.365 111.881L283.807 110.692L284.211 109.487L284.578 108.266L284.906 107.031L285.197 105.783L285.45 104.521L285.664 103.246L285.842 101.96L285.981 100.663L286.081 99.3564L286.143 98.0405L286.167 96.716L286.152 95.3843L286.1 94.0454L286.01 92.7001L285.881 91.3498L285.716 89.9952L285.512 88.637L285.271 87.2752L284.993 85.912L284.678 84.5473L284.325 83.182L283.937 81.8173L283.512 80.4533L283.051 79.0909L282.555 77.7319L282.023 76.3759L281.455 75.0241L280.854 73.6774L280.218 72.3364L279.548 71.0018L278.845 69.6751L278.109 68.3556L277.341 67.0454L276.54 65.7438L275.708 64.4536L274.844 63.1735L273.951 61.9056L273.026 60.6498L272.073 59.4069L271.09 58.1784L270.08 56.9635L269.041 55.7643L267.975 54.5809L266.883 53.4139L265.765 52.2642L264.621 51.1323L263.454 50.0184L262.262 48.9238L261.047 47.8493ZM245.794 57.2409L246.495 57.7939L247.213 58.3283L247.913 58.8692L248.563 59.4416L249.139 60.0641L249.667 60.7224L250.186 61.3936L250.732 62.0562L251.329 62.6938L251.949 63.3184L252.551 63.946L253.091 64.5935L253.542 65.2741L253.936 65.9783L254.316 66.6939L254.727 67.4059L255.198 68.1065L255.697 68.7978L256.175 69.4891L256.586 70.1883L256.896 70.901L257.139 71.626L257.366 72.3581L257.626 73.0938L257.954 73.8302L258.312 74.5637L258.65 75.2937L258.914 76.0179L259.069 76.7364L259.153 77.4542L259.217 78.1756L259.317 78.9077L259.487 79.652L259.691 80.4006L259.873 81.142L259.98 81.8648L259.976 82.5618L259.895 83.2445L259.795 83.9286L259.729 84.6278L259.734 85.3527L259.774 86.0884L259.794 86.8134L259.739 87.5075L259.573 88.1565L259.331 88.7783L259.068 89.3972L258.838 90.0377L258.677 90.7153L258.55 91.4102L258.406 92.0914L258.191 92.7297L257.868 93.3057L257.473 93.8422L257.056 94.3716L256.67 94.9282L256.348 95.5328L256.059 96.1596L255.754 96.7714L255.385 97.3294L254.918 97.8094L254.383 98.2385L253.829 98.6575L253.299 99.1081L252.827 99.616L252.386 100.15L251.931 100.668L251.421 101.124L250.826 101.489L250.173 101.793L249.501 102.085L248.849 102.41L248.245 102.801L247.666 103.223L247.078 103.626L246.446 103.961L245.746 104.195L244.999 104.362L244.235 104.513L243.485 104.701L242.771 104.958L242.077 105.249L241.377 105.522L240.647 105.723L239.87 105.816L239.058 105.838L238.231 105.842L237.412 105.883L236.616 105.997L235.832 106.146L235.049 106.277L234.249 106.335L233.423 106.283L232.577 106.158L231.722 106.013L230.866 105.906L230.018 105.87L229.177 105.871L228.338 105.855L227.5 105.767L226.659 105.572L225.814 105.303L224.962 105.015L224.104 104.762L223.238 104.578L222.371 104.431L221.511 104.269L220.668 104.038L219.845 103.706L219.034 103.304L218.221 102.883L217.392 102.494L216.543 102.17L215.685 101.88L214.838 101.577L214.023 101.213L213.251 100.756L212.506 100.236L211.763 99.6991L211 99.1891L210.2 98.737L209.385 98.3165L208.585 97.8853L207.83 97.4025L207.139 96.8401L206.491 96.2234L205.849 95.5901L205.18 94.9798L204.461 94.4182L203.721 93.883L202.999 93.3408L202.335 92.7584L201.754 92.1129L201.227 91.4231L200.712 90.7196L200.164 90.0326L199.555 89.3836L198.92 88.7568L198.303 88.1264L197.755 87.4674L197.306 86.7639L196.923 86.0282L196.554 85.2825L196.149 84.5468L195.674 83.8362L195.167 83.1421L194.68 82.4486L194.271 81.7402L193.971 81.0066L193.745 80.2544L193.536 79.4951L193.29 78.7394L192.966 77.9965L192.607 77.263L192.271 76.5344L192.013 75.8052L191.874 75.0702L191.814 74.3309L191.774 73.5873L191.694 72.8416L191.535 72.0952L191.337 71.3523L191.161 70.6174L191.066 69.8953L191.093 69.1882L191.201 68.4898L191.33 67.7913L191.418 67.0843L191.428 66.3637L191.398 65.6409L191.388 64.9288L191.458 64.2418L191.648 63.5899L191.919 62.9588L192.21 62.332L192.465 61.6909L192.642 61.0247L192.78 60.3492L192.936 59.6873L193.167 59.0633L193.511 58.4902L193.933 57.9508L194.376 57.4186L194.784 56.8677L195.12 56.2803L195.419 55.6785L195.734 55.0933L196.116 54.5546L196.601 54.0825L197.158 53.6541L197.733 53.2365L198.279 52.7952L198.76 52.3095L199.208 51.8045L199.667 51.3167L200.184 50.884L200.792 50.5301L201.46 50.2285L202.146 49.9399L202.807 49.6254L203.415 49.2586L203.992 48.8689L204.579 48.4971L205.211 48.1862L205.915 47.9627L206.67 47.7979L207.44 47.6482L208.192 47.4706L208.901 47.237L209.587 46.9763L210.277 46.7349L210.999 46.5565L211.774 46.4713L212.586 46.4484L213.411 46.4426L214.224 46.4075L215.008 46.3144L215.775 46.1933L216.542 46.0895L217.327 46.0501L218.143 46.1052L218.982 46.2241L219.831 46.361L220.675 46.4698L221.504 46.52L222.323 46.5422L223.138 46.5802L223.956 46.6812L224.782 46.8739L225.617 47.1289L226.458 47.4025L227.302 47.6504L228.145 47.8424L228.985 48.0057L229.816 48.1848L230.637 48.4212L231.444 48.7435L232.244 49.1254L233.046 49.5251L233.857 49.9019L234.683 50.2278L235.513 50.5273L236.33 50.8396L237.123 51.2028L237.88 51.6433L238.616 52.1369L239.349 52.6477L240.099 53.1391L240.876 53.5868L241.665 54.0116L242.439 54.4457L243.173 54.9228L243.852 55.4644L244.497 56.0511L245.134 56.6528L245.794 57.2409ZM272.264 42.5005L270.494 40.9947L268.693 39.5183L266.863 38.0734L265.003 36.6593L263.116 35.2768L261.202 33.9279L259.263 32.6119L257.299 31.3311L255.311 30.0846L253.301 28.874L251.269 27.6999L249.218 26.5623L247.147 25.4627L245.058 24.4011L242.952 23.3789L240.831 22.3953L238.695 21.4519L236.546 20.5493L234.384 19.6868L232.211 18.8666L230.029 18.0879L227.838 17.3522L225.639 16.6588L223.434 16.0083L221.225 15.4016L219.011 14.8392L216.795 14.3213L214.577 13.8478L212.358 13.4187L210.142 13.0355L207.927 12.6973L205.716 12.4051L203.509 12.1594L201.309 11.9595L199.116 11.8055L196.93 11.6988L194.755 11.6379L192.59 11.6235L190.438 11.6565L188.299 11.736L186.175 11.8628L184.066 12.0361L181.974 12.2561L179.9 12.5233L177.847 12.837L175.813 13.1966L173.801 13.6035L171.812 14.0563L169.847 14.5556L167.907 15.1007L165.995 15.6917L164.109 16.3285L162.252 17.0098L160.425 17.7362L158.629 18.5077L156.865 19.3229L155.135 20.1818L153.438 21.0844L151.776 22.0307L150.152 23.0186L148.564 24.0494L147.015 25.121L145.504 26.2342L144.035 27.3876L142.607 28.581L141.22 29.8131L139.878 31.0847L138.579 32.3942L137.325 33.7402L136.117 35.1235L134.955 36.5426L133.841 37.996L132.774 39.4846L131.757 41.0061L130.79 42.5606L129.872 44.1466L129.006 45.7634L128.192 47.4103L127.43 49.0859L126.72 50.7901L126.065 52.5208L125.462 54.278L124.915 56.0603L124.423 57.8669L123.986 59.6958L123.604 61.5468L123.279 63.4194L123.01 65.3106L122.797 67.2211L122.642 69.1488L122.544 71.0922L122.504 73.0515L122.521 75.0243L122.596 77.01L122.728 79.0065L122.917 81.0137L123.166 83.0295L123.472 85.0532L123.835 87.0833L124.255 89.1185L124.734 91.158L125.269 93.1996L125.862 95.2426L126.51 97.2849L127.216 99.3265L127.977 101.365L128.794 103.4L129.667 105.429L130.593 107.452L131.574 109.467L132.608 111.472L133.696 113.467L134.837 115.451L136.028 117.42L137.271 119.376L138.564 121.315L139.907 123.237L141.298 125.141L142.738 127.026L144.224 128.889L145.755 130.73L147.333 132.548L148.954 134.341L150.618 136.108L152.325 137.849L154.072 139.561L155.858 141.245L157.684 142.897L159.547 144.518L161.446 146.106L163.38 147.661L165.347 149.181L167.348 150.665L169.379 152.112L171.441 153.522L173.53 154.894L175.646 156.225L177.789 157.516L179.955 158.766L182.144 159.974L184.355 161.138L186.585 162.259L188.834 163.335L191.099 164.367L193.381 165.353L195.676 166.292L197.983 167.184L200.301 168.028L202.629 168.825L204.964 169.573L207.305 170.272L209.651 170.921L212 171.521L214.351 172.069L216.702 172.568L219.051 173.016L221.397 173.412L223.738 173.758L226.074 174.052L228.402 174.294L230.72 174.485L233.028 174.624L235.324 174.711L237.606 174.747L239.873 174.73L242.124 174.662L244.357 174.544L246.57 174.373L248.762 174.152L250.932 173.879L253.079 173.556L255.201 173.182L257.296 172.758L259.365 172.285L261.404 171.763L263.414 171.191L265.392 170.571L267.337 169.904L269.25 169.189L271.127 168.427L272.969 167.619L274.774 166.765L276.541 165.866L278.268 164.924L279.956 163.936L281.603 162.907L283.207 161.835L284.769 160.722L286.287 159.567L287.761 158.374L289.19 157.141L290.572 155.87L291.907 154.562L293.195 153.217L294.434 151.837L295.624 150.422L296.766 148.973L297.856 147.492L298.897 145.979L299.886 144.435L300.823 142.862L301.708 141.26L302.541 139.631L303.321 137.974L304.047 136.292L304.72 134.586L305.34 132.856L305.905 131.105L306.416 129.331L306.872 127.538L307.274 125.725L307.621 123.895L307.913 122.047L308.151 120.185L308.334 118.307L308.462 116.417L308.535 114.513L308.553 112.599L308.517 110.674L308.426 108.741L308.281 106.8L308.081 104.852L307.829 102.9L307.522 100.942L307.162 98.9812L306.749 97.0185L306.283 95.0549L305.765 93.0907L305.194 91.1286L304.573 89.1687L303.901 87.2123L303.178 85.2602L302.404 83.3139L301.581 81.374L300.709 79.4427L299.788 77.5201L298.82 75.6067L297.804 73.7055L296.742 71.8157L295.634 69.9389L294.48 68.0764L293.282 66.2289L292.04 64.3979L290.755 62.5841L289.427 60.7882L288.057 59.0117L286.648 57.2545L285.198 55.5187L283.709 53.8052L282.181 52.1146L280.616 50.4477L279.015 48.8051L277.378 47.189L275.706 45.5987L274.001 44.0356L272.264 42.5005ZM279.136 42.3106L276.92 40.4259L274.665 38.5791L272.374 36.7711L270.046 35.0017L267.685 33.2731L265.29 31.5847L262.863 29.9392L260.406 28.336L257.919 26.7772L255.404 25.2622L252.863 23.7936L250.296 22.3703L247.706 20.9941L245.092 19.666L242.458 18.3859L239.803 17.1545L237.13 15.9732L234.441 14.8428L231.735 13.7633L229.016 12.7353L226.284 11.7589L223.541 10.8363L220.787 9.96589L218.026 9.14996L215.258 8.38849L212.484 7.68215L209.707 7.03029L206.927 6.43498L204.147 5.89486L201.367 5.41133L198.59 4.98437L195.815 4.61474L193.046 4.30241L190.284 4.0481L187.53 3.8511L184.785 3.71213L182.052 3.6319L179.332 3.60969L176.625 3.64552L173.935 3.74007L171.262 3.89336L168.607 4.10542L165.973 4.37619L163.361 4.70501L160.772 5.09327L158.208 5.53954L155.669 6.04386L153.159 6.6062L150.678 7.22728L148.227 7.90566L145.809 8.64208L143.424 9.43578L141.074 10.2861L138.761 11.193L136.485 12.1565L134.248 13.1759L132.053 14.2504L129.899 15.3801L127.789 16.5642L125.723 17.8021L123.704 19.0937L121.731 20.4375L119.806 21.8337L117.932 23.2814L116.109 24.7801L114.338 26.3281L112.621 27.9263L110.959 29.5724L109.352 31.2666L107.801 33.0066L106.309 34.7932L104.876 36.6242L103.503 38.4996L102.192 40.418L100.942 42.378L99.7552 44.3795L98.6325 46.4203L97.5742 48.4992L96.5817 50.6167L95.6549 52.7694L94.7961 54.9578L94.0052 57.1799L93.283 59.435L92.6301 61.7216L92.0466 64.0376L91.5338 66.3822L91.0919 68.7541L90.7208 71.1517L90.4226 73.5737L90.1959 76.0186L90.0421 78.485L89.9614 80.9714L89.9535 83.4765L90.0193 85.9981L90.158 88.5354L90.3704 91.0856L90.6564 93.6487L91.0161 96.2226L91.4502 98.8043L91.9572 101.394L92.5378 103.989L93.1914 106.588L93.918 109.19L94.7167 111.792L95.5877 114.392L96.5309 116.99L97.5456 119.584L98.6311 122.17L99.7874 124.749L101.012 127.319L102.307 129.877L103.67 132.421L105.1 134.951L106.597 137.464L108.16 139.959L109.787 142.435L111.478 144.889L113.233 147.319L115.049 149.724L116.925 152.102L118.861 154.453L120.855 156.774L122.907 159.062L125.014 161.318L127.175 163.54L129.389 165.725L131.655 167.873L133.97 169.982L136.334 172.049L138.745 174.076L141.201 176.058L143.701 177.996L146.242 179.887L148.824 181.732L151.444 183.528L154.102 185.274L156.793 186.969L159.518 188.611L162.274 190.2L165.06 191.735L167.873 193.215L170.712 194.637L173.575 196.003L176.459 197.311L179.363 198.558L182.285 199.747L185.222 200.874L188.173 201.94L191.137 202.943L194.109 203.885L197.09 204.762L200.076 205.576L203.067 206.326L206.058 207.01L209.05 207.63L212.039 208.183L215.024 208.671L218.002 209.094L220.973 209.45L223.933 209.739L226.881 209.963L229.814 210.119L232.732 210.209L235.631 210.233L238.511 210.19L241.369 210.081L244.204 209.907L247.013 209.666L249.794 209.36L252.548 208.989L255.269 208.553L257.959 208.053L260.614 207.489L263.235 206.862L265.817 206.173L268.361 205.42L270.864 204.607L273.324 203.733L275.742 202.798L278.115 201.804L280.441 200.751L282.719 199.641L284.949 198.474L287.129 197.251L289.256 195.972L291.331 194.64L293.351 193.255L295.317 191.817L297.227 190.328L299.08 188.79L300.875 187.202L302.61 185.567L304.285 183.885L305.9 182.158L307.453 180.386L308.943 178.572L310.37 176.715L311.734 174.819L313.033 172.882L314.266 170.908L315.435 168.898L316.537 166.852L317.572 164.772L318.54 162.658L319.441 160.515L320.274 158.341L321.039 156.139L321.736 153.909L322.364 151.654L322.923 149.374L323.414 147.072L323.835 144.748L324.188 142.404L324.471 140.041L324.686 137.661L324.832 135.265L324.909 132.855L324.917 130.432L324.857 127.997L324.728 125.552L324.531 123.099L324.268 120.638L323.936 118.172L323.537 115.7L323.073 113.227L322.541 110.751L321.944 108.275L321.281 105.8L320.554 103.328L319.763 100.86L318.908 98.3967L317.99 95.9403L317.01 93.4918L315.968 91.0534L314.865 88.6249L313.701 86.2087L312.479 83.8053L311.198 81.417L309.859 79.0445L308.463 76.6884L307.01 74.3516L305.502 72.0342L303.94 69.7376L302.324 67.4632L300.656 65.2117L298.936 62.9845L297.166 60.7832L295.346 58.6091L293.479 56.4622L291.563 54.3446L289.601 52.2579L287.594 50.2012L285.543 48.1775L283.448 46.1875L281.312 44.2312L279.136 42.3106Z" stroke="#0F90E6" stroke-width="3" stroke-linecap="round" stroke-linejoin="round"/>
</svg>
