<svg width="23" height="18" viewBox="0 0 23 18" fill="none" xmlns="http://www.w3.org/2000/svg">
<g id="003-twitter">
<path id="Path" d="M22.9233 2.17863C22.1052 2.5375 21.2335 2.77538 20.3246 2.89088C21.2596 2.33263 21.9732 1.45537 22.3087 0.398C21.437 0.91775 20.4745 1.28488 19.4487 1.48975C18.621 0.608375 17.4412 0.0625 16.1542 0.0625C13.6572 0.0625 11.647 2.08925 11.647 4.57387C11.647 4.93138 11.6772 5.27513 11.7515 5.60238C8.00184 5.4195 4.68396 3.62238 2.45509 0.88475C2.06596 1.55988 1.83771 2.33262 1.83771 3.1645C1.83771 4.7265 2.64209 6.11112 3.84109 6.91275C3.11646 6.899 2.40559 6.68863 1.80334 6.35725C1.80334 6.371 1.80334 6.38888 1.80334 6.40675C1.80334 8.5985 3.36672 10.419 5.41684 10.8384C5.04972 10.9388 4.64959 10.9869 4.23434 10.9869C3.94559 10.9869 3.65409 10.9704 3.38046 10.9099C3.96484 12.696 5.62309 14.0091 7.59484 14.0518C6.06034 15.2521 4.11196 15.9754 2.00271 15.9754C1.63284 15.9754 1.27809 15.9589 0.92334 15.9135C2.92121 17.2019 5.28897 17.9375 7.84234 17.9375C16.1418 17.9375 20.6793 11.0625 20.6793 5.10325C20.6793 4.90387 20.6725 4.71137 20.6628 4.52025C21.558 3.885 22.3101 3.09163 22.9233 2.17863Z" fill="#2D2E31"/>
</g>
</svg>
