<svg width="33" height="33" viewBox="0 0 33 33" fill="none" xmlns="http://www.w3.org/2000/svg">
<g id="akar-icons:person">
<g id="Group">
<path id="Vector" d="M16.5 16.4999C20.0975 16.4999 23.0139 13.5836 23.0139 9.98606C23.0139 6.38854 20.0975 3.47217 16.5 3.47217C12.9025 3.47217 9.98608 6.38854 9.98608 9.98606C9.98608 13.5836 12.9025 16.4999 16.5 16.4999Z" stroke="white" stroke-width="2.60556"/>
<path id="Vector_2" d="M23.014 19.1055H23.4726C24.425 19.1057 25.3446 19.4538 26.0585 20.0842C26.7724 20.7147 27.2316 21.5841 27.3497 22.5292L27.859 26.599C27.9049 26.9657 27.8722 27.3379 27.7632 27.6909C27.6541 28.044 27.4713 28.3698 27.2267 28.6467C26.9821 28.9237 26.6815 29.1455 26.3446 29.2974C26.0078 29.4493 25.6425 29.5278 25.273 29.5277H7.72722C7.35773 29.5278 6.99244 29.4493 6.65561 29.2974C6.31878 29.1455 6.0181 28.9237 5.77354 28.6467C5.52897 28.3698 5.34611 28.044 5.23709 27.6909C5.12807 27.3379 5.09539 26.9657 5.1412 26.599L5.64929 22.5292C5.76744 21.5836 6.22696 20.7139 6.94142 20.0834C7.65589 19.4529 8.57608 19.1051 9.52896 19.1055H9.98623" stroke="white" stroke-width="2.60556" stroke-linecap="round" stroke-linejoin="round"/>
</g>
</g>
</svg>
