<svg width="1390" height="1190" viewBox="0 0 1390 1190" fill="none" xmlns="http://www.w3.org/2000/svg">
<path d="M1012.53 297.449C1002.88 282.976 987.33 273.538 969.951 271.611L304.307 197.8C281.548 195.276 259.147 205.974 246.593 225.36L17.5558 579.066C8.68198 592.77 5.67924 609.399 9.23162 625.166L72.8543 907.546C76.7251 924.726 87.9977 939.212 103.666 947.142L492.927 1144.14C504.222 1149.86 517.097 1151.8 529.689 1149.7L895.748 1088.46C906.956 1086.58 917.451 1081.58 926.018 1074.02L1266.76 773.521C1289.51 753.458 1294.12 719.862 1277.53 694.983L1012.53 297.449Z" fill="#DFF7EF"/>
<path d="M325.205 137.358L942.813 110.834C969.508 109.687 994.982 120.794 1012.08 141.037L1318.98 504.337C1345.38 535.585 1346.32 581.644 1321.24 615.234L1055.13 971.641C1044.41 985.996 1029.75 996.889 1013.04 1002.91L692.356 1118.55C673.025 1125.52 652.059 1125.58 633.027 1118.72L244.576 978.664C224.635 971.474 208.139 957.164 198.153 938.393L49.7803 659.488C36.222 634.001 36.128 603.112 49.529 576.872L248.636 187.011C263.558 157.792 292.933 138.744 325.205 137.358Z" stroke="#26A17B" stroke-width="57"/>
</svg>
