<svg width="586" height="114" viewBox="0 0 586 114" fill="none" xmlns="http://www.w3.org/2000/svg">
<path d="M0.933105 0.167297H310.521V113.167H0.933105V0.167297Z" fill="#FD4D5D"/>
<path d="M39.0278 84.7977C36.9832 84.7977 35.1001 84.293 33.3784 83.2836C31.7104 82.2742 30.3653 80.9461 29.3431 79.2991C28.3208 77.5991 27.8097 75.7396 27.8097 73.7208V69.3379H38.4628V73.2427C38.4628 73.5083 38.5435 73.7474 38.705 73.9599C38.9202 74.1193 39.1623 74.199 39.4313 74.199H74.2156C74.4846 74.199 74.6998 74.1193 74.8612 73.9599C75.0765 73.7474 75.1841 73.5083 75.1841 73.2427V62.3252C75.1841 62.0596 75.0765 61.8471 74.8612 61.6877C74.6998 61.5283 74.4846 61.4486 74.2156 61.4486H39.0278C36.9832 61.4486 35.1001 60.9439 33.3784 59.9345C31.7104 58.9251 30.3653 57.597 29.3431 55.95C28.3208 54.25 27.8097 52.364 27.8097 50.2921V38.498C27.8097 36.4792 28.3208 34.6463 29.3431 32.9994C30.3653 31.2993 31.7104 29.9446 33.3784 28.9352C35.1001 27.9258 36.9832 27.4211 39.0278 27.4211H74.6998C76.7444 27.4211 78.6006 27.9258 80.2685 28.9352C81.9903 29.9446 83.3623 31.2993 84.3845 32.9994C85.4068 34.6463 85.918 36.4792 85.918 38.498V42.8809H75.1841V38.9761C75.1841 38.7105 75.0765 38.498 74.8612 38.3386C74.6998 38.1261 74.4846 38.0198 74.2156 38.0198H39.4313C39.1623 38.0198 38.9202 38.1261 38.705 38.3386C38.5435 38.498 38.4628 38.7105 38.4628 38.9761V49.8936C38.4628 50.1593 38.5435 50.3718 38.705 50.5311C38.9202 50.6905 39.1623 50.7702 39.4313 50.7702H74.6998C76.7444 50.7702 78.6006 51.2749 80.2685 52.2843C81.9903 53.2937 83.3623 54.6484 84.3845 56.3485C85.4068 57.9954 85.918 59.8548 85.918 61.9268V73.7208C85.918 75.7396 85.4068 77.5991 84.3845 79.2991C83.3623 80.9461 81.9903 82.2742 80.2685 83.2836C78.6006 84.293 76.7444 84.7977 74.6998 84.7977H39.0278Z" fill="white"/>
<path d="M115.551 84.7977V38.0198H91.8234V27.4211H149.932V38.0198H126.285V84.7977H115.551Z" fill="white"/>
<path d="M167.024 84.7977C164.98 84.7977 163.097 84.293 161.375 83.2836C159.707 82.2742 158.362 80.9461 157.34 79.2991C156.317 77.5991 155.806 75.7396 155.806 73.7208V38.498C155.806 36.4792 156.317 34.6463 157.34 32.9994C158.362 31.2993 159.707 29.9446 161.375 28.9352C163.097 27.9258 164.98 27.4211 167.024 27.4211H202.696C204.741 27.4211 206.597 27.9258 208.265 28.9352C209.987 29.9446 211.359 31.2993 212.381 32.9994C213.403 34.6463 213.915 36.4792 213.915 38.498V73.7208C213.915 75.7396 213.403 77.5991 212.381 79.2991C211.359 80.9461 209.987 82.2742 208.265 83.2836C206.597 84.293 204.741 84.7977 202.696 84.7977H167.024ZM167.428 74.199H202.131C202.4 74.199 202.643 74.1193 202.858 73.9599C203.073 73.7474 203.181 73.5083 203.181 73.2427V38.9761C203.181 38.7105 203.073 38.498 202.858 38.3386C202.643 38.1261 202.4 38.0198 202.131 38.0198H167.428C167.159 38.0198 166.917 38.1261 166.701 38.3386C166.54 38.498 166.459 38.7105 166.459 38.9761V73.2427C166.459 73.5083 166.54 73.7474 166.701 73.9599C166.917 74.1193 167.159 74.199 167.428 74.199Z" fill="white"/>
<path d="M222.802 84.7977V27.5008H269.612C271.656 27.5008 273.539 28.0055 275.261 29.0149C276.983 30.0243 278.355 31.379 279.377 33.0791C280.399 34.726 280.911 36.5589 280.911 38.5777V54.0375C280.911 56.0563 280.399 57.9157 279.377 59.6158C278.355 61.3158 276.983 62.6705 275.261 63.6799C273.539 64.6362 271.656 65.1144 269.612 65.1144L233.455 65.194V84.7977H222.802ZM234.424 54.5156H269.127C269.396 54.5156 269.639 54.4359 269.854 54.2766C270.069 54.1172 270.177 53.9047 270.177 53.639V38.9761C270.177 38.7105 270.069 38.498 269.854 38.3386C269.639 38.1261 269.396 38.0198 269.127 38.0198H234.424C234.155 38.0198 233.913 38.1261 233.698 38.3386C233.536 38.498 233.455 38.7105 233.455 38.9761V53.639C233.455 53.9047 233.536 54.1172 233.698 54.2766C233.913 54.4359 234.155 54.5156 234.424 54.5156Z" fill="white"/>
<path d="M382.305 84.7977L365.603 65.1144L371.617 65.139L379.526 65.1216L393.927 81.8492V84.7977H382.305ZM335.98 84.7977V27.5008H382.789C384.834 27.5008 386.717 28.0055 388.439 29.0149C390.16 30.0243 391.532 31.379 392.555 33.0791C393.577 34.726 394.088 36.5589 394.088 38.5777V54.0375C394.088 56.0563 393.577 57.9157 392.555 59.6158C391.532 61.3158 390.16 62.6705 388.439 63.6799C386.717 64.6362 384.834 65.1144 382.789 65.1144H365.603L346.633 65.194V84.7977H335.98ZM347.601 54.5156H382.305C382.574 54.5156 382.816 54.4359 383.031 54.2766C383.247 54.1172 383.354 53.9047 383.354 53.639V38.9761C383.354 38.7105 383.247 38.498 383.031 38.3386C382.816 38.1261 382.574 38.0198 382.305 38.0198H347.601C347.332 38.0198 347.09 38.1261 346.875 38.3386C346.714 38.498 346.633 38.7105 346.633 38.9761V53.639C346.633 53.9047 346.714 54.1172 346.875 54.2766C347.09 54.4359 347.332 54.5156 347.601 54.5156Z" fill="#FD4D5D"/>
<path d="M402.739 84.7977V27.4211H456.247V38.0198H413.473V50.7702H447.854V61.4486H413.473V74.199H456.247V84.7977H402.739Z" fill="#FD4D5D"/>
<path d="M475.587 84.7977C473.542 84.7977 471.659 84.293 469.937 83.2836C468.269 82.2742 466.924 80.9461 465.902 79.2991C464.88 77.5991 464.368 75.7396 464.368 73.7208V38.498C464.368 36.4792 464.88 34.6463 465.902 32.9994C466.924 31.2993 468.269 29.9446 469.937 28.9352C471.659 27.9258 473.542 27.4211 475.587 27.4211H522.315V38.0198H477.846C476.986 38.0198 476.286 38.2589 475.748 38.737C475.264 39.2152 475.022 39.9058 475.022 40.809V71.4098C475.022 72.2599 475.264 72.9505 475.748 73.4818C476.286 73.9599 476.986 74.199 477.846 74.199H522.315V84.7977H475.587Z" fill="#FD4D5D"/>
<path d="M551.552 84.7977V38.0198H527.825V27.4211H585.933V38.0198H562.286V84.7977H551.552Z" fill="#FD4D5D"/>
</svg>
