<svg width="203" height="103" viewBox="0 0 203 103" fill="none" xmlns="http://www.w3.org/2000/svg">
<path d="M202.199 100.791C202.098 87.5692 199.393 74.4967 194.24 62.32C189.087 50.1432 181.585 39.1007 172.164 29.8229C162.744 20.5451 151.588 13.2138 139.333 8.24746C127.079 3.28112 113.967 0.777056 100.745 0.878233C87.523 0.97941 74.4504 3.68385 62.2737 8.83714C50.0969 13.9904 39.0544 21.4916 29.7767 30.9125C20.4989 40.3334 13.1675 51.4894 8.2012 63.7436C3.23486 75.9978 0.730794 89.1101 0.831972 102.332L202.199 100.791Z" fill="#52BBF5"/>
<path d="M202.199 100.791C202.098 87.5692 199.393 74.4967 194.24 62.32C189.087 50.1432 181.585 39.1007 172.164 29.8229C162.744 20.5451 151.588 13.2138 139.333 8.24746C127.079 3.28112 113.967 0.777056 100.745 0.878233C87.523 0.97941 74.4504 3.68385 62.2737 8.83714C50.0969 13.9904 39.0544 21.4916 29.7767 30.9125C20.4989 40.3334 13.1675 51.4894 8.2012 63.7436C3.23486 75.9978 0.730794 89.1101 0.831972 102.332L202.199 100.791Z" fill="#FD4D5D"/>
</svg>
