<svg width="42" height="42" viewBox="0 0 42 42" fill="none" xmlns="http://www.w3.org/2000/svg">
<ellipse cx="20.5635" cy="20.6928" rx="20.3512" ry="20.3474" fill="#FF9F38"/>
<path fill-rule="evenodd" clip-rule="evenodd" d="M29.84 17.353C30.2463 14.6807 28.1797 13.2438 25.3561 12.285L26.2723 8.66414L24.0362 8.11591L23.1433 11.6412C22.568 11.4989 21.9779 11.3663 21.3887 11.234L21.3886 11.234L21.351 11.2255L22.2504 7.67732L20.0142 7.12781L19.0981 10.7474L19.0003 10.7254L19.0002 10.7254C18.5473 10.6234 18.1016 10.523 17.6694 10.4159L17.672 10.4045L14.587 9.64586L13.9917 11.9994C13.9917 11.9994 15.652 12.3743 15.6171 12.3972C16.5229 12.6204 16.686 13.2107 16.6588 13.6799L15.6158 17.8044C15.6779 17.8197 15.7581 17.8426 15.8487 17.877L15.6119 17.8197L14.1496 23.5978C14.0383 23.8681 13.7575 24.2748 13.1234 24.1205C13.1467 24.1524 11.4981 23.7215 11.4981 23.7215L10.3878 26.2434L13.2994 26.9586C13.6119 27.0359 13.9208 27.1154 14.2266 27.194L14.2274 27.1942L14.228 27.1944C14.4511 27.2518 14.6726 27.3087 14.8924 27.3641L13.9672 31.0258L16.202 31.574L17.1182 27.9531C17.729 28.115 18.3216 28.2655 18.9014 28.4083L17.9878 32.0139L20.2239 32.5621L21.1491 28.908C24.964 29.6195 27.8316 29.3326 29.0389 25.9335C30.0121 23.1975 28.9911 21.6178 26.984 20.5889C28.4463 20.2574 29.5462 19.3101 29.84 17.353ZM24.7285 24.4138C24.0958 26.9249 20.1068 25.8868 18.2809 25.4116L18.2805 25.4115C18.1162 25.3687 17.9694 25.3305 17.8441 25.2999L19.0735 20.4486C19.2264 20.4863 19.4133 20.5277 19.625 20.5745L19.625 20.5745C21.5136 20.9926 25.3789 21.8481 24.7285 24.4138ZM20.0043 18.3225C21.5257 18.7227 24.8432 19.5954 25.4208 17.3134C26.0115 14.9794 22.7865 14.2765 21.2112 13.9332C21.0337 13.8945 20.8771 13.8604 20.7492 13.829L19.6364 18.2276C19.7418 18.2535 19.8656 18.286 20.0043 18.3225Z" fill="white"/>
</svg>
