<svg width="176" height="82" viewBox="0 0 176 82" fill="none" xmlns="http://www.w3.org/2000/svg">
<path opacity="0.3" d="M87.9591 81.3237C136.238 81.3237 175.377 77.2391 175.377 72.2004C175.377 67.1618 136.238 63.0771 87.9591 63.0771C39.6797 63.0771 0.541504 67.1618 0.541504 72.2004C0.541504 77.2391 39.6797 81.3237 87.9591 81.3237Z" fill="#C1A2AF"/>
<path d="M35.7075 60.0913V72.0345C35.7075 74.8544 55.6129 77.1767 79.9969 77.1767C104.547 77.1767 124.286 74.8544 124.286 72.0345V60.0913H35.7075Z" fill="#FF8E3D"/>
<path d="M117.651 62.9111V74.6884" stroke="#F5E9DD" stroke-width="1.60488" stroke-miterlimit="10" stroke-linecap="round" stroke-linejoin="round"/>
<path d="M113.338 63.9062V75.8496" stroke="#F5E9DD" stroke-width="1.60488" stroke-miterlimit="10" stroke-linecap="round" stroke-linejoin="round"/>
<path d="M85.3047 65.2334V77.1766" stroke="#F5E9DD" stroke-width="1.60488" stroke-miterlimit="10" stroke-linecap="round" stroke-linejoin="round"/>
<path d="M48.48 63.9062V75.8496" stroke="#F5E9DD" stroke-width="1.60488" stroke-miterlimit="10" stroke-linecap="round" stroke-linejoin="round"/>
<path d="M44.9966 63.2439V75.187" stroke="#F5E9DD" stroke-width="1.60488" stroke-miterlimit="10" stroke-linecap="round" stroke-linejoin="round"/>
<path d="M76.6792 65.2334V77.1766" stroke="#F5E9DD" stroke-width="1.60488" stroke-miterlimit="10" stroke-linecap="round" stroke-linejoin="round"/>
<path d="M80.1643 65.2334C104.625 65.2334 124.454 62.9311 124.454 60.0911C124.454 57.2512 104.625 54.949 80.1643 54.949C55.704 54.949 35.875 57.2512 35.875 60.0911C35.875 62.9311 55.704 65.2334 80.1643 65.2334Z" fill="#FCBF31"/>
<path d="M80.1626 61.584C97.6604 61.584 111.845 60.6185 111.845 59.4276C111.845 58.2367 97.6604 57.2712 80.1626 57.2712C62.6647 57.2712 48.48 58.2367 48.48 59.4276C48.48 60.6185 62.6647 61.584 80.1626 61.584Z" fill="#FF8E3D"/>
<path d="M48.314 47.1526V59.0958C48.314 61.9158 68.2193 64.238 92.6033 64.238C117.153 64.238 136.893 61.9158 136.893 59.0958V47.1526H48.314Z" fill="#FF8E3D"/>
<path d="M130.092 49.9727V61.75" stroke="#F5E9DD" stroke-width="1.60488" stroke-miterlimit="10" stroke-linecap="round" stroke-linejoin="round"/>
<path d="M125.945 50.9678V62.7451" stroke="#F5E9DD" stroke-width="1.60488" stroke-miterlimit="10" stroke-linecap="round" stroke-linejoin="round"/>
<path d="M97.9116 52.2949V64.2381" stroke="#F5E9DD" stroke-width="1.60488" stroke-miterlimit="10" stroke-linecap="round" stroke-linejoin="round"/>
<path d="M60.9209 50.9678V62.7451" stroke="#F5E9DD" stroke-width="1.60488" stroke-miterlimit="10" stroke-linecap="round" stroke-linejoin="round"/>
<path d="M57.6033 50.3054V62.2487" stroke="#F5E9DD" stroke-width="1.60488" stroke-miterlimit="10" stroke-linecap="round" stroke-linejoin="round"/>
<path d="M89.2856 52.2949V64.2381" stroke="#F5E9DD" stroke-width="1.60488" stroke-miterlimit="10" stroke-linecap="round" stroke-linejoin="round"/>
<path d="M92.6033 52.295C117.064 52.295 136.893 49.9928 136.893 47.1528C136.893 44.3128 117.064 42.0105 92.6033 42.0105C68.143 42.0105 48.314 44.3128 48.314 47.1528C48.314 49.9928 68.143 52.295 92.6033 52.295Z" fill="#FCBF31"/>
<path d="M92.6035 48.6457C110.101 48.6457 124.286 47.6802 124.286 46.4893C124.286 45.2983 110.101 44.3328 92.6035 44.3328C75.1057 44.3328 60.9209 45.2983 60.9209 46.4893C60.9209 47.6802 75.1057 48.6457 92.6035 48.6457Z" fill="#FF8E3D"/>
<path d="M53.1245 33.385V45.3281C53.1245 48.148 73.0298 50.4703 97.4139 50.4703C121.964 50.4703 141.703 48.148 141.703 45.3281V33.385H53.1245Z" fill="#FF8E3D"/>
<path d="M134.902 36.2048V47.9821" stroke="#F5E9DD" stroke-width="1.60488" stroke-miterlimit="10" stroke-linecap="round" stroke-linejoin="round"/>
<path d="M130.755 37.2V49.1431" stroke="#F5E9DD" stroke-width="1.60488" stroke-miterlimit="10" stroke-linecap="round" stroke-linejoin="round"/>
<path d="M102.556 38.5271V50.4703" stroke="#F5E9DD" stroke-width="1.60488" stroke-miterlimit="10" stroke-linecap="round" stroke-linejoin="round"/>
<path d="M65.7312 37.2V49.1431" stroke="#F5E9DD" stroke-width="1.60488" stroke-miterlimit="10" stroke-linecap="round" stroke-linejoin="round"/>
<path d="M62.2478 36.5376V48.4808" stroke="#F5E9DD" stroke-width="1.60488" stroke-miterlimit="10" stroke-linecap="round" stroke-linejoin="round"/>
<path d="M93.9307 38.5271V50.4703" stroke="#F5E9DD" stroke-width="1.60488" stroke-miterlimit="10" stroke-linecap="round" stroke-linejoin="round"/>
<path d="M97.4139 38.527C121.874 38.527 141.703 36.2248 141.703 33.3849C141.703 30.5449 121.874 28.2427 97.4139 28.2427C72.9535 28.2427 53.1245 30.5449 53.1245 33.3849C53.1245 36.2248 72.9535 38.527 97.4139 38.527Z" fill="#FCBF31"/>
<path d="M97.4136 34.8777C114.911 34.8777 129.096 33.9122 129.096 32.7213C129.096 31.5304 114.911 30.5649 97.4136 30.5649C79.9158 30.5649 65.731 31.5304 65.731 32.7213C65.731 33.9122 79.9158 34.8777 97.4136 34.8777Z" fill="#FF8E3D"/>
<path d="M32.2236 19.6169V31.5602C32.2236 34.3801 52.129 36.7024 76.513 36.7024C101.063 36.7024 120.802 34.3801 120.802 31.5602V19.6169H32.2236Z" fill="#FF8E3D"/>
<path d="M114.001 22.437V34.2143" stroke="#F5E9DD" stroke-width="1.60488" stroke-miterlimit="10" stroke-linecap="round" stroke-linejoin="round"/>
<path d="M109.854 23.4321V35.2095" stroke="#F5E9DD" stroke-width="1.60488" stroke-miterlimit="10" stroke-linecap="round" stroke-linejoin="round"/>
<path d="M81.6548 24.7593V36.7025" stroke="#F5E9DD" stroke-width="1.60488" stroke-miterlimit="10" stroke-linecap="round" stroke-linejoin="round"/>
<path d="M44.8301 23.4321V35.2095" stroke="#F5E9DD" stroke-width="1.60488" stroke-miterlimit="10" stroke-linecap="round" stroke-linejoin="round"/>
<path d="M41.5127 22.7698V34.7129" stroke="#F5E9DD" stroke-width="1.60488" stroke-miterlimit="10" stroke-linecap="round" stroke-linejoin="round"/>
<path d="M73.0295 24.7593V36.7025" stroke="#F5E9DD" stroke-width="1.60488" stroke-miterlimit="10" stroke-linecap="round" stroke-linejoin="round"/>
<path d="M76.5133 24.7593C100.974 24.7593 120.803 22.4571 120.803 19.6171C120.803 16.7771 100.974 14.4749 76.5133 14.4749C52.0529 14.4749 32.2239 16.7771 32.2239 19.6171C32.2239 22.4571 52.0529 24.7593 76.5133 24.7593Z" fill="#FCBF31"/>
<path d="M76.513 21.1098C94.0108 21.1098 108.196 20.1444 108.196 18.9535C108.196 17.7625 94.0108 16.7971 76.513 16.7971C59.0151 16.7971 44.8303 17.7625 44.8303 18.9535C44.8303 20.1444 59.0151 21.1098 76.513 21.1098Z" fill="#FF8E3D"/>
<path d="M48.314 5.84912V17.7923C48.314 20.6122 68.2193 22.9346 92.6033 22.9346C117.153 22.9346 136.893 20.6122 136.893 17.7923V5.84912H48.314Z" fill="#FF8E3D"/>
<path d="M130.092 8.66919V20.4465" stroke="#F5E9DD" stroke-width="1.60488" stroke-miterlimit="10" stroke-linecap="round" stroke-linejoin="round"/>
<path d="M125.945 9.66455V21.6076" stroke="#F5E9DD" stroke-width="1.60488" stroke-miterlimit="10" stroke-linecap="round" stroke-linejoin="round"/>
<path d="M97.9116 10.9915V22.9346" stroke="#F5E9DD" stroke-width="1.60488" stroke-miterlimit="10" stroke-linecap="round" stroke-linejoin="round"/>
<path d="M60.9209 9.66455V21.6076" stroke="#F5E9DD" stroke-width="1.60488" stroke-miterlimit="10" stroke-linecap="round" stroke-linejoin="round"/>
<path d="M57.6033 9.00195V20.9451" stroke="#F5E9DD" stroke-width="1.60488" stroke-miterlimit="10" stroke-linecap="round" stroke-linejoin="round"/>
<path d="M89.2856 10.9915V22.9346" stroke="#F5E9DD" stroke-width="1.60488" stroke-miterlimit="10" stroke-linecap="round" stroke-linejoin="round"/>
<path d="M92.6033 10.9915C117.064 10.9915 136.893 8.68924 136.893 5.84927C136.893 3.00929 117.064 0.707031 92.6033 0.707031C68.143 0.707031 48.314 3.00929 48.314 5.84927C48.314 8.68924 68.143 10.9915 92.6033 10.9915Z" fill="#FCBF31"/>
<path d="M92.6035 7.34207C110.101 7.34207 124.286 6.37665 124.286 5.18571C124.286 3.99477 110.101 3.0293 92.6035 3.0293C75.1057 3.0293 60.9209 3.99477 60.9209 5.18571C60.9209 6.37665 75.1057 7.34207 92.6035 7.34207Z" fill="#FF8E3D"/>
</svg>
