<svg width="2400" height="1855" viewBox="0 0 2400 1855" fill="none" xmlns="http://www.w3.org/2000/svg">
<path d="M1663.42 61.3462C1687.76 55.742 1717 65.0194 1736.47 84.5284L2217.23 566.112C2240.65 589.575 2243.33 620.978 2223.47 639.135L1851.89 978.787C1843.72 986.26 1832.41 990.77 1819.56 991.683L688.161 1072.12C673.125 1073.19 656.941 1069.27 642.67 1061.09L252.975 837.943C232.75 826.361 218.79 807.662 216.084 788.527L169.964 462.404C166.766 439.787 179.827 420.75 202.923 414.366L565.926 314.034L1663.42 61.3462Z" fill="#FAF1F2"/>
<path d="M2207.29 1146.49L2113.56 803.835C2107.87 783.041 2094.42 763.453 2075.55 748.485L1548.65 330.633C1519.85 307.791 1482.04 298.512 1449.5 306.294L364.218 565.783C335.614 572.622 314.65 591.805 307.611 617.583L244.196 849.789C236.574 877.697 246.258 909.659 269.902 934.637L814.652 1510.14C834.18 1530.77 861.24 1544.5 889.217 1547.99L1771.59 1657.87C1804.37 1661.96 1834.54 1651.5 1852.27 1629.92L2194.48 1213.34C2209.36 1195.22 2214 1171.02 2207.29 1146.49Z" stroke="#FE4D5D" stroke-width="69"/>
</svg>
