<svg width="1707" height="1027" viewBox="0 0 1707 1027" fill="none" xmlns="http://www.w3.org/2000/svg">
<mask id="mask0_39_918" style="mask-type:alpha" maskUnits="userSpaceOnUse" x="-346" y="-10" width="2053" height="1037">
<rect x="-345.559" y="-9.12305" width="2052.3" height="1035.63" fill="white"/>
</mask>
<g mask="url(#mask0_39_918)">
<path opacity="0.1" d="M590.451 -1079.35C615.948 -1092.43 645.332 -1095.25 672.517 -1087.22L1342.9 -889.334C1370.97 -881.048 1394.43 -861.873 1408.14 -836.022L1724.91 -238.496C1739.07 -211.787 1741.59 -180.253 1731.89 -151.256L1514.81 497.452C1505.42 525.517 1485.35 548.866 1459.03 562.367L830.269 884.806C804.772 897.881 775.388 900.698 748.203 892.674L77.8239 694.786C49.7543 686.5 26.288 667.324 12.5833 641.474L-304.192 43.948C-318.352 17.2391 -320.875 -14.2955 -311.171 -43.2923L-94.088 -692C-84.6964 -720.065 -64.6318 -743.414 -38.3051 -756.915L590.451 -1079.35Z" fill="#F94E60"/>
<path d="M440.164 -1117.47C463.68 -1133.9 492.174 -1140.77 519.818 -1136.71L1208.51 -1035.32C1237.24 -1031.09 1262.74 -1015.38 1279.42 -991.645L1663.83 -444.419C1681.18 -419.728 1687.47 -388.499 1681.22 -358.112L1542.71 315.363C1536.7 344.579 1519.6 370.575 1495.16 387.638L909.305 796.737C885.79 813.157 857.295 820.037 829.652 815.968L140.957 714.585C112.232 710.357 86.7288 694.646 70.0526 670.907L-314.362 123.682C-331.706 98.9908 -337.997 67.7617 -331.748 37.3743L-193.241 -636.1C-187.233 -665.316 -170.131 -691.312 -145.695 -708.376L440.164 -1117.47Z" fill="#FD4D5D"/>
<path opacity="0.15" fill-rule="evenodd" clip-rule="evenodd" d="M281.929 553.519C647.96 553.519 944.687 256.792 944.687 -109.239C944.687 -475.269 647.96 -771.996 281.929 -771.996C-84.1015 -771.996 -380.828 -475.269 -380.828 -109.239C-380.828 256.792 -84.1015 553.519 281.929 553.519ZM281.929 329.993C39.349 329.993 -157.301 133.342 -157.301 -109.238C-157.301 -351.818 39.349 -548.468 281.929 -548.468C524.51 -548.468 721.16 -351.818 721.16 -109.238C721.16 133.342 524.51 329.993 281.929 329.993Z" fill="url(#paint0_linear_39_918)"/>
</g>
<path d="M1103 670V463.707L1600 278V403.703L1103 670Z" fill="url(#paint1_linear_39_918)" fill-opacity="0.3"/>
<circle cx="160.512" cy="192.703" r="8" fill="white" fill-opacity="0.3"/>
<circle opacity="0.4" cx="805.193" cy="724.454" r="24.5" fill="white" fill-opacity="0.4"/>
<circle cx="1113.62" cy="236.344" r="8" fill="white" fill-opacity="0.3"/>
<circle cx="1076.62" cy="538.344" r="8" fill="white" fill-opacity="0.3"/>
<defs>
<linearGradient id="paint0_linear_39_918" x1="944.687" y1="-770.229" x2="-377.295" y2="-770.229" gradientUnits="userSpaceOnUse">
<stop stop-color="white" stop-opacity="0.01"/>
<stop offset="1" stop-color="white"/>
</linearGradient>
<linearGradient id="paint1_linear_39_918" x1="1433.72" y1="278" x2="982.571" y2="543.467" gradientUnits="userSpaceOnUse">
<stop stop-color="white"/>
<stop offset="1" stop-color="white" stop-opacity="0"/>
</linearGradient>
</defs>
</svg>
