<svg width="2087" height="1616" viewBox="0 0 2087 1616" fill="none" xmlns="http://www.w3.org/2000/svg">
<path d="M527.472 69.4362C537.74 51.5932 556.741 40.7126 577.625 40.7166L1463.97 40.8843C1475.01 40.8864 1485.95 43.946 1495.58 49.7253L2006.19 356.39C2042.4 378.137 2047.28 428.537 2015.68 454.494L1657.73 748.567L1340.67 967.133L1018.94 1179.13C1005.79 1187.8 989.524 1190.72 973.78 1187.24L89.6771 991.802C49.2314 982.861 28.1948 937.039 48.4094 901.912L527.472 69.4362Z" fill="#DFF6EF"/>
<path d="M1361.05 1245.8L1361.13 1245.76L1361.21 1245.71L1705.44 1059.31C1711.47 1056.05 1717.07 1052.06 1722.12 1047.44L1955.01 834.506C1989.17 803.272 1992.26 749.625 1962.05 712.451L1580.78 243.433C1564.27 223.117 1540.06 210.791 1514.47 209.667L619.283 170.345C588.774 169.005 560.278 183.731 543.98 209.259L115.122 881.007C88.2207 923.145 102.473 980.661 146.366 1007.09L883.897 1451.21C910.64 1467.31 943.289 1468.43 970.058 1454.17L1361.05 1245.8Z" stroke="#26A17B" stroke-width="57"/>
</svg>
