<svg width="125" height="124" viewBox="0 0 125 124" fill="none" xmlns="http://www.w3.org/2000/svg">
<g clip-path="url(#clip0_137_2862)">
<path d="M7.9765 93.5074C6.9456 93.5074 6.11035 92.6719 6.11035 91.6413V79.6512C6.11035 78.6203 6.94584 77.785 7.9765 77.785C9.00715 77.785 9.84264 78.6205 9.84264 79.6512V91.6413C9.84289 92.6719 9.0074 93.5074 7.9765 93.5074Z" fill="#574D56"/>
<path d="M7.9765 56.6307C6.9456 56.6307 6.11035 55.7952 6.11035 54.7646V46.3138C6.11035 45.2829 6.94584 44.4476 7.9765 44.4476C9.00715 44.4476 9.84264 45.2831 9.84264 46.3138V54.7646C9.84289 55.7952 9.0074 56.6307 7.9765 56.6307Z" fill="#574D56"/>
<path d="M29.7866 85.2032C28.7557 85.2032 27.9204 84.3678 27.9204 83.3371V79.6512C27.9204 78.6203 28.7559 77.785 29.7866 77.785C30.8175 77.785 31.6527 78.6205 31.6527 79.6512V83.3371C31.6527 84.3678 30.8175 85.2032 29.7866 85.2032Z" fill="#574D56"/>
<path d="M117.025 15.2933C115.994 15.2933 115.159 14.4578 115.159 13.4272V4.97662C115.159 3.94572 115.994 3.11047 117.025 3.11047C118.055 3.11047 118.891 3.94596 118.891 4.97662V13.4272C118.891 14.4578 118.056 15.2933 117.025 15.2933Z" fill="#574D56"/>
<path d="M11.8693 79.6512H3.33715C2.02124 79.6512 0.95459 78.5846 0.95459 77.2687V57.1471C0.95459 55.8312 2.02124 54.7645 3.33715 54.7645H11.8696C13.1855 54.7645 14.2522 55.8312 14.2522 57.1471V77.2687C14.2522 78.5843 13.1853 79.6512 11.8693 79.6512Z" fill="#FF6470"/>
<path d="M12.6159 54.7643H7.41553C8.73144 54.7643 9.79809 55.8309 9.79809 57.1468V77.2684C9.79809 78.5843 8.73144 79.651 7.41553 79.651H12.6159C13.9318 79.651 14.9985 78.5843 14.9985 77.2684V57.1468C14.9985 55.8312 13.9318 54.7643 12.6159 54.7643Z" fill="#FF4555"/>
<path d="M33.6792 79.6512H25.1467C23.8308 79.6512 22.7642 78.5845 22.7642 77.2686V67.1002C22.7642 65.7843 23.8308 64.7177 25.1467 64.7177H33.6792C34.9951 64.7177 36.0617 65.7843 36.0617 67.1002V77.2686C36.0617 78.5843 34.9951 79.6512 33.6792 79.6512Z" fill="#FF6470"/>
<path d="M34.426 64.7174H29.2256C30.5415 64.7174 31.6081 65.784 31.6081 67.1V77.2684C31.6081 78.5843 30.5415 79.6509 29.2256 79.6509H34.426C35.7419 79.6509 36.8085 78.5843 36.8085 77.2684V67.1C36.8088 65.7843 35.7419 64.7174 34.426 64.7174Z" fill="#FF4555"/>
<path d="M120.918 22.9141H112.386C111.07 22.9141 110.003 21.8475 110.003 20.5316V15.8097C110.003 14.4938 111.07 13.4271 112.386 13.4271H120.918C122.234 13.4271 123.301 14.4938 123.301 15.8097V20.5316C123.301 21.8475 122.234 22.9141 120.918 22.9141Z" fill="#FF6470"/>
<path d="M121.665 13.4271H116.464C117.78 13.4271 118.847 14.4938 118.847 15.8097V20.5316C118.847 21.8475 117.78 22.9141 116.464 22.9141H121.665C122.981 22.9141 124.047 21.8475 124.047 20.5316V15.8097C124.047 14.4938 122.981 13.4271 121.665 13.4271Z" fill="#FF4555"/>
<path d="M51.0353 95.7593L54.8268 98.2523L67.25 102.855L84.8371 101.458L99.0547 90.6916L110.003 77.2136L112.451 64.1464L116.465 48.2851L111.012 30.6981C111.012 30.6981 105.903 18.7268 105.848 18.6447C105.794 18.5626 101.794 12.3165 101.794 12.3165L97.7124 8.45406L95.8497 6.27632L94.063 5.07393C88.5177 1.82182 82.3183 -0.00012207 75.7744 -0.00012207C52.1602 -0.00012207 33.0171 23.6885 33.0171 52.9099C33.0171 69.8347 39.4394 84.9028 49.4325 94.5878L51.0353 95.7593Z" fill="#FAF7F8"/>
<path d="M94.0624 5.07373C104.055 14.7588 110.478 29.8269 110.478 46.7516C110.478 75.973 91.3347 99.6617 67.7204 99.6617C61.1766 99.6617 54.9772 97.8398 49.4321 94.5879C56.6924 101.624 65.8374 105.82 75.7744 105.82C99.3886 105.82 118.532 82.1314 118.532 52.91C118.532 31.7862 108.527 13.5564 94.0624 5.07373Z" fill="#F0EEF0"/>
<path d="M51.5961 85.2032C50.5652 85.2032 49.73 84.3678 49.73 83.3371V79.6512C49.73 78.6203 50.5655 77.785 51.5961 77.785C52.627 77.785 53.4623 78.6205 53.4623 79.6512V83.3371C53.4623 84.3678 52.6268 85.2032 51.5961 85.2032Z" fill="#574D56"/>
<path d="M51.5961 61.6074C50.5652 61.6074 49.73 60.7719 49.73 59.7413V51.2905C49.73 50.2596 50.5655 49.4243 51.5961 49.4243C52.627 49.4243 53.4623 50.2598 53.4623 51.2905V59.7413C53.4623 60.7719 52.6268 61.6074 51.5961 61.6074Z" fill="#574D56"/>
<path d="M73.4062 42.8389C72.3753 42.8389 71.54 42.0034 71.54 40.9727V32.5222C71.54 31.4913 72.3755 30.656 73.4062 30.656C74.4368 30.656 75.2723 31.4915 75.2723 32.5222V40.9727C75.2723 42.0036 74.4368 42.8389 73.4062 42.8389Z" fill="#574D56"/>
<path d="M95.2153 23.2644C94.1844 23.2644 93.3491 22.4289 93.3491 21.3982V12.9477C93.3491 11.9168 94.1846 11.0815 95.2153 11.0815C96.2459 11.0815 97.0814 11.917 97.0814 12.9477V21.3982C97.0817 22.4289 96.2462 23.2644 95.2153 23.2644Z" fill="#574D56"/>
<path d="M49.432 24.7716C48.9566 24.7716 48.4815 24.5914 48.1175 24.2303L32.248 8.48498H13.1733C12.1424 8.48498 11.3071 7.64949 11.3071 6.61883C11.3071 5.58818 12.1426 4.75269 13.1733 4.75269H33.0166C33.5089 4.75269 33.9816 4.94737 34.3311 5.29398L50.7464 21.5809C51.4781 22.3069 51.4827 23.4883 50.7568 24.2202C50.3921 24.5873 49.9119 24.7716 49.432 24.7716Z" fill="#574D56"/>
<path d="M30.3497 16.628H13.1733C12.1424 16.628 11.3071 15.7926 11.3071 14.7619C11.3071 13.731 12.1426 12.8958 13.1733 12.8958H30.3497C31.3806 12.8958 32.2159 13.7312 32.2159 14.7619C32.2159 15.7928 31.3806 16.628 30.3497 16.628Z" fill="#574D56"/>
<path d="M30.3497 24.0373H13.1733C12.1424 24.0373 11.3071 23.2019 11.3071 22.1712C11.3071 21.1403 12.1426 20.3051 13.1733 20.3051H30.3497C31.3806 20.3051 32.2159 21.1405 32.2159 22.1712C32.2159 23.2021 31.3806 24.0373 30.3497 24.0373Z" fill="#574D56"/>
<path d="M30.3497 31.4464H13.1733C12.1424 31.4464 11.3071 30.6109 11.3071 29.5803C11.3071 28.5494 12.1426 27.7141 13.1733 27.7141H30.3497C31.3806 27.7141 32.2159 28.5496 32.2159 29.5803C32.2159 30.6112 31.3806 31.4464 30.3497 31.4464Z" fill="#574D56"/>
<path d="M40.531 123.669H12.4441C10.7536 123.669 9.38281 122.298 9.38281 120.608V111.26C9.38281 109.569 10.7533 108.199 12.4441 108.199H40.5307C42.2213 108.199 43.592 109.569 43.592 111.26V120.608C43.592 122.298 42.2215 123.669 40.531 123.669Z" fill="#6CE79A"/>
<path d="M40.5309 108.199H34.374C36.0646 108.199 37.4353 109.569 37.4353 111.26V120.608C37.4353 122.298 36.0648 123.669 34.374 123.669H40.5309C42.2215 123.669 43.5922 122.298 43.5922 120.608V111.26C43.592 109.569 42.2215 108.199 40.5309 108.199Z" fill="#00D8A2"/>
<path d="M35.1982 101.201H17.7758C16.7449 101.201 15.9097 100.366 15.9097 99.335C15.9097 98.3044 16.7452 97.4689 17.7758 97.4689H35.1984C36.2293 97.4689 37.0646 98.3044 37.0646 99.335C37.0646 100.366 36.2291 101.201 35.1982 101.201Z" fill="#574D56"/>
<path d="M35.1987 94.1415H17.7763C16.7454 94.1415 15.9102 93.306 15.9102 92.2753C15.9102 91.2447 16.7456 90.4092 17.7763 90.4092H35.1989C36.2298 90.4092 37.065 91.2447 37.065 92.2753C37.065 93.306 36.2296 94.1415 35.1987 94.1415Z" fill="#574D56"/>
<path d="M55.4887 79.6512H46.9563C45.6404 79.6512 44.5737 78.5846 44.5737 77.2686V62.1238C44.5737 60.8079 45.6404 59.7412 46.9563 59.7412H55.4887C56.8046 59.7412 57.8713 60.8079 57.8713 62.1238V77.2686C57.8713 78.5843 56.8046 79.6512 55.4887 79.6512Z" fill="#6CE79A"/>
<path d="M56.2355 59.741H51.0352C52.3511 59.741 53.4177 60.8076 53.4177 62.1235V77.2684C53.4177 78.5843 52.3511 79.651 51.0352 79.651H56.2355C57.5515 79.651 58.6181 78.5843 58.6181 77.2684V62.1235C58.6183 60.8076 57.5515 59.741 56.2355 59.741Z" fill="#00D8A2"/>
<path d="M77.2988 63.3714H68.7663C67.4504 63.3714 66.3838 62.3047 66.3838 60.9888V43.3556C66.3838 42.0397 67.4504 40.973 68.7663 40.973H77.2988C78.6147 40.973 79.6813 42.0397 79.6813 43.3556V60.9888C79.6813 62.3047 78.6147 63.3714 77.2988 63.3714Z" fill="#6CE79A"/>
<path d="M78.0456 40.973H72.8452C74.1611 40.973 75.2278 42.0397 75.2278 43.3556V60.9888C75.2278 62.3047 74.1611 63.3714 72.8452 63.3714H78.0456C79.3615 63.3714 80.4282 62.3047 80.4282 60.9888V43.3556C80.4282 42.0397 79.3615 40.973 78.0456 40.973Z" fill="#00D8A2"/>
<path d="M99.1084 43.7969H90.5759C89.26 43.7969 88.1934 42.7303 88.1934 41.4143V23.7809C88.1934 22.465 89.26 21.3983 90.5759 21.3983H99.1084C100.424 21.3983 101.491 22.465 101.491 23.7809V41.4141C101.491 42.7303 100.424 43.7969 99.1084 43.7969Z" fill="#6CE79A"/>
<path d="M99.8552 21.3983H94.6548C95.9707 21.3983 97.0373 22.465 97.0373 23.7809V41.4141C97.0373 42.73 95.9707 43.7967 94.6548 43.7967H99.8552C101.171 43.7967 102.238 42.73 102.238 41.4141V23.7809C102.238 22.4652 101.171 21.3983 99.8552 21.3983Z" fill="#00D8A2"/>
</g>
<defs>
<clipPath id="clip0_137_2862">
<rect width="123.669" height="123.669" fill="white" transform="translate(0.666016)"/>
</clipPath>
</defs>
</svg>
