<svg width="124" height="124" viewBox="0 0 124 124" fill="none" xmlns="http://www.w3.org/2000/svg">
<g clip-path="url(#clip0_137_2756)">
<path d="M123.668 36.9938V112.526C123.668 114.587 121.996 116.259 119.936 116.259H3.73156C1.67121 116.259 -0.000976562 114.587 -0.000976562 112.526V36.9938H123.668Z" fill="#D5DAF2"/>
<path d="M97.0334 81.5176H26.6343C23.7455 81.5176 21.9513 78.3749 23.4218 75.8865L54.6949 22.9777H68.9728L100.246 75.8865C101.716 78.3749 99.9225 81.5176 97.0334 81.5176Z" fill="#BEC7EC"/>
<path d="M123.668 36.9938V112.526C123.668 114.587 121.996 116.259 119.936 116.259H109.321C111.381 116.259 113.053 114.587 113.053 112.526V36.9938H123.668Z" fill="#BEC7EC"/>
<path d="M20.8613 91.4554C19.8306 91.4554 18.9951 90.6199 18.9951 89.5893V47.0447C18.9951 46.0138 19.8306 45.1786 20.8613 45.1786C21.8919 45.1786 22.7274 46.0141 22.7274 47.0447V89.5893C22.7274 90.6199 21.8919 91.4554 20.8613 91.4554Z" fill="#8897DC"/>
<path d="M41.3476 89.4377C40.3169 89.4377 39.4814 88.6022 39.4814 87.5715V67.6376C39.4814 66.6067 40.3169 65.7715 41.3476 65.7715C42.3782 65.7715 43.2137 66.607 43.2137 67.6376V87.5715C43.2137 88.6022 42.3782 89.4377 41.3476 89.4377Z" fill="#8897DC"/>
<path d="M61.8334 108.881C60.8028 108.881 59.9673 108.045 59.9673 107.014V65.5944C59.9673 64.5635 60.8028 63.7283 61.8334 63.7283C62.8641 63.7283 63.6996 64.5638 63.6996 65.5944V107.014C63.6996 108.045 62.8641 108.881 61.8334 108.881Z" fill="#8897DC"/>
<path d="M82.3198 105.148C81.2891 105.148 80.4536 104.312 80.4536 103.282V75.5478C80.4536 74.5169 81.2891 73.6816 82.3198 73.6816C83.3504 73.6816 84.1859 74.5171 84.1859 75.5478V103.282C84.1859 104.312 83.3504 105.148 82.3198 105.148Z" fill="#8897DC"/>
<path d="M102.806 108.88C101.775 108.88 100.939 108.045 100.939 107.014V82.8856C100.939 81.8547 101.775 81.0194 102.806 81.0194C103.836 81.0194 104.672 81.8549 104.672 82.8856V107.014C104.672 108.045 103.836 108.88 102.806 108.88Z" fill="#8897DC"/>
<path d="M123.668 26.71V39.4824H-0.000976562V26.71C-0.000976562 24.6496 1.67121 22.9774 3.73156 22.9774H119.936C121.996 22.9777 123.668 24.6496 123.668 26.71Z" fill="#FCA62F"/>
<path d="M123.668 26.71V39.4824H113.053V26.71C113.053 24.6496 111.381 22.9774 109.321 22.9774H119.936C121.996 22.9777 123.668 24.6496 123.668 26.71Z" fill="#F98824"/>
<path d="M24.128 80.3812H17.594C16.3564 80.3812 15.353 79.3778 15.353 78.1401V55.394C15.353 54.1563 16.3564 53.153 17.594 53.153H24.128C25.3656 53.153 26.369 54.1563 26.369 55.394V78.1401C26.369 79.3778 25.3656 80.3812 24.128 80.3812Z" fill="#23F1A8"/>
<path d="M26.3702 55.3932V78.1406C26.3702 79.3775 25.3663 80.3816 24.1291 80.3816H18.0024C19.2394 80.3816 20.2435 79.3778 20.2435 78.1406V55.3932C20.2435 54.1563 19.2396 53.1522 18.0024 53.1522H24.1291C25.3663 53.1525 26.3702 54.1563 26.3702 55.3932Z" fill="#26D192"/>
<path d="M44.6143 82.8854H38.0804C36.8427 82.8854 35.8394 81.882 35.8394 80.6443V73.7256C35.8394 72.488 36.8427 71.4846 38.0804 71.4846H44.6143C45.852 71.4846 46.8553 72.488 46.8553 73.7256V80.6443C46.8553 81.882 45.852 82.8854 44.6143 82.8854Z" fill="#26D192"/>
<path d="M46.856 73.725V80.6449C46.856 81.8819 45.8521 82.886 44.615 82.886H38.4883C39.7252 82.886 40.7293 81.8821 40.7293 80.6449V73.725C40.7293 72.4881 39.7255 71.484 38.4883 71.484H44.615C45.8521 71.484 46.856 72.4881 46.856 73.725Z" fill="#1EB07C"/>
<path d="M67.3407 71.6836V96.6962C67.3407 97.9329 66.3378 98.9357 65.1011 98.9357H58.5667C57.3276 98.9357 56.3247 97.9329 56.3247 96.6962V71.6836C56.3247 70.4445 57.3276 69.4417 58.5667 69.4417H65.1011C66.3378 69.4417 67.3407 70.4445 67.3407 71.6836Z" fill="#FB4A59"/>
<path d="M65.1013 69.441L58.5667 69.4418C57.3276 69.4418 56.3247 70.4446 56.3247 71.6837V81.5176H57.6445C59.6167 81.5176 61.2157 83.1164 61.2157 85.0888V96.6963C61.2157 97.9332 60.2118 98.9373 58.9747 98.9373H65.1013C66.339 98.9373 67.3424 97.9339 67.3424 96.6963V71.6821C67.3421 70.4451 66.3383 69.441 65.1013 69.441Z" fill="#F82F40"/>
<path d="M85.587 98.9367H79.053C77.8154 98.9367 76.812 97.9334 76.812 96.6957V87.8567C76.812 86.6191 77.8154 85.6157 79.053 85.6157H85.587C86.8246 85.6157 87.828 86.6191 87.828 87.8567V96.6957C87.828 97.9334 86.8246 98.9367 85.587 98.9367Z" fill="#FB4A59"/>
<path d="M87.8286 87.8561V96.6963C87.8286 97.9332 86.8248 98.9373 85.5876 98.9373H79.4609C80.6979 98.9373 81.702 97.9335 81.702 96.6963V87.8561C81.702 86.6192 80.6981 85.6151 79.4609 85.6151H85.5876C86.8248 85.6151 87.8286 86.619 87.8286 87.8561Z" fill="#F82F40"/>
<path d="M106.072 103.913H99.5384C98.3007 103.913 97.2974 102.91 97.2974 101.672V95.3216C97.2974 94.0839 98.3007 93.0806 99.5384 93.0806H106.072C107.31 93.0806 108.313 94.0839 108.313 95.3216V101.672C108.313 102.91 107.31 103.913 106.072 103.913Z" fill="#FB4A59"/>
<path d="M108.314 95.321V101.673C108.314 102.91 107.311 103.914 106.073 103.914H99.9468C101.184 103.914 102.188 102.91 102.188 101.673V95.321C102.188 94.084 101.184 93.08 99.9468 93.08H106.073C107.311 93.08 108.314 94.084 108.314 95.321Z" fill="#F82F40"/>
<path d="M100.246 68.792L65.0468 9.24321C63.6019 6.79881 60.0652 6.79881 58.6206 9.24321L23.4215 68.792C21.9508 71.2801 23.7445 74.4238 26.6347 74.4238H97.0326C99.9229 74.4238 101.716 71.2801 100.246 68.792Z" fill="#FB4A59"/>
<path d="M97.033 74.4238H84.768C87.6571 74.4238 89.451 71.2811 87.9805 68.7928L55.7021 14.1818L58.6209 9.24248C60.0641 6.79905 63.6025 6.79905 65.0457 9.24248L100.245 68.7928C101.716 71.2811 99.922 74.4238 97.033 74.4238Z" fill="#F82F40"/>
<path d="M62.8944 49.4733H60.7719C59.1899 49.4733 57.8807 48.2426 57.7831 46.6634L56.7802 30.4331C56.6737 28.7099 58.0425 27.2539 59.7691 27.2539H63.8972C65.6238 27.2539 66.9926 28.7099 66.8861 30.4331L65.8832 46.6634C65.7856 48.2426 64.4765 49.4733 62.8944 49.4733Z" fill="#FFF1E2"/>
<path d="M61.8332 65.8429C64.7322 65.8429 67.0823 63.4928 67.0823 60.5938C67.0823 57.6947 64.7322 55.3446 61.8332 55.3446C58.9341 55.3446 56.584 57.6947 56.584 60.5938C56.584 63.4928 58.9341 65.8429 61.8332 65.8429Z" fill="#FFF1E2"/>
<path d="M113.054 50.5467H109.219C108.188 50.5467 107.353 49.7113 107.353 48.6806C107.353 47.6497 108.188 46.8145 109.219 46.8145H113.054C114.084 46.8145 114.92 47.6499 114.92 48.6806C114.92 49.7113 114.084 50.5467 113.054 50.5467Z" fill="#ABB7DD"/>
<path d="M113.053 57.2108H109.218C108.188 57.2108 107.352 56.3753 107.352 55.3447C107.352 54.314 108.188 53.4785 109.218 53.4785H113.053C114.084 53.4785 114.919 54.314 114.919 55.3447C114.919 56.3753 114.084 57.2108 113.053 57.2108Z" fill="#ABB7DD"/>
<path d="M12.6311 106.288C12.625 106.288 12.6193 106.288 12.6132 106.288L12.5874 106.288C11.5567 106.278 10.7292 105.435 10.7389 104.404C10.7485 103.38 11.5821 102.556 12.6045 102.556H12.6224L12.6482 102.556C13.6789 102.565 14.5064 103.409 14.4967 104.44C14.4873 105.464 13.6535 106.288 12.6311 106.288Z" fill="#ABB7DD"/>
<path d="M28.7851 106.288H20.3681C19.3374 106.288 18.502 105.453 18.502 104.422C18.502 103.392 19.3374 102.556 20.3681 102.556H28.7848C29.8155 102.556 30.651 103.392 30.651 104.422C30.651 105.453 29.8157 106.288 28.7851 106.288Z" fill="#ABB7DD"/>
<path d="M18.015 33.0963H17.9892C16.9585 33.0963 16.123 32.2608 16.123 31.2302C16.123 30.1993 16.9585 29.364 17.9892 29.364H18.015C19.0457 29.364 19.8812 30.1995 19.8812 31.2302C19.8812 32.2608 19.0457 33.0963 18.015 33.0963Z" fill="#F98824"/>
<path d="M24.9203 33.0963H24.8945C23.8638 33.0963 23.0283 32.2608 23.0283 31.2302C23.0283 30.1993 23.8638 29.364 24.8945 29.364H24.9203C25.951 29.364 26.7865 30.1995 26.7865 31.2302C26.7865 32.2608 25.951 33.0963 24.9203 33.0963Z" fill="#F98824"/>
</g>
<defs>
<clipPath id="clip0_137_2756">
<rect width="123.669" height="123.669" fill="white" transform="translate(-0.000976562)"/>
</clipPath>
</defs>
</svg>
