<svg width="124" height="124" viewBox="0 0 124 124" fill="none" xmlns="http://www.w3.org/2000/svg">
<g clip-path="url(#clip0_137_2818)">
<path d="M65.0091 78.6285V102.639H39.7173V78.6285H48.021V87.4144C48.021 89.8124 49.9651 91.7565 52.3632 91.7565C54.7612 91.7565 56.7054 89.8124 56.7054 87.4144V78.6285H65.0091Z" fill="#3351C5"/>
<path d="M48.0215 78.6285H39.7178V89.9177H48.8195C48.3186 89.2097 48.0215 88.3474 48.0215 87.4144V78.6285Z" fill="#2944AE"/>
<path d="M56.7053 78.6285V87.4144C56.7053 88.3474 56.4082 89.21 55.9072 89.9177H56.7053V102.639H65.009V78.6285H56.7053Z" fill="#2944AE"/>
<path d="M104.396 17.5046V72.5235H0.332031V17.5046C0.332031 15.7529 1.75278 14.3344 3.50467 14.3344H101.223C102.975 14.3344 104.396 15.7527 104.396 17.5046Z" fill="#D5DAF2"/>
<path d="M104.395 17.5046V72.5235H95.1116V17.5046C95.1116 15.7553 93.6909 14.3344 91.939 14.3344H101.223C102.975 14.3344 104.395 15.7527 104.395 17.5046Z" fill="#BEC7EC"/>
<path d="M31.3589 47.1529L33.4591 46.6925V72.0261H20.3779V57.3824L22.6523 56.2725C22.7941 56.2029 22.9211 56.1058 23.0281 55.9889L30.7045 47.5311C30.8787 47.3396 31.1077 47.2077 31.3589 47.1529Z" fill="#26D192"/>
<path d="M56.2495 31.2152V72.026H38.1421V45.6698L40.2222 45.2145C40.486 45.1548 40.7273 45.0128 40.9015 44.8065L53.0792 30.5285C53.4725 30.0657 54.1442 29.9563 54.6642 30.2672L56.2495 31.2152Z" fill="#26D192"/>
<path d="M76.8975 33.8652V72.026H64.4038V36.0898L66.2601 37.1997C66.6506 37.4311 67.1359 37.4335 67.5291 37.2021L75.0239 32.7954C75.8524 32.3051 76.8975 32.9048 76.8975 33.8652Z" fill="#26D192"/>
<path d="M22.866 56.1381V72.0259H14.5649V60.2165L22.652 56.2726C22.7266 56.2352 22.7988 56.1902 22.866 56.1381Z" fill="#FB4A59"/>
<path d="M40.6299 45.0427V72.026H30.9702V47.3096C31.0895 47.2374 31.2214 47.1828 31.3584 47.1528L40.2217 45.2145C40.3662 45.1821 40.5055 45.1224 40.6299 45.0427Z" fill="#FB4A59"/>
<path d="M66.8916 37.3737V72.0259H53.7607V30.1178C54.0619 30.0531 54.3854 30.1004 54.6641 30.2671L66.2595 37.1996C66.4537 37.3165 66.6728 37.3737 66.8916 37.3737Z" fill="#FB4A59"/>
<path d="M14.5654 24.6929C13.5347 24.6929 12.6992 25.5284 12.6992 26.559V70.0371C12.6992 71.068 13.5347 71.9033 14.5654 71.9033C15.596 71.9033 16.4315 71.0678 16.4315 70.0371V26.559C16.4315 25.5284 15.596 24.6929 14.5654 24.6929Z" fill="#A3AFE4"/>
<path d="M91.9394 22.5796C90.9085 22.5796 90.0732 23.4151 90.0732 24.4457V44.889C90.0732 45.9199 90.9087 46.7552 91.9394 46.7552C92.97 46.7552 93.8055 45.9197 93.8055 44.889V24.4457C93.8055 23.4151 92.97 22.5796 91.9394 22.5796Z" fill="#A3AFE4"/>
<path d="M42.2939 27.0696H41.5842V26.3599C41.5842 25.329 40.7487 24.4938 39.7181 24.4938C38.6874 24.4938 37.8519 25.3293 37.8519 26.3599V27.0696H37.1425C36.1119 27.0696 35.2764 27.9051 35.2764 28.9357C35.2764 29.9666 36.1119 30.8019 37.1425 30.8019H37.8519V31.5113C37.8519 32.5422 38.6874 33.3774 39.7181 33.3774C40.7487 33.3774 41.5842 32.5419 41.5842 31.5113V30.8019H42.2939C43.3245 30.8019 44.16 29.9664 44.16 28.9357C44.1602 27.9051 43.3245 27.0696 42.2939 27.0696Z" fill="#A3AFE4"/>
<path d="M104.395 70.0359V79.234C104.395 80.9881 102.974 82.4057 101.223 82.4057H3.5042C1.75326 82.4057 0.33252 80.9879 0.33252 79.234V70.0359H104.395Z" fill="#5169CD"/>
<path d="M104.395 70.0359V79.234C104.395 80.9881 102.974 82.4057 101.223 82.4057H91.9385C93.6894 82.4057 95.1101 80.9879 95.1101 79.234V70.0359H104.395Z" fill="#3351C5"/>
<path d="M69.8649 109.333H34.8625C32.7033 109.333 30.9531 107.583 30.9531 105.424C30.9531 103.265 32.7033 101.515 34.8625 101.515H69.8647C72.0238 101.515 73.774 103.265 73.774 105.424C73.7743 107.583 72.0238 109.333 69.8649 109.333Z" fill="#BEC7EC"/>
<path d="M73.7732 105.424C73.7732 106.502 73.3355 107.482 72.6283 108.189C71.9211 108.897 70.944 109.334 69.8658 109.334H61.229C62.3106 109.334 63.2874 108.897 63.9949 108.189C64.7021 107.482 65.14 106.502 65.14 105.424C65.14 103.263 63.3891 101.516 61.2292 101.516H69.866C72.0225 101.516 73.7732 103.263 73.7732 105.424Z" fill="#A3AFE4"/>
<path d="M124.001 81.2799V105.444C124.001 107.591 122.26 109.333 120.112 109.333H88.1647C86.0147 109.333 84.2729 107.591 84.2729 105.444V81.2799H124.001Z" fill="#A3AFE4"/>
<path d="M124.001 81.2799V105.444C124.001 107.591 122.259 109.333 120.112 109.333H112.453C114.603 109.333 116.344 107.591 116.344 105.444V81.2799H124.001Z" fill="#8897DC"/>
<path d="M124.001 48.78V83.7682H84.2725V48.78C84.2725 46.6301 86.0142 44.8883 88.1642 44.8883H97.0227L97.9333 47.8544C98.2543 48.8996 99.2197 49.6136 100.312 49.6136H107.961C109.056 49.6136 110.022 48.8993 110.34 47.8544L111.251 44.8883H120.112C122.259 44.8883 124.001 46.6301 124.001 48.78Z" fill="#23F1A8"/>
<path d="M116.344 48.7793V83.7682H124.001V48.7793C124.001 46.6308 122.259 44.8893 120.111 44.8893H112.454C114.603 44.8893 116.344 46.6308 116.344 48.7793Z" fill="#26D192"/>
<path d="M112.332 50.3433L114.006 44.8893H94.2686L95.9424 50.3433C96.2632 51.3882 97.2282 52.1015 98.3211 52.1015H109.953C111.046 52.1015 112.011 51.3882 112.332 50.3433Z" fill="#6D81D5"/>
<path d="M114.006 44.8883L112.331 50.3428C112.012 51.3879 111.047 52.1019 109.952 52.1019H103.983C105.075 52.1019 106.041 51.3877 106.362 50.3428L108.036 44.8883H114.006Z" fill="#5169CD"/>
<path d="M110.655 70.3864C110.655 66.4635 106.968 65.4983 104.765 64.9218C103.71 64.6454 102.265 64.2674 102.265 63.8464C102.265 63.4194 102.994 62.7991 104.137 62.7991C104.973 62.7991 105.557 63.13 105.826 63.4397C106.501 64.2184 107.68 64.3025 108.458 63.6278C109.237 62.9525 109.321 61.774 108.646 60.9953C107.978 60.2245 107.049 59.6533 106.003 59.34V58.7248C106.003 57.6939 105.167 56.8586 104.137 56.8586C103.106 56.8586 102.27 57.6941 102.27 58.7248V59.3405C100.095 59.9977 98.5326 61.7692 98.5326 63.8467C98.5326 67.1488 101.714 67.9816 103.82 68.5326C106.343 69.1927 106.922 69.5393 106.922 70.3864C106.922 71.2187 105.778 72.1463 104.137 72.1463C102.495 72.1463 101.351 71.2187 101.351 70.3864C101.351 69.3555 100.515 68.5202 99.4848 68.5202C98.4541 68.5202 97.6187 69.3557 97.6187 70.3864C97.6187 72.8685 99.5833 74.9701 102.271 75.6481V76.2211C102.271 77.252 103.106 78.0872 104.137 78.0872C105.168 78.0872 106.003 77.2517 106.003 76.2211V75.6481C108.69 74.9701 110.655 72.8685 110.655 70.3864Z" fill="#19BF7C"/>
<path d="M90.9388 54.3234L90.9129 54.3231C90.9071 54.3231 90.9011 54.3231 90.895 54.3231C89.8728 54.3231 89.039 55.147 89.0294 56.1719C89.0197 57.2025 89.8472 58.046 90.8781 58.0557L90.904 58.0559H90.9219C91.9441 58.0559 92.7779 57.232 92.7875 56.2071C92.7972 55.1765 91.9694 54.333 90.9388 54.3234Z" fill="#19BF7C"/>
<path d="M102.464 94.2499H91.9389C90.908 94.2499 90.0728 93.4144 90.0728 92.3837C90.0728 91.3531 90.9082 90.5176 91.9389 90.5176H102.464C103.495 90.5176 104.33 91.3531 104.33 92.3837C104.33 93.4144 103.495 94.2499 102.464 94.2499Z" fill="#788ACE"/>
<path d="M116.893 100.743H91.9389C90.908 100.743 90.0728 99.9073 90.0728 98.8766C90.0728 97.846 90.9082 97.0105 91.9389 97.0105H116.893C117.924 97.0105 118.76 97.846 118.76 98.8766C118.76 99.9073 117.924 100.743 116.893 100.743Z" fill="#788ACE"/>
</g>
<defs>
<clipPath id="clip0_137_2818">
<rect width="123.669" height="123.669" fill="white" transform="translate(0.33252)"/>
</clipPath>
</defs>
</svg>
