<svg width="22" height="22" viewBox="0 0 22 22" fill="none" xmlns="http://www.w3.org/2000/svg">
<g id="checkmark">
<path id="Vector" d="M10.1189 21.0806C7.43517 21.0806 4.8614 20.0145 2.96375 18.1168C1.06609 16.2192 0 13.6454 0 10.9617C0 8.27801 1.06609 5.70423 2.96375 3.80658C4.8614 1.90892 7.43517 0.84283 10.1189 0.84283C12.0147 0.828869 13.8752 1.35606 15.4819 2.3625L14.5068 3.92632C13.1922 3.10282 11.67 2.67138 10.1189 2.68262C8.48142 2.68262 6.88074 3.16818 5.51926 4.0779C4.15777 4.98761 3.09662 6.28063 2.47 7.79343C1.84338 9.30623 1.67942 10.9709 1.99887 12.5769C2.31832 14.1828 3.10683 15.658 4.26468 16.8159C5.42253 17.9737 6.89772 18.7622 8.5037 19.0817C10.1097 19.4011 11.7743 19.2372 13.2871 18.6106C14.7999 17.9839 16.0929 16.9228 17.0027 15.5613C17.9124 14.1998 18.3979 12.5991 18.3979 10.9617C18.4024 10.2313 18.319 9.50304 18.1496 8.79258L19.9342 8.34735C20.14 9.20343 20.242 10.0812 20.2377 10.9617C20.2346 13.6444 19.1675 16.2163 17.2705 18.1133C15.3735 20.0103 12.8016 21.0774 10.1189 21.0806Z" fill="#2D4EE7"/>
<path id="Vector_2" d="M10.1185 13.7198C9.87455 13.7198 9.64061 13.6228 9.46814 13.4503L5.13818 9.12035L6.43892 7.81962L10.1185 11.4992L20.2374 1.38034L21.5381 2.68107L10.7689 13.4503C10.5964 13.6228 10.3625 13.7198 10.1185 13.7198Z" fill="#2D4EE7"/>
</g>
</svg>
