<svg width="41" height="41" viewBox="0 0 41 41" fill="none" xmlns="http://www.w3.org/2000/svg">
<rect x="2.66675" y="2.42578" width="36" height="36" rx="18" fill="#FAE1CF"/>
<path d="M16.0584 16.5245C15.6678 16.9151 15.6678 17.5482 16.0584 17.9387C16.4489 18.3293 17.082 18.3293 17.4726 17.9387L18.1797 17.2316C18.5702 16.8411 18.5702 16.2079 18.1797 15.8174C17.7891 15.4269 17.156 15.4269 16.7655 15.8174L16.0584 16.5245Z" fill="#E46A11"/>
<path fill-rule="evenodd" clip-rule="evenodd" d="M12.7407 22.3993C12.1509 21.8094 11.8332 21.0006 11.8641 20.1669L12.1349 12.8562C12.1543 12.333 12.574 11.9133 13.0972 11.8939L20.4079 11.6232C21.2415 11.5923 22.0504 11.9099 22.6402 12.4998L29.4934 19.3529C30.6649 20.5245 30.6649 22.424 29.4934 23.5955L23.8365 29.2524C22.6649 30.424 20.7654 30.424 19.5939 29.2524L12.7407 22.3993ZM21.226 13.914L28.0792 20.7671C28.4697 21.1576 28.4697 21.7908 28.0792 22.1813L22.4223 27.8382C22.0318 28.2287 21.3986 28.2287 21.0081 27.8382L14.155 20.9851C13.9583 20.7884 13.8525 20.5188 13.8627 20.2409L14.0991 13.8582L20.4819 13.6218C20.7598 13.6115 21.0294 13.7174 21.226 13.914Z" fill="#E46A11"/>
<rect x="2.66675" y="2.42578" width="36" height="36" rx="18" stroke="#FDF1E8" stroke-width="4"/>
</svg>
