<svg width="41" height="41" viewBox="0 0 41 41" fill="none" xmlns="http://www.w3.org/2000/svg">
<rect x="2.16663" y="2.42578" width="36" height="36" rx="18" fill="#FCDAD7"/>
<path d="M15.5582 16.5245C15.1677 16.9151 15.1677 17.5482 15.5582 17.9387C15.9488 18.3293 16.5819 18.3293 16.9724 17.9387L17.6796 17.2316C18.0701 16.8411 18.0701 16.2079 17.6796 15.8174C17.289 15.4269 16.6559 15.4269 16.2653 15.8174L15.5582 16.5245Z" fill="#F04438"/>
<path fill-rule="evenodd" clip-rule="evenodd" d="M12.2406 22.3993C11.6507 21.8094 11.3331 21.0006 11.364 20.1669L11.6348 12.8562C11.6541 12.333 12.0738 11.9133 12.5971 11.8939L19.9078 11.6232C20.7414 11.5923 21.5502 11.9099 22.1401 12.4998L28.9932 19.3529C30.1648 20.5245 30.1648 22.424 28.9932 23.5955L23.3364 29.2524C22.1648 30.424 20.2653 30.424 19.0938 29.2524L12.2406 22.3993ZM20.7259 13.914L27.579 20.7671C27.9696 21.1576 27.9696 21.7908 27.579 22.1813L21.9222 27.8382C21.5317 28.2287 20.8985 28.2287 20.508 27.8382L13.6548 20.9851C13.4582 20.7884 13.3523 20.5188 13.3626 20.2409L13.599 13.8582L19.9818 13.6218C20.2597 13.6115 20.5293 13.7174 20.7259 13.914Z" fill="#F04438"/>
<rect x="2.16663" y="2.42578" width="36" height="36" rx="18" stroke="#FEEDEC" stroke-width="4"/>
</svg>
