<svg width="224" height="44" viewBox="0 0 224 44" fill="none" xmlns="http://www.w3.org/2000/svg">
<g id="logo 1" clip-path="url(#clip0_1_107)">
<path id="Vector" d="M0.5 10.3332C0.5 5.08654 4.75329 0.833252 10 0.833252H108.543C113.79 0.833252 118.043 5.08655 118.043 10.3333V33.6666C118.043 38.9133 113.79 43.1666 108.543 43.1666H10C4.7533 43.1666 0.5 38.9133 0.5 33.6666V10.3332Z" fill="white" stroke="#CEDDF4"/>
<path id="Vector_2" d="M14.5865 32.7892C13.8036 32.7892 13.0825 32.5957 12.4233 32.2086C11.7847 31.8215 11.2696 31.3122 10.8781 30.6806C10.4867 30.0287 10.291 29.3156 10.291 28.5414V26.8607H14.3701V28.3581C14.3701 28.46 14.4011 28.5516 14.4629 28.6332C14.5453 28.6942 14.638 28.7248 14.741 28.7248H28.0602C28.1631 28.7248 28.2456 28.6942 28.3074 28.6332C28.3897 28.5516 28.4309 28.46 28.4309 28.3581V24.1714C28.4309 24.0696 28.3897 23.9881 28.3074 23.927C28.2456 23.8658 28.1631 23.8353 28.0602 23.8353H14.5865C13.8036 23.8353 13.0825 23.6418 12.4233 23.2547C11.7847 22.8676 11.2696 22.3582 10.8781 21.7267C10.4867 21.0748 10.291 20.3515 10.291 19.557V15.0342C10.291 14.26 10.4867 13.5571 10.8781 12.9256C11.2696 12.2736 11.7847 11.7541 12.4233 11.367C13.0825 10.98 13.8036 10.7864 14.5865 10.7864H28.2455C29.0284 10.7864 29.7392 10.98 30.3778 11.367C31.0371 11.7541 31.5624 12.2736 31.9539 12.9256C32.3453 13.5571 32.541 14.26 32.541 15.0342V16.715H28.4309V15.2175C28.4309 15.1156 28.3897 15.0342 28.3074 14.973C28.2456 14.8916 28.1631 14.8508 28.0602 14.8508H14.741C14.638 14.8508 14.5453 14.8916 14.4629 14.973C14.4011 15.0342 14.3701 15.1156 14.3701 15.2175V19.4042C14.3701 19.506 14.4011 19.5875 14.4629 19.6486C14.5453 19.7098 14.638 19.7403 14.741 19.7403H28.2455C29.0284 19.7403 29.7392 19.9339 30.3778 20.321C31.0371 20.708 31.5624 21.2276 31.9539 21.8795C32.3453 22.511 32.541 23.2241 32.541 24.0186V28.5414C32.541 29.3156 32.3453 30.0287 31.9539 30.6806C31.5624 31.3122 31.0371 31.8215 30.3778 32.2086C29.7392 32.5957 29.0284 32.7892 28.2455 32.7892H14.5865Z" fill="#FD4D5D"/>
<path id="Vector_3" d="M43.8882 32.7892V14.8508H34.8027V10.7864H57.0528V14.8508H47.9983V32.7892H43.8882Z" fill="#FD4D5D"/>
<path id="Vector_4" d="M63.5983 32.7892C62.8154 32.7892 62.0943 32.5957 61.4351 32.2086C60.7964 31.8215 60.2813 31.3122 59.8899 30.6806C59.4985 30.0287 59.3027 29.3156 59.3027 28.5414V15.0342C59.3027 14.26 59.4985 13.5571 59.8899 12.9256C60.2813 12.2736 60.7964 11.7541 61.4351 11.367C62.0943 10.98 62.8154 10.7864 63.5983 10.7864H77.2573C78.0399 10.7864 78.7513 10.98 79.3893 11.367C80.0486 11.7541 80.5739 12.2736 80.9659 12.9256C81.3573 13.5571 81.5526 14.26 81.5526 15.0342V28.5414C81.5526 29.3156 81.3573 30.0287 80.9659 30.6806C80.5739 31.3122 80.0486 31.8215 79.3893 32.2086C78.7513 32.5957 78.0399 32.7892 77.2573 32.7892H63.5983ZM63.7528 28.7248H77.0413C77.1439 28.7248 77.2366 28.6942 77.3193 28.6332C77.4013 28.5516 77.4426 28.46 77.4426 28.3581V15.2175C77.4426 15.1156 77.4013 15.0342 77.3193 14.973C77.2366 14.8916 77.1439 14.8508 77.0413 14.8508H63.7528C63.6497 14.8508 63.5571 14.8916 63.4747 14.973C63.4129 15.0342 63.3819 15.1156 63.3819 15.2175V28.3581C63.3819 28.46 63.4129 28.5516 63.4747 28.6332C63.5571 28.6942 63.6497 28.7248 63.7528 28.7248Z" fill="#FD4D5D"/>
<path id="Vector_5" d="M84.9551 32.7899V10.8176H102.878C103.662 10.8176 104.382 11.0112 105.042 11.3982C105.701 11.7854 106.226 12.3048 106.618 12.9568C107.009 13.5884 107.205 14.2912 107.205 15.0654V20.994C107.205 21.7681 107.009 22.4812 106.618 23.1331C106.226 23.785 105.701 24.3046 105.042 24.6916C104.382 25.0584 103.662 25.2417 102.878 25.2417L89.0344 25.2722V32.7899H84.9551ZM89.4051 21.1773H102.693C102.796 21.1773 102.889 21.1468 102.972 21.0856C103.054 21.0245 103.095 20.943 103.095 20.8412V15.2182C103.095 15.1163 103.054 15.0348 102.972 14.9737C102.889 14.8922 102.796 14.8515 102.693 14.8515H89.4051C89.3024 14.8515 89.2091 14.8922 89.1271 14.9737C89.0651 15.0348 89.0344 15.1163 89.0344 15.2182V20.8412C89.0344 20.943 89.0651 21.0245 89.1271 21.0856C89.2091 21.1468 89.3024 21.1773 89.4051 21.1773Z" fill="#FD4D5D"/>
<path id="Vector_6" d="M146.029 32.7899L139.634 25.2417L141.936 25.2512L144.965 25.2444L150.479 31.6592V32.7899H146.029ZM128.291 32.7899V10.8176H146.214C146.997 10.8176 147.718 11.0112 148.378 11.3982C149.037 11.7854 149.562 12.3048 149.954 12.9568C150.345 13.5884 150.541 14.2912 150.541 15.0654V20.994C150.541 21.7681 150.345 22.4812 149.954 23.1331C149.562 23.785 149.037 24.3046 148.378 24.6916C147.718 25.0584 146.997 25.2417 146.214 25.2417H139.634L132.37 25.2722V32.7899H128.291ZM132.741 21.1773H146.029C146.132 21.1773 146.224 21.1468 146.307 21.0856C146.39 21.0245 146.43 20.943 146.43 20.8412V15.2182C146.43 15.1163 146.39 15.0348 146.307 14.9737C146.224 14.8922 146.132 14.8515 146.029 14.8515H132.741C132.638 14.8515 132.545 14.8922 132.462 14.9737C132.401 15.0348 132.37 15.1163 132.37 15.2182V20.8412C132.37 20.943 132.401 21.0245 132.462 21.0856C132.545 21.1468 132.638 21.1773 132.741 21.1773Z" fill="#24292E"/>
<path id="Vector_7" d="M153.854 32.7892V10.7864H174.342V14.8508H157.964V19.7403H171.128V23.8353H157.964V28.7248H174.342V32.7892H153.854Z" fill="#24292E"/>
<path id="Vector_8" d="M181.747 32.7892C180.964 32.7892 180.243 32.5957 179.583 32.2086C178.945 31.8215 178.43 31.3122 178.038 30.6806C177.647 30.0287 177.451 29.3156 177.451 28.5414V15.0342C177.451 14.26 177.647 13.5571 178.038 12.9256C178.43 12.2736 178.945 11.7541 179.583 11.367C180.243 10.98 180.964 10.7864 181.747 10.7864H199.639V14.8508H182.612C182.282 14.8508 182.014 14.9425 181.808 15.1258C181.623 15.3092 181.53 15.574 181.53 15.9204V27.6552C181.53 27.9812 181.623 28.246 181.808 28.4498C182.014 28.6332 182.282 28.7248 182.612 28.7248H199.639V32.7892H181.747Z" fill="#24292E"/>
<path id="Vector_9" d="M210.834 32.7892V14.8508H201.748V10.7864H223.999V14.8508H214.944V32.7892H210.834Z" fill="#24292E"/>
</g>
<defs>
<clipPath id="clip0_1_107">
<rect width="224" height="43.3333" fill="white" transform="translate(0 0.333252)"/>
</clipPath>
</defs>
</svg>
