<svg width="26" height="26" viewBox="0 0 26 26" fill="none" xmlns="http://www.w3.org/2000/svg">
<g id="Iconly/Curved/Profile">
<g id="Group">
<path id="Vector" fill-rule="evenodd" clip-rule="evenodd" d="M12.498 23.1444C8.65238 23.1444 5.36829 22.546 5.36829 20.1494C5.36829 17.7527 8.63154 15.5403 12.498 15.5403C16.3437 15.5403 19.6278 17.7313 19.6278 20.1279C19.6278 22.5236 16.3645 23.1444 12.498 23.1444Z" stroke="#929EB6" stroke-width="2" stroke-linecap="round" stroke-linejoin="round"/>
<path id="Vector_2" fill-rule="evenodd" clip-rule="evenodd" d="M12.4905 12.2193C15.0141 12.2193 17.0596 10.1738 17.0596 7.65015C17.0596 5.12648 15.0141 3.08008 12.4905 3.08008C9.96678 3.08008 7.92038 5.12648 7.92038 7.65015C7.91185 10.1653 9.9431 12.2108 12.4583 12.2193C12.4696 12.2193 12.48 12.2193 12.4905 12.2193Z" stroke="#929EB6" stroke-width="2" stroke-linecap="round" stroke-linejoin="round"/>
</g>
</g>
</svg>
