<svg width="96" height="96" viewBox="0 0 96 96" fill="none" xmlns="http://www.w3.org/2000/svg">
<g id="Solana (SOL)/vuvietduc.com">
<rect x="0.796143" y="0.704102" width="94.4077" height="94.4077" rx="39.3365" fill="white"/>
<g id="Solana (SOL)">
<circle id="Solana (SOL)_2" cx="48.0097" cy="47.904" r="47.2038" fill="black"/>
<g id="Solana (SOL)_3">
<path id="Solana (SOL)_4" d="M30.0685 59.0853C30.3956 58.7582 30.8453 58.5674 31.3224 58.5674H74.5827C75.3732 58.5674 75.7685 59.5215 75.2097 60.0803L66.6639 68.626C66.3368 68.9531 65.887 69.1439 65.41 69.1439H22.1497C21.3591 69.1439 20.9639 68.1899 21.5227 67.6311L30.0685 59.0853Z" fill="url(#paint0_linear_1_138)"/>
<path id="Solana (SOL)_5" d="M30.0685 27.1791C30.4092 26.8519 30.859 26.6611 31.3224 26.6611H74.5827C75.3732 26.6611 75.7685 27.6152 75.2097 28.174L66.6639 36.7198C66.3368 37.0469 65.887 37.2377 65.41 37.2377H22.1497C21.3591 37.2377 20.9639 36.2836 21.5227 35.7248L30.0685 27.1791Z" fill="url(#paint1_linear_1_138)"/>
<path id="Solana (SOL)_6" d="M66.6639 43.0306C66.3368 42.7035 65.887 42.5127 65.41 42.5127H22.1497C21.3591 42.5127 20.9639 43.4668 21.5227 44.0256L30.0685 52.5713C30.3956 52.8984 30.8453 53.0893 31.3224 53.0893H74.5827C75.3732 53.0893 75.7685 52.1352 75.2097 51.5764L66.6639 43.0306Z" fill="url(#paint2_linear_1_138)"/>
</g>
</g>
</g>
<defs>
<linearGradient id="paint0_linear_1_138" x1="-76.5149" y1="18.6349" x2="-77.6659" y2="76.5533" gradientUnits="userSpaceOnUse">
<stop stop-color="#00FFA3"/>
<stop offset="1" stop-color="#DC1FFF"/>
</linearGradient>
<linearGradient id="paint1_linear_1_138" x1="-89.6061" y1="11.8008" x2="-90.7571" y2="69.7193" gradientUnits="userSpaceOnUse">
<stop stop-color="#00FFA3"/>
<stop offset="1" stop-color="#DC1FFF"/>
</linearGradient>
<linearGradient id="paint2_linear_1_138" x1="-83.1022" y1="15.1967" x2="-84.2532" y2="73.1152" gradientUnits="userSpaceOnUse">
<stop stop-color="#00FFA3"/>
<stop offset="1" stop-color="#DC1FFF"/>
</linearGradient>
</defs>
</svg>
